<svg xmlns="http://www.w3.org/2000/svg" width="81.881" height="65.017" viewBox="0 0 81.881 65.017"><defs><style>.a{opacity:0.8;}.b{fill:#af8058;}</style></defs><g class="a" transform="translate(-1725.291 -657.618)"><g transform="translate(1725.291 685.535)"><g transform="translate(10.231 16.463)"><path class="b" d="M1768.677,744.956c-5.351-2.03-6.359-2.638-8.349-4.31s-4.954-2.608-6.961-1.934c-3.7,1.242-3.763,5.494-5.078,8.245-1.5,3.145-6.471,7.105-3.335,10.975s8.626-2.839,14.2-3.36,4.839-.51,9.11-.9S1774.694,747.239,1768.677,744.956Z" transform="translate(-1743.935 -738.492)"/></g><path class="b" d="M1730.483,736.084c2.578,1.063,5.832,2.864,6.35,6.626a3.994,3.994,0,0,1-5.275,4.55c-1.7-.567-5.64-3.939-6.205-7.891S1728.165,735.127,1730.483,736.084Z" transform="translate(-1725.291 -720.735)"/><path class="b" d="M1745.322,716.106c2.013,1.93,4.387,4.792,3.5,8.484a3.994,3.994,0,0,1-6.57,2.315c-1.376-1.147-3.817-5.724-2.9-9.609S1743.512,714.371,1745.322,716.106Z" transform="translate(-1731.544 -711.245)"/><path class="b" d="M1782.969,723.126c-1.8,2.132-3.853,5.231-2.578,8.808a4,4,0,0,0,6.779,1.6c1.246-1.287,3.187-6.1,1.865-9.864S1784.584,721.207,1782.969,723.126Z" transform="translate(-1749.976 -714.253)"/><path class="b" d="M1761.726,711.718c-.82,2.665-1.5,6.321,1.069,9.115a3.994,3.994,0,0,0,6.867-1.173c.644-1.672.55-6.858-2.137-9.808S1762.464,709.32,1761.726,711.718Z" transform="translate(-1741.397 -708.491)"/></g><g transform="translate(1767.46 657.618)"><g transform="translate(3.405 16.078)"><path class="b" d="M1835.462,698.807c-4.086-4.009-4.764-4.969-5.915-7.3s-3.489-4.378-5.6-4.567c-3.89-.349-5.653,3.52-7.962,5.511-2.641,2.276-8.78,3.908-7.463,8.711s9.04.864,14.35,2.625,4.636,1.477,8.705,2.833S1840.055,703.314,1835.462,698.807Z" transform="translate(-1808.342 -686.918)"/></g><path class="b" d="M1808.433,672.785c1.934,2.01,4.191,4.965,3.154,8.619a3.994,3.994,0,0,1-6.658,2.048c-1.329-1.2-3.583-5.873-2.513-9.719S1806.694,670.978,1808.433,672.785Z" transform="translate(-1802.137 -663.719)"/><path class="b" d="M1829.228,660.529c1.068,2.576,2.093,6.15-.2,9.175a3.994,3.994,0,0,1-6.947-.519c-.8-1.6-1.2-6.775,1.2-9.966S1828.268,658.213,1829.228,660.529Z" transform="translate(-1810.857 -657.618)"/><path class="b" d="M1859.885,683.174c-2.5,1.232-5.63,3.243-5.9,7.032a4,4,0,0,0,5.564,4.191c1.658-.679,5.367-4.3,5.67-8.285S1862.135,682.066,1859.885,683.174Z" transform="translate(-1825.529 -668.873)"/><path class="b" d="M1845.234,663.485c-1.821,2.112-3.915,5.186-2.682,8.777a3.994,3.994,0,0,0,6.76,1.684c1.262-1.272,3.259-6.059,1.982-9.841S1846.873,661.586,1845.234,663.485Z" transform="translate(-1820.208 -659.441)"/></g></g></svg>