<svg xmlns="http://www.w3.org/2000/svg" xmlns:xlink="http://www.w3.org/1999/xlink" width="452.541" height="386.078" viewBox="0 0 452.541 386.078"><defs><style>.a,.e{fill:#fff;}.a{stroke:#707070;}.b{clip-path:url(#a);}.c{fill:#d6d4d4;}.d{fill:#606060;}.f{fill:#f5efdb;}.g{fill:#dcd8c6;}</style><clipPath id="a"><rect class="a" width="174.863" height="150.023"/></clipPath></defs><g transform="translate(-7320.179 -5394)"><g class="b" transform="translate(7597.857 5394)"><path class="c" d="M2044.491,7235.309a33.137,33.137,0,0,0-33.123-32.558c-.149,0-.3.021-.448.023a40.749,40.749,0,0,0-80.651-.375,42.442,42.442,0,0,0-42.629-.557,26.119,26.119,0,0,0-26.1-25.229c-.3,0-.583.034-.878.045.011-.4.032-.805.032-1.21a41.972,41.972,0,0,0-80.181-17.369,26.1,26.1,0,0,0-40.862,5.169,45.891,45.891,0,0,0-77.42,28.419,31.762,31.762,0,0,0-39.605,27.616c-9.145,3-15.464,9.3-15.464,16.62,0,10.211,12.273,18.49,27.414,18.49.726,0,1.442-.038,2.153-.074a25.393,25.393,0,0,0,17.611,7.086,26.237,26.237,0,0,0,2.835-.164,26.7,26.7,0,0,0,39.789,9.6,41,41,0,0,0,59.38-12.466,27.338,27.338,0,0,0,39.6,3.975,18.7,18.7,0,0,0,26.908,8.233,41.015,41.015,0,0,0,53.445-4.046,42.435,42.435,0,0,0,62.074,2.424,28.669,28.669,0,0,0,45.113.07,24.792,24.792,0,0,0,36.543,2.87,22.054,22.054,0,1,0,24.453-36.6Z" transform="translate(-1606.241 -7131.511)"/></g><g transform="translate(7320.179 5484.847)"><path class="d" d="M1727.654,7249.767a.582.582,0,0,1-.539-.834c.959-1.979,1.467-3.125,1.472-3.136a.581.581,0,0,1,1.062.471c0,.012-.52,1.173-1.488,3.172A.582.582,0,0,1,1727.654,7249.767Z" transform="translate(-1353.288 -7245.451)"/><path class="d" d="M1286.819,7542.988c-.938.031-1.888.048-2.836.068a.581.581,0,0,1-.028-1.162h0c.945-.019,1.888-.046,2.827-.068q2.086-.059,4.155-.146h.008a.581.581,0,0,1,.04,1.162Q1288.913,7542.928,1286.819,7542.988Zm-9.828.135h-.017c-2.321,0-4.679-.029-7.009-.08a.58.58,0,0,1-.568-.594.574.574,0,0,1,.593-.568c2.323.05,4.673.078,6.985.079a.582.582,0,0,1,.017,1.163Zm20.978-.644a.581.581,0,0,1-.052-1.161c2.326-.146,4.669-.319,6.965-.514a.581.581,0,0,1,.1,1.158c-2.3.2-4.656.369-6.99.514A.073.073,0,0,1,1297.969,7542.479Zm13.941-1.182a.582.582,0,0,1-.077-1.16c2.315-.248,4.647-.523,6.933-.82a.581.581,0,0,1,.149,1.153c-2.294.3-4.635.574-6.959.823Zm13.872-1.8a.581.581,0,0,1-.1-1.155c2.279-.349,4.6-.729,6.889-1.132a.581.581,0,1,1,.2,1.145c-2.3.4-4.628.787-6.915,1.136A.366.366,0,0,1,1325.782,7539.5Zm13.777-2.425a.581.581,0,0,1-.13-1.151c2.275-.456,4.573-.942,6.831-1.448a.581.581,0,0,1,.255,1.134c-2.268.508-4.574,1-6.857,1.453A.628.628,0,0,1,1339.558,7537.072Zm13.651-3.059a.581.581,0,0,1-.156-1.145c2.261-.563,4.534-1.156,6.756-1.764a.581.581,0,0,1,.306,1.121c-2.23.61-4.512,1.207-6.781,1.771A.7.7,0,0,1,1353.21,7534.013Zm13.494-3.692a.581.581,0,0,1-.183-1.137c2.232-.668,4.474-1.368,6.665-2.079a.581.581,0,0,1,.36,1.1c-2.2.715-4.451,1.417-6.691,2.087A.6.6,0,0,1,1366.7,7530.32Zm13.305-4.323a.581.581,0,0,1-.209-1.129c2.191-.769,4.4-1.574,6.559-2.393a.582.582,0,0,1,.411,1.088c-2.17.82-4.386,1.628-6.585,2.4A.584.584,0,0,1,1380.009,7526Zm13.085-4.947a.581.581,0,0,1-.234-1.12c2.139-.867,4.306-1.776,6.439-2.7a.581.581,0,0,1,.463,1.067c-2.142.928-4.317,1.84-6.465,2.711A.609.609,0,0,1,1393.094,7521.05Zm12.838-5.566a.58.58,0,0,1-.26-1.107c2.095-.968,4.215-1.978,6.3-3a.581.581,0,0,1,.512,1.043c-2.1,1.03-4.224,2.044-6.329,3.015A.562.562,0,0,1,1405.933,7515.484Zm12.561-6.165a.58.58,0,0,1-.285-1.1c2.051-1.069,4.122-2.177,6.155-3.3a.581.581,0,0,1,.561,1.018c-2.041,1.125-4.12,2.239-6.179,3.311A.587.587,0,0,1,1418.493,7509.319Zm12.254-6.751a.582.582,0,0,1-.309-1.084c1.993-1.159,4.01-2.364,5.994-3.583a.581.581,0,1,1,.608.99c-1.991,1.224-4.016,2.435-6.017,3.6A.588.588,0,0,1,1430.747,7502.567Zm11.925-7.325a.581.581,0,0,1-.333-1.068c1.946-1.259,3.9-2.558,5.82-3.86a.581.581,0,1,1,.654.96c-1.922,1.307-3.888,2.612-5.842,3.875A.569.569,0,0,1,1442.672,7495.243Zm11.57-7.872a.581.581,0,0,1-.355-1.054c1.9-1.356,3.79-2.744,5.633-4.128a.581.581,0,1,1,.7.929c-1.85,1.389-3.752,2.784-5.655,4.145A.577.577,0,0,1,1454.242,7487.371Zm11.191-8.4a.581.581,0,0,1-.376-1.038c1.817-1.432,3.646-2.907,5.436-4.385a.581.581,0,0,1,.74.9c-1.8,1.483-3.633,2.964-5.457,4.4A.589.589,0,0,1,1465.432,7478.968Zm10.79-8.914a.581.581,0,0,1-.4-1.021c1.743-1.508,3.5-3.066,5.229-4.632a.581.581,0,0,1,.78.861c-1.732,1.571-3.5,3.137-5.248,4.65A.578.578,0,0,1,1476.223,7470.054Zm10.367-9.4a.581.581,0,0,1-.418-1c1.677-1.594,3.362-3.232,5.008-4.871a.581.581,0,1,1,.821.824c-1.653,1.645-3.345,3.291-5.028,4.889A.578.578,0,0,1,1486.589,7460.652Zm9.921-9.875a.579.579,0,0,1-.435-.981c1.6-1.671,3.21-3.387,4.777-5.1a.581.581,0,1,1,.857.784c-1.573,1.719-3.187,3.44-4.8,5.119A.58.58,0,0,1,1496.51,7450.777Zm9.453-10.325a.569.569,0,0,1-.4-.144.581.581,0,0,1-.057-.82c1.526-1.746,3.051-3.534,4.533-5.315a.581.581,0,1,1,.893.743c-1.488,1.789-3.02,3.585-4.551,5.337A.58.58,0,0,1,1505.963,7440.453Zm8.954-10.759a.581.581,0,0,1-.471-.941c1.441-1.819,2.879-3.68,4.272-5.527a.581.581,0,1,1,.928.7c-1.4,1.857-2.843,3.724-4.289,5.549A.578.578,0,0,1,1514.917,7429.693Zm8.425-11.18a.58.58,0,0,1-.489-.918c1.351-1.887,2.7-3.816,3.994-5.731a.581.581,0,1,1,.962.651c-1.3,1.924-2.654,3.861-4.011,5.756A.582.582,0,0,1,1523.342,7418.513Zm7.857-11.59a.581.581,0,0,1-.506-.894c1.257-1.962,2.5-3.957,3.692-5.93a.58.58,0,0,1,.993.6c-1.2,1.98-2.443,3.985-3.706,5.957A.581.581,0,0,1,1531.2,7406.923Zm7.234-11.984a.573.573,0,0,1-.3-.076.581.581,0,0,1-.219-.792c1.155-2.038,2.284-4.1,3.356-6.125a.581.581,0,0,1,1.027.543c-1.076,2.037-2.211,4.107-3.372,6.155A.582.582,0,0,1,1538.433,7394.939Zm6.544-12.377a.581.581,0,0,1-.537-.837c1.032-2.1,2.033-4.229,2.976-6.317a.581.581,0,0,1,1.059.478c-.947,2.1-1.954,4.237-2.992,6.352A.582.582,0,0,1,1544.977,7382.562Zm5.755-12.766a.565.565,0,0,1-.237-.043.581.581,0,0,1-.318-.758c.894-2.182,1.746-4.37,2.529-6.506a.581.581,0,1,1,1.091.4c-.788,2.15-1.645,4.352-2.545,6.546A.578.578,0,0,1,1550.732,7369.8Zm4.814-13.147a.579.579,0,0,1-.57-.757c.722-2.248,1.387-4.5,1.978-6.688a.581.581,0,1,1,1.122.3c-.6,2.208-1.267,4.475-1.994,6.74A.581.581,0,0,1,1555.546,7356.648Zm3.636-13.518a.535.535,0,0,1-.138-.013.58.58,0,0,1-.446-.689c.5-2.324.917-4.629,1.249-6.852a.581.581,0,0,1,1.149.172c-.336,2.245-.76,4.575-1.262,6.922A.581.581,0,0,1,1559.182,7343.131Zm-10.686-12.016a48.676,48.676,0,0,1-5.085-.124.58.58,0,0,1-.534-.624.57.57,0,0,1,.623-.534,47.871,47.871,0,0,0,6.907.025.581.581,0,0,1,.08,1.159C1549.825,7331.064,1549.155,7331.1,1548.5,7331.115Zm8.88-1.065a.581.581,0,0,1-.136-1.149c1.134-.24,2.278-.523,3.423-.846.142-2.182.19-4.306.144-6.324a.581.581,0,0,1,.565-.594h0a.581.581,0,0,1,.595.567c.044,1.92,0,3.935-.12,6q1.025-.313,2.047-.67a.581.581,0,0,1,.382,1.1c-.847.3-1.7.571-2.551.824a.581.581,0,0,1-.839.242q-1.709.48-3.408.839A.586.586,0,0,1,1557.376,7330.05Zm-20.819-.088a.6.6,0,0,1-.141-.012,52.129,52.129,0,0,1-6.793-1.956.581.581,0,1,1,.4-1.09,50.955,50.955,0,0,0,6.642,1.91.581.581,0,0,1-.107,1.148Zm34-4.477a.581.581,0,0,1-.269-1.1c2.024-.972,4.075-2.087,6.1-3.313a.581.581,0,0,1,.6.994c-2.053,1.246-4.137,2.378-6.194,3.367A.564.564,0,0,1,1570.559,7325.485Zm-47.043-.422a.584.584,0,0,1-.312-.081,29.043,29.043,0,0,1-5.654-4.326.582.582,0,0,1,.82-.825,27.82,27.82,0,0,0,5.428,4.151.582.582,0,0,1-.282,1.081Zm59.011-6.8a.58.58,0,0,1-.357-1.05c1.818-1.32,3.661-2.765,5.478-4.29a.581.581,0,1,1,.747.889c-1.839,1.543-3.7,3-5.544,4.34A.573.573,0,0,1,1582.527,7318.265Zm-21.7-2.936a.582.582,0,0,1-.591-.495,39.767,39.767,0,0,0-1.576-6.705.581.581,0,1,1,1.1-.369,41,41,0,0,1,1.624,6.9.582.582,0,0,1-.49.661A.471.471,0,0,1,1560.825,7315.329Zm-47.01-.093a.581.581,0,0,1-.532-.311,21.74,21.74,0,0,1-2.238-6.8.582.582,0,1,1,1.149-.177,20.579,20.579,0,0,0,2.117,6.436.581.581,0,0,1-.244.784A.574.574,0,0,1,1513.816,7315.235Zm79.442-5.956a.581.581,0,0,1-.416-1c1.64-1.559,3.3-3.22,4.923-4.936a.581.581,0,1,1,.844.8c-1.64,1.73-3.311,3.406-4.968,4.979A.578.578,0,0,1,1593.257,7309.28Zm-36.92-7.115a.585.585,0,0,1-.527-.3,63.757,63.757,0,0,0-3.634-5.9.582.582,0,1,1,.953-.667,65.214,65.214,0,0,1,3.7,6.009.58.58,0,0,1-.231.788A.586.586,0,0,1,1556.337,7302.165Zm46.559-3.037a.581.581,0,0,1-.456-.96c1.483-1.718,2.98-3.528,4.45-5.378a.581.581,0,1,1,.91.723c-1.479,1.863-2.986,3.684-4.48,5.415A.58.58,0,0,1,1602.9,7299.128Zm-91.221,2.522a.59.59,0,0,1-.109-.006.583.583,0,0,1-.482-.667,24.818,24.818,0,0,1,2.145-6.812.582.582,0,0,1,1.048.5,23.663,23.663,0,0,0-2.045,6.493A.579.579,0,0,1,1511.676,7301.65Zm36.59-10.867a.574.574,0,0,1-.437-.18,31.344,31.344,0,0,0-5.217-4.443.581.581,0,1,1,.645-.967,32.482,32.482,0,0,1,5.414,4.608.581.581,0,0,1-.4.981Zm63.348-2.618a.581.581,0,0,1-.483-.925c1.356-1.842,2.716-3.759,4.045-5.7a.58.58,0,0,1,.957.657c-1.335,1.947-2.7,3.875-4.067,5.728A.574.574,0,0,1,1611.614,7288.166Zm-93.952,1.043a.58.58,0,0,1-.446-.971,21.813,21.813,0,0,1,5.6-4.456.581.581,0,0,1,.56,1.019,20.663,20.663,0,0,0-5.3,4.22A.579.579,0,0,1,1517.662,7289.209Zm18.987-5.917a.6.6,0,0,1-.173-.021,17.4,17.4,0,0,0-5.212-.66h-.017c-.489.014-.985.05-1.472.108a.581.581,0,1,1-.136-1.154c.528-.062,1.072-.1,1.594-.116a18.587,18.587,0,0,1,5.558.7.581.581,0,0,1-.141,1.14Zm82.893-6.676a.581.581,0,0,1-.5-.9c1.242-1.938,2.482-3.937,3.686-5.938a.581.581,0,0,1,1,.6c-1.209,2.012-2.456,4.019-3.7,5.967A.58.58,0,0,1,1619.541,7276.616Zm7.219-12.009a.575.575,0,0,1-.3-.074.582.582,0,0,1-.222-.792c1.153-2.046,2.278-4.113,3.344-6.14a.582.582,0,1,1,1.03.541c-1.073,2.038-2.2,4.114-3.361,6.17A.58.58,0,0,1,1626.76,7264.606Z" transform="translate(-1258.905 -7247.892)"/><path class="d" d="M1260.26,7616.656h-.042q-1.74-.074-3.489-.165a.581.581,0,0,1,.061-1.16q1.742.092,3.477.163a.581.581,0,0,1-.007,1.162Z" transform="translate(-1256.179 -7321.731)"/></g><g transform="translate(7650.355 5435.102)"><path class="e" d="M1701.839,7238.7l-29.7-1.388,91.968-54.53Z" transform="translate(-1672.138 -7182.781)"/><path class="f" d="M1709.556,7238.7l3.517,24.039,8.866-18.31,49.884-61.647Z" transform="translate(-1679.855 -7182.781)"/><path class="g" d="M1713.986,7278.754l17.653-12.493-8.787-5.815Z" transform="translate(-1680.769 -7198.797)"/><path class="e" d="M1725.155,7244.428l29.8,26.622,20.089-88.269Z" transform="translate(-1683.072 -7182.781)"/></g></g></svg>