<svg xmlns="http://www.w3.org/2000/svg" width="50.32" height="51.703" viewBox="0 0 50.32 51.703"><defs><style>.a{opacity:0.15;}.b{fill:#686767;}</style></defs><g class="a" transform="translate(-1516.073 -2899.748)"><path class="b" d="M1558.288,2900.477a11.936,11.936,0,0,1,4.225,2.228,10.206,10.206,0,0,1,2.843,3.918,14.46,14.46,0,0,1,1.037,5.724,14.789,14.789,0,0,1-1.191,5.915,13.547,13.547,0,0,1-3.611,4.878,17.479,17.479,0,0,1-6.223,3.342,29.146,29.146,0,0,1-8.949,1.23h-7.529l-5.993,22.432h4.15l-.385,1.306h-20.588l.383-1.306h3.994l13.137-49.167h-4.071l.307-1.229h23.355A17.61,17.61,0,0,1,1558.288,2900.477Zm-9.1,24.046a17.189,17.189,0,0,0,3.418-4.8,27.285,27.285,0,0,0,2.037-5.724,22.11,22.11,0,0,0,.691-4.8q0-4.455-1.844-6.3a6.452,6.452,0,0,0-4.763-1.844h-2.689l-6.761,25.507h5.072A6.692,6.692,0,0,0,1549.184,2924.523Z" transform="translate(0)"/></g></svg>