<svg xmlns="http://www.w3.org/2000/svg" width="51.191" height="52.448" viewBox="0 0 51.191 52.448"><defs><style>.a{fill:#fff;stroke:#babfc6;stroke-miterlimit:10;stroke-width:0.75px;}</style></defs><g transform="translate(-1352.339 -1661.223)"><path class="a" d="M1395.051,1662.327a11.949,11.949,0,0,1,4.224,2.228,10.214,10.214,0,0,1,2.843,3.918,14.465,14.465,0,0,1,1.037,5.723,14.792,14.792,0,0,1-1.191,5.915,13.544,13.544,0,0,1-3.611,4.878,17.487,17.487,0,0,1-6.221,3.341,29.169,29.169,0,0,1-8.949,1.229h-7.529l-5.992,22.431h4.148l-.383,1.306H1352.84l.384-1.306h3.994l13.135-49.163h-4.071l.308-1.229h23.352A17.624,17.624,0,0,1,1395.051,1662.327Zm-9.1,24.044a17.154,17.154,0,0,0,3.418-4.8,27.226,27.226,0,0,0,2.036-5.723,22.1,22.1,0,0,0,.692-4.8q0-4.453-1.844-6.3a6.447,6.447,0,0,0-4.763-1.843H1382.8l-6.761,25.5h5.07A6.691,6.691,0,0,0,1385.948,1686.371Z"/></g></svg>