<svg xmlns="http://www.w3.org/2000/svg" width="51.192" height="52.448" viewBox="0 0 51.192 52.448"><defs><style>.a{fill:none;stroke:#babfc6;stroke-miterlimit:10;stroke-width:0.75px;}</style></defs><g transform="translate(-1427.447 -1661.223)"><path class="a" d="M1470.159,1662.327a11.953,11.953,0,0,1,4.225,2.228,10.211,10.211,0,0,1,2.842,3.918,14.445,14.445,0,0,1,1.038,5.723,14.8,14.8,0,0,1-1.192,5.915,13.555,13.555,0,0,1-3.61,4.878,17.492,17.492,0,0,1-6.222,3.341,29.165,29.165,0,0,1-8.949,1.229h-7.528l-5.993,22.431h4.149l-.384,1.306h-20.587l.384-1.306h3.994l13.136-49.163h-4.071l.307-1.229h23.353A17.612,17.612,0,0,1,1470.159,1662.327Zm-9.1,24.044a17.2,17.2,0,0,0,3.418-4.8,27.281,27.281,0,0,0,2.036-5.723,22.084,22.084,0,0,0,.691-4.8q0-4.453-1.844-6.3a6.445,6.445,0,0,0-4.762-1.843h-2.689l-6.761,25.5h5.071A6.693,6.693,0,0,0,1461.057,1686.371Z"/></g></svg>