<svg xmlns="http://www.w3.org/2000/svg" xmlns:xlink="http://www.w3.org/1999/xlink" width="50.316" height="51.698" viewBox="0 0 50.316 51.698"><defs><style>.a{fill:url(#a);}</style><linearGradient id="a" y1="0.5" x2="1" y2="0.5" gradientUnits="objectBoundingBox"><stop offset="0" stop-color="#353c3d"/><stop offset="0.061" stop-color="#51585a"/><stop offset="0.171" stop-color="#7f8589"/><stop offset="0.269" stop-color="#a1a6ac"/><stop offset="0.349" stop-color="#b5bac1"/><stop offset="0.402" stop-color="#bdc2c9"/><stop offset="0.406" stop-color="#bec3ca"/><stop offset="0.493" stop-color="#dfe0e4"/><stop offset="0.541" stop-color="#ececee"/><stop offset="0.605" stop-color="#e9eaec"/><stop offset="0.632" stop-color="#e2e3e6"/><stop offset="0.651" stop-color="#d6d8dc"/><stop offset="0.668" stop-color="#c4c8ce"/><stop offset="0.682" stop-color="#aeb4bc"/><stop offset="0.71" stop-color="#9ea4ab"/><stop offset="0.832" stop-color="#5c6266"/><stop offset="0.89" stop-color="#42494b"/><stop offset="0.908" stop-color="#474d50"/><stop offset="0.93" stop-color="#555c5f"/><stop offset="0.954" stop-color="#6d7478"/><stop offset="0.98" stop-color="#8e949b"/><stop offset="1" stop-color="#aeb4bc"/></linearGradient></defs><g transform="translate(-1111.06 -1661.598)"><path class="a" d="M1153.271,1662.327a11.944,11.944,0,0,1,4.225,2.228,10.224,10.224,0,0,1,2.843,3.918,14.463,14.463,0,0,1,1.037,5.723,14.793,14.793,0,0,1-1.192,5.915,13.541,13.541,0,0,1-3.61,4.878,17.483,17.483,0,0,1-6.222,3.341,29.166,29.166,0,0,1-8.949,1.229h-7.528l-5.992,22.431h4.148l-.384,1.306H1111.06l.384-1.306h3.994l13.136-49.163H1124.5l.307-1.229h23.353A17.612,17.612,0,0,1,1153.271,1662.327Zm-9.1,24.044a17.177,17.177,0,0,0,3.418-4.8,27.288,27.288,0,0,0,2.036-5.723,22.09,22.09,0,0,0,.691-4.8q0-4.453-1.843-6.3a6.449,6.449,0,0,0-4.763-1.843h-2.689l-6.76,25.5h5.07A6.691,6.691,0,0,0,1144.169,1686.371Z"/></g></svg>