<svg xmlns="http://www.w3.org/2000/svg" width="340" height="78" viewBox="0 0 340 78"><defs><style>.a{fill:#2f353a;}.b{fill:none;stroke:rgba(87,93,97,0.5);stroke-miterlimit:10;}</style></defs><g transform="translate(-920.902 -914.922)"><path class="a" d="M923.333,938.031H920.9V917.125h11.654v2.159h-9.223v7.651H932v2.159h-8.665Z" transform="translate(0 -0.859)"/><path class="a" d="M958.059,933.343a8.646,8.646,0,0,1-1.93,5.984,6.8,6.8,0,0,1-5.333,2.152,7.067,7.067,0,0,1-3.733-.987,6.516,6.516,0,0,1-2.517-2.831,9.874,9.874,0,0,1-.886-4.318,8.632,8.632,0,0,1,1.916-5.97,6.777,6.777,0,0,1,5.319-2.138,6.629,6.629,0,0,1,5.226,2.188A8.608,8.608,0,0,1,958.059,933.343Zm-11.94,0a7.441,7.441,0,0,0,1.2,4.576,4.768,4.768,0,0,0,7.071.007,7.4,7.4,0,0,0,1.209-4.583,7.285,7.285,0,0,0-1.209-4.54,4.245,4.245,0,0,0-3.567-1.551,4.18,4.18,0,0,0-3.518,1.53A7.363,7.363,0,0,0,946.119,933.343Z" transform="translate(-8.873 -4.021)"/><path class="a" d="M976.455,937.172h-2.374v-22.25h2.374Z" transform="translate(-20.735)"/><path class="a" d="M985.894,917.737a1.575,1.575,0,0,1,.4-1.194,1.482,1.482,0,0,1,1.988.007,1.55,1.55,0,0,1,.414,1.187,1.573,1.573,0,0,1-.414,1.194,1.383,1.383,0,0,1-.987.393,1.37,1.37,0,0,1-1-.393A1.6,1.6,0,0,1,985.894,917.737Zm2.573,19.919h-2.373V921.984h2.373Z" transform="translate(-25.34 -0.484)"/><path class="a" d="M1011.332,933.343a8.643,8.643,0,0,1-1.93,5.984,6.8,6.8,0,0,1-5.333,2.152,7.063,7.063,0,0,1-3.732-.987,6.515,6.515,0,0,1-2.517-2.831,9.865,9.865,0,0,1-.886-4.318,8.634,8.634,0,0,1,1.916-5.97,6.777,6.777,0,0,1,5.319-2.138,6.63,6.63,0,0,1,5.227,2.188A8.607,8.607,0,0,1,1011.332,933.343Zm-11.94,0a7.437,7.437,0,0,0,1.2,4.576,4.768,4.768,0,0,0,7.071.007,7.4,7.4,0,0,0,1.208-4.583,7.284,7.284,0,0,0-1.208-4.54,4.247,4.247,0,0,0-3.568-1.551,4.18,4.18,0,0,0-3.518,1.53A7.363,7.363,0,0,0,999.392,933.343Z" transform="translate(-29.645 -4.021)"/><path class="a" d="M1037.62,930.009a22.157,22.157,0,0,1,1.109-7.092,17.638,17.638,0,0,1,3.2-5.792h2.317a20.157,20.157,0,0,0-3.1,6.063,22.547,22.547,0,0,0-1.037,6.792,21.681,21.681,0,0,0,1.058,6.706,20.817,20.817,0,0,0,3.046,5.977h-2.288a16.853,16.853,0,0,1-3.2-5.677A21.584,21.584,0,0,1,1037.62,930.009Z" transform="translate(-44.935 -0.859)"/><path class="a" d="M1066.453,933.153h-3.1v4.8h-2.274v-4.8h-10.167V931.08l9.924-14.142h2.517v14.056h3.1Zm-5.377-2.159v-6.95q0-2.044.143-4.618h-.115a21.564,21.564,0,0,1-1.287,2.274l-6.535,9.294Z" transform="translate(-50.034 -0.786)"/><path class="a" d="M1086.648,916.633a7.089,7.089,0,0,1,4.533,1.33,4.435,4.435,0,0,1,1.673,3.675,4.576,4.576,0,0,1-.958,2.817,8.464,8.464,0,0,1-3.06,2.316,10.293,10.293,0,0,1,3.618,2.553,4.8,4.8,0,0,1,1.073,3.1,5.186,5.186,0,0,1-1.816,4.154,7.414,7.414,0,0,1-4.976,1.552,7.969,7.969,0,0,1-5.148-1.466,5.05,5.05,0,0,1-1.8-4.154q0-3.589,4.376-5.591a8.076,8.076,0,0,1-2.831-2.409,5.123,5.123,0,0,1-.858-2.9,4.412,4.412,0,0,1,1.68-3.625A6.966,6.966,0,0,1,1086.648,916.633Zm-4.518,15.93a3.234,3.234,0,0,0,1.194,2.673,5.23,5.23,0,0,0,3.353.958,5,5,0,0,0,3.318-1,3.4,3.4,0,0,0,1.187-2.745,3.346,3.346,0,0,0-1.115-2.467,11.384,11.384,0,0,0-3.889-2.094,8.463,8.463,0,0,0-3.089,2.023A3.923,3.923,0,0,0,1082.129,932.563Zm4.49-14a4.206,4.206,0,0,0-2.8.858,2.842,2.842,0,0,0-1.015,2.288,3.278,3.278,0,0,0,.843,2.259,8.81,8.81,0,0,0,3.118,1.887,7.81,7.81,0,0,0,2.9-1.844,3.415,3.415,0,0,0,.85-2.3,2.814,2.814,0,0,0-1.037-2.3A4.368,4.368,0,0,0,1086.619,918.563Z" transform="translate(-61.151 -0.667)"/><path class="a" d="M1128.679,941.479a6.785,6.785,0,0,1-2.8-.565,5.25,5.25,0,0,1-2.123-1.738h-.172a20.982,20.982,0,0,1,.172,2.6v6.449h-2.374V925.521h1.93l.329,2.145h.115a5.514,5.514,0,0,1,2.13-1.859,6.484,6.484,0,0,1,2.788-.572,5.793,5.793,0,0,1,4.812,2.13,11.346,11.346,0,0,1-.029,11.976A5.8,5.8,0,0,1,1128.679,941.479Zm-.343-14.228a4.208,4.208,0,0,0-3.475,1.33,6.842,6.842,0,0,0-1.1,4.233v.529q0,3.3,1.1,4.726a4.187,4.187,0,0,0,3.532,1.423,3.672,3.672,0,0,0,3.182-1.644,7.8,7.8,0,0,0,1.151-4.533,7.5,7.5,0,0,0-1.151-4.5A3.786,3.786,0,0,0,1128.336,927.251Z" transform="translate(-77.162 -4.021)"/><path class="a" d="M1154.537,937.381a8.484,8.484,0,0,0,2.145-.286v1.816a4.34,4.34,0,0,1-1.137.308,8.593,8.593,0,0,1-1.351.121q-4.546,0-4.547-4.791v-9.323H1147.4v-1.144l2.245-.987,1-3.346h1.373v3.633h4.547v1.844h-4.547v9.223a3.175,3.175,0,0,0,.672,2.174A2.341,2.341,0,0,0,1154.537,937.381Z" transform="translate(-87.191 -1.882)"/><path class="a" d="M1167.183,947.664a2.128,2.128,0,0,1,.436-1.451,1.581,1.581,0,0,1,1.251-.494,1.69,1.69,0,0,1,1.294.494,2.042,2.042,0,0,1,.465,1.451,2,2,0,0,1-.472,1.429,1.875,1.875,0,0,1-2.5.05A1.955,1.955,0,0,1,1167.183,947.664Z" transform="translate(-94.827 -11.742)"/><path class="a" d="M1184.444,930.009a21.565,21.565,0,0,1-1.108,7.006,16.758,16.758,0,0,1-3.2,5.648h-2.288a20.593,20.593,0,0,0,3.046-5.97,21.731,21.731,0,0,0,1.058-6.714,22.562,22.562,0,0,0-1.037-6.792,20.167,20.167,0,0,0-3.1-6.063h2.317a17.545,17.545,0,0,1,3.2,5.813A22.261,22.261,0,0,1,1184.444,930.009Z" transform="translate(-98.912 -0.859)"/><path class="a" d="M1220.16,933.343a8.642,8.642,0,0,1-1.93,5.984,6.8,6.8,0,0,1-5.333,2.152,7.063,7.063,0,0,1-3.732-.987,6.515,6.515,0,0,1-2.517-2.831,9.865,9.865,0,0,1-.886-4.318,8.632,8.632,0,0,1,1.916-5.97,6.775,6.775,0,0,1,5.319-2.138,6.63,6.63,0,0,1,5.227,2.188A8.607,8.607,0,0,1,1220.16,933.343Zm-11.94,0a7.438,7.438,0,0,0,1.2,4.576,4.768,4.768,0,0,0,7.071.007,7.4,7.4,0,0,0,1.208-4.583,7.285,7.285,0,0,0-1.208-4.54,4.247,4.247,0,0,0-3.568-1.551,4.18,4.18,0,0,0-3.518,1.53A7.368,7.368,0,0,0,1208.22,933.343Z" transform="translate(-109.634 -4.021)"/><path class="a" d="M1243.333,925.235a9.311,9.311,0,0,1,1.873.171l-.329,2.2a8.1,8.1,0,0,0-1.716-.214,4.178,4.178,0,0,0-3.253,1.544,5.634,5.634,0,0,0-1.351,3.847v8.408h-2.373V925.521h1.959l.271,2.9h.115a6.894,6.894,0,0,1,2.1-2.359A4.733,4.733,0,0,1,1243.333,925.235Z" transform="translate(-121.368 -4.021)"/><path class="a" d="M1269.477,941.371h-1.824V925.692h8.741v1.619h-6.917v5.737h6.5v1.62h-6.5Z" transform="translate(-133.484 -4.199)"/><path class="a" d="M1295.521,937.855a6.484,6.484,0,0,1-1.448,4.488,5.1,5.1,0,0,1-4,1.614,5.3,5.3,0,0,1-2.8-.74,4.881,4.881,0,0,1-1.887-2.124,7.4,7.4,0,0,1-.665-3.238,6.475,6.475,0,0,1,1.437-4.478,5.083,5.083,0,0,1,3.989-1.6,4.972,4.972,0,0,1,3.92,1.641A6.456,6.456,0,0,1,1295.521,937.855Zm-8.955,0a5.576,5.576,0,0,0,.9,3.432,3.575,3.575,0,0,0,5.3,0,5.55,5.55,0,0,0,.907-3.437,5.461,5.461,0,0,0-.907-3.405,3.183,3.183,0,0,0-2.676-1.164,3.133,3.133,0,0,0-2.638,1.148A5.526,5.526,0,0,0,1286.566,937.855Z" transform="translate(-140.044 -6.571)"/><path class="a" d="M1309.318,940.726h-1.78V924.039h1.78Z" transform="translate(-148.878 -3.555)"/><path class="a" d="M1316.4,926.151a1.183,1.183,0,0,1,.3-.9,1.111,1.111,0,0,1,1.49.005,1.161,1.161,0,0,1,.311.89,1.179,1.179,0,0,1-.311.9,1.038,1.038,0,0,1-.74.3,1.026,1.026,0,0,1-.75-.3A1.2,1.2,0,0,1,1316.4,926.151Zm1.93,14.939h-1.78V929.336h1.78Z" transform="translate(-152.288 -3.918)"/><path class="a" d="M1335.476,937.855a6.483,6.483,0,0,1-1.448,4.488,5.1,5.1,0,0,1-4,1.614,5.3,5.3,0,0,1-2.8-.74,4.885,4.885,0,0,1-1.887-2.124,7.4,7.4,0,0,1-.665-3.238,6.475,6.475,0,0,1,1.437-4.478,5.083,5.083,0,0,1,3.99-1.6,4.972,4.972,0,0,1,3.92,1.641A6.457,6.457,0,0,1,1335.476,937.855Zm-8.955,0a5.58,5.58,0,0,0,.9,3.432,3.575,3.575,0,0,0,5.3,0,5.546,5.546,0,0,0,.907-3.437,5.458,5.458,0,0,0-.907-3.405,3.183,3.183,0,0,0-2.675-1.164,3.134,3.134,0,0,0-2.639,1.148A5.526,5.526,0,0,0,1326.521,937.855Z" transform="translate(-155.423 -6.571)"/><path class="a" d="M1355.193,935.355a16.623,16.623,0,0,1,.831-5.32,13.22,13.22,0,0,1,2.4-4.343h1.737a15.116,15.116,0,0,0-2.321,4.547,16.9,16.9,0,0,0-.778,5.094,16.262,16.262,0,0,0,.794,5.03,15.608,15.608,0,0,0,2.284,4.482h-1.716a12.629,12.629,0,0,1-2.4-4.257A16.2,16.2,0,0,1,1355.193,935.355Z" transform="translate(-167.208 -4.199)"/><path class="a" d="M1375.837,929.237a3.574,3.574,0,0,1-.842,2.456,4.216,4.216,0,0,1-2.386,1.276v.085a4.49,4.49,0,0,1,2.8,1.2,3.537,3.537,0,0,1,.911,2.531,4.106,4.106,0,0,1-1.555,3.448,7.072,7.072,0,0,1-4.418,1.207,12.806,12.806,0,0,1-2.279-.188,7.782,7.782,0,0,1-2.011-.659V938.9a10.28,10.28,0,0,0,4.354,1.029q4.064,0,4.065-3.185,0-2.853-4.483-2.852h-1.544v-1.534h1.566a4.714,4.714,0,0,0,2.906-.81,2.657,2.657,0,0,0,1.073-2.247,2.215,2.215,0,0,0-.788-1.8,3.249,3.249,0,0,0-2.14-.654,6.6,6.6,0,0,0-1.941.279,8.7,8.7,0,0,0-2.081,1.029l-.9-1.2a7.507,7.507,0,0,1,2.226-1.2,8.081,8.081,0,0,1,2.654-.434,5.422,5.422,0,0,1,3.55,1.046A3.52,3.52,0,0,1,1375.837,929.237Z" transform="translate(-170.903 -4.055)"/><path class="a" d="M1387.044,934.525q0-4.622,1.8-6.912a6.344,6.344,0,0,1,5.314-2.29,7.068,7.068,0,0,1,1.909.2v1.533a6.123,6.123,0,0,0-1.887-.268,4.763,4.763,0,0,0-3.85,1.571,8.057,8.057,0,0,0-1.459,4.939H1389a4.105,4.105,0,0,1,3.732-1.845,4.384,4.384,0,0,1,3.33,1.276,4.81,4.81,0,0,1,1.218,3.464,5.342,5.342,0,0,1-1.335,3.845,4.753,4.753,0,0,1-3.609,1.4,4.638,4.638,0,0,1-3.861-1.828A8.088,8.088,0,0,1,1387.044,934.525Zm5.266,5.4a2.979,2.979,0,0,0,2.365-.96,4.081,4.081,0,0,0,.842-2.772,3.577,3.577,0,0,0-.783-2.445,2.951,2.951,0,0,0-2.338-.89,3.949,3.949,0,0,0-1.77.4,3.276,3.276,0,0,0-1.281,1.094,2.527,2.527,0,0,0-.478,1.448,4.966,4.966,0,0,0,.429,2.059,3.623,3.623,0,0,0,1.218,1.512A3.033,3.033,0,0,0,1392.31,939.929Z" transform="translate(-179.086 -4.055)"/><path class="a" d="M1423.487,943.957a5.087,5.087,0,0,1-2.1-.424,3.936,3.936,0,0,1-1.592-1.3h-.129a15.841,15.841,0,0,1,.129,1.952v4.836h-1.78v-17.03h1.448l.246,1.609h.086a4.133,4.133,0,0,1,1.6-1.394,4.857,4.857,0,0,1,2.092-.429,4.345,4.345,0,0,1,3.609,1.6,8.508,8.508,0,0,1-.022,8.982A4.351,4.351,0,0,1,1423.487,943.957Zm-.257-10.671a3.155,3.155,0,0,0-2.606,1,5.129,5.129,0,0,0-.825,3.174v.4a5.883,5.883,0,0,0,.825,3.544,3.141,3.141,0,0,0,2.649,1.067,2.754,2.754,0,0,0,2.386-1.233,5.846,5.846,0,0,0,.863-3.4,5.626,5.626,0,0,0-.863-3.373A2.839,2.839,0,0,0,1423.229,933.286Z" transform="translate(-191.163 -6.571)"/><path class="a" d="M1442.88,940.884a5.747,5.747,0,0,0,.911-.07,5.876,5.876,0,0,0,.7-.145v1.362a3.261,3.261,0,0,1-.853.231,6.388,6.388,0,0,1-1.013.091q-3.41,0-3.41-3.593v-6.992h-1.684v-.858l1.684-.74.751-2.509h1.029v2.724h3.41v1.384h-3.41v6.917a2.383,2.383,0,0,0,.5,1.63A1.755,1.755,0,0,0,1442.88,940.884Z" transform="translate(-198.77 -4.967)"/><path class="a" d="M1452.364,948.6a1.6,1.6,0,0,1,.328-1.088,1.184,1.184,0,0,1,.938-.37,1.266,1.266,0,0,1,.97.37,1.531,1.531,0,0,1,.349,1.088,1.506,1.506,0,0,1-.354,1.073,1.408,1.408,0,0,1-1.872.037A1.47,1.47,0,0,1,1452.364,948.6Z" transform="translate(-204.555 -12.286)"/><path class="a" d="M1465.311,935.355a16.164,16.164,0,0,1-.832,5.255,12.573,12.573,0,0,1-2.4,4.236h-1.716a15.441,15.441,0,0,0,2.284-4.478,16.313,16.313,0,0,0,.794-5.035,16.92,16.92,0,0,0-.777-5.094,15.132,15.132,0,0,0-2.322-4.547h1.738a13.163,13.163,0,0,1,2.4,4.359A16.707,16.707,0,0,1,1465.311,935.355Z" transform="translate(-207.666 -4.199)"/><path class="a" d="M964.053,1012.723a6.427,6.427,0,0,1-3.656,1.131,4.457,4.457,0,0,1,2.493,1.12,3.143,3.143,0,0,1,.911,2.372,5.41,5.41,0,0,1-.263,1.658,3.608,3.608,0,0,1-.934,1.483,4.849,4.849,0,0,1-1.834,1.065,9.051,9.051,0,0,1-2.943.406h-6.852l.087-.351h1.187L956,1007.55h-1.186l.109-.351h5.842a5.794,5.794,0,0,1,3.339.78,2.636,2.636,0,0,1,1.1,2.3A3.037,3.037,0,0,1,964.053,1012.723Zm-6.731,8.884a1.906,1.906,0,0,0,1.592-.626,5.78,5.78,0,0,0,.868-1.746c.029-.1.088-.3.176-.593s.179-.622.275-.988.179-.739.253-1.12a5.25,5.25,0,0,0,.109-.966,1.872,1.872,0,0,0-.285-1.076,1.113,1.113,0,0,0-.989-.417h-1.537l-2,7.533Zm1.867-7.885a2.067,2.067,0,0,0,.868-.176,2.327,2.327,0,0,0,.681-.472,3.17,3.17,0,0,0,.505-.659,4.426,4.426,0,0,0,.34-.736q.044-.154.154-.461t.22-.681q.11-.373.186-.78a4,4,0,0,0,.077-.736,1.636,1.636,0,0,0-.34-1.032,1.46,1.46,0,0,0-1.219-.439h-1.12l-1.647,6.172Z" transform="translate(-11.725 -34.945)"/><path class="a" d="M974.7,1019.151a5.847,5.847,0,0,1,1.263-1.823,6.076,6.076,0,0,1,1.823-1.219,5.33,5.33,0,0,1,2.152-.45,4.456,4.456,0,0,1,3.24,1.12,4.088,4.088,0,0,1,1.153,3.075,5.6,5.6,0,0,1-.45,2.262,5.493,5.493,0,0,1-1.241,1.79,5.724,5.724,0,0,1-1.867,1.186,6.239,6.239,0,0,1-2.328.428,4.981,4.981,0,0,1-1.867-.319,3.726,3.726,0,0,1-1.318-.867,3.433,3.433,0,0,1-.78-1.3,5.043,5.043,0,0,1-.253-1.625A5.461,5.461,0,0,1,974.7,1019.151Zm6.523-2.734a.949.949,0,0,0-.868-.362,1.467,1.467,0,0,0-.879.253,2.358,2.358,0,0,0-.615.67,4.255,4.255,0,0,0-.439.955q-.177.538-.329,1.131-.351,1.34-.549,2.152t-.307,1.285c-.074.315-.121.553-.143.714a3.275,3.275,0,0,0-.033.439,2.027,2.027,0,0,0,.264,1.043,1.023,1.023,0,0,0,.966.45,1.171,1.171,0,0,0,.769-.253,2.379,2.379,0,0,0,.538-.648,4.29,4.29,0,0,0,.384-.89q.153-.494.286-.977.4-1.428.626-2.317t.351-1.428q.12-.538.165-.813a3.157,3.157,0,0,0,.044-.494A1.668,1.668,0,0,0,981.224,1016.417Z" transform="translate(-20.792 -38.243)"/><path class="a" d="M1005.938,1006.335l-3.492,13q-.066.264-.11.428a1.58,1.58,0,0,0-.044.406q0,.615.461.615a1.774,1.774,0,0,0,.956-.483,7.85,7.85,0,0,0,1.395-1.625.269.269,0,0,1,.242-.154q.2,0,.2.22a.271.271,0,0,1-.045.154q-.329.483-.746,1.01a6.876,6.876,0,0,1-.933.966,4.955,4.955,0,0,1-1.131.725,3.045,3.045,0,0,1-1.3.286,2.976,2.976,0,0,1-.955-.132,1.879,1.879,0,0,1-.626-.341,1.469,1.469,0,0,1-.363-.45,1.36,1.36,0,0,1-.142-.483,3.735,3.735,0,0,1-1.186,1.032,3.582,3.582,0,0,1-1.691.351,4.05,4.05,0,0,1-1.625-.3,3.077,3.077,0,0,1-1.131-.824,3.317,3.317,0,0,1-.659-1.241,5.558,5.558,0,0,1-.209-1.57,5.344,5.344,0,0,1,.406-1.955,6.326,6.326,0,0,1,1.164-1.889,6.216,6.216,0,0,1,1.856-1.417,5.333,5.333,0,0,1,2.46-.56,2.58,2.58,0,0,1,1.461.351,2.278,2.278,0,0,1,.758.813l1.625-6.062-1.231.242.089-.352Zm-8.741,9.807q-.243.868-.461,1.691t-.363,1.483a5.341,5.341,0,0,0-.142.857,1.2,1.2,0,0,0,.231.758.822.822,0,0,0,.692.3,1.911,1.911,0,0,0,1.2-.461,2.477,2.477,0,0,0,.824-1.3l1.516-5.4a3.513,3.513,0,0,0-.187-.439,2.091,2.091,0,0,0-.307-.45,1.6,1.6,0,0,0-.428-.34,1.177,1.177,0,0,0-.572-.132,1.075,1.075,0,0,0-.977.505,6.067,6.067,0,0,0-.6,1.45Q997.438,1015.274,997.2,1016.142Z" transform="translate(-28.035 -34.608)"/><path class="a" d="M1015.165,1019.151a5.847,5.847,0,0,1,1.263-1.823,6.076,6.076,0,0,1,1.823-1.219,5.327,5.327,0,0,1,2.152-.45,4.454,4.454,0,0,1,3.239,1.12,4.086,4.086,0,0,1,1.154,3.075,5.6,5.6,0,0,1-.45,2.262,5.49,5.49,0,0,1-1.241,1.79,5.723,5.723,0,0,1-1.867,1.186,6.239,6.239,0,0,1-2.328.428,4.981,4.981,0,0,1-1.867-.319,3.726,3.726,0,0,1-1.318-.867,3.434,3.434,0,0,1-.78-1.3,5.043,5.043,0,0,1-.253-1.625A5.46,5.46,0,0,1,1015.165,1019.151Zm6.523-2.734a.95.95,0,0,0-.868-.362,1.466,1.466,0,0,0-.878.253,2.358,2.358,0,0,0-.615.67,4.283,4.283,0,0,0-.44.955q-.176.538-.329,1.131-.35,1.34-.548,2.152t-.307,1.285c-.074.315-.121.553-.143.714a3.275,3.275,0,0,0-.033.439,2.027,2.027,0,0,0,.264,1.043,1.023,1.023,0,0,0,.966.45,1.169,1.169,0,0,0,.768-.253,2.38,2.38,0,0,0,.539-.648,4.287,4.287,0,0,0,.384-.89q.153-.494.286-.977.4-1.428.626-2.317t.351-1.428q.121-.538.165-.813a3.157,3.157,0,0,0,.044-.494A1.668,1.668,0,0,0,1021.688,1016.417Z" transform="translate(-36.569 -38.243)"/><path class="a" d="M1044.294,1021.876a.69.69,0,0,1-.043.2,6.346,6.346,0,0,1-1.527,2.218,3.273,3.273,0,0,1-2.3.879,1.609,1.609,0,0,1-1.3-.516,2.081,2.081,0,0,1-.439-1.395,4.561,4.561,0,0,1,.176-1.164l1.054-3.932a5.739,5.739,0,0,0,.219-1.274,1.352,1.352,0,0,0-.131-.626.5.5,0,0,0-.483-.253,1.462,1.462,0,0,0-.6.176,3.52,3.52,0,0,0-.736.494,4.285,4.285,0,0,0-.7.78,3.175,3.175,0,0,0-.483,1.032l-1.779,6.567h-3.251l2.416-9.049-1.252.242.11-.373,4.7-.725-.527,1.8a5.22,5.22,0,0,1,1.35-1.142,3.859,3.859,0,0,1,1.988-.461,2.238,2.238,0,0,1,1.791.725,2.539,2.539,0,0,1,.625,1.713,4.063,4.063,0,0,1-.033.461,4,4,0,0,1-.143.659l-.944,3.47q-.11.439-.154.637a1.572,1.572,0,0,0-.043.329q0,.571.351.571.263,0,.681-.472a10.246,10.246,0,0,0,1.033-1.526.3.3,0,0,1,.241-.176A.116.116,0,0,1,1044.294,1021.876Z" transform="translate(-42.751 -38.047)"/><path class="a" d="M1057.771,1021.341q.307,0,.779-.494a6.735,6.735,0,0,0,1.021-1.592q.088-.2.242-.2t.154.2a.586.586,0,0,1-.066.264,6.749,6.749,0,0,1-1.471,2.141,3.24,3.24,0,0,1-2.306.8,2,2,0,0,1-1.362-.439,1.625,1.625,0,0,1-.505-1.3,3.843,3.843,0,0,1,.132-.922l1.866-6.831-1.251.154.109-.373,4.678-.7-2.174,8.017a4.055,4.055,0,0,0-.132.538,2.288,2.288,0,0,0-.022.275Q1057.463,1021.341,1057.771,1021.341Zm2.525-11.322a1.9,1.9,0,0,1-.373.6,1.814,1.814,0,0,1-.615.428,2.1,2.1,0,0,1-.857.165,1.47,1.47,0,0,1-1.2-.461,1.6,1.6,0,0,1-.384-1.054,2.072,2.072,0,0,1,.121-.692,1.664,1.664,0,0,1,.374-.6,1.948,1.948,0,0,1,1.438-.593,1.516,1.516,0,0,1,1.231.472,1.618,1.618,0,0,1,.395,1.065A1.846,1.846,0,0,1,1060.3,1010.018Z" transform="translate(-51.341 -35.183)"/><path class="a" d="M1090.885,1012.587q-.209.67-.439,1.526t-.483,1.812q-.253.955-.461,1.856t-.34,1.647a7.216,7.216,0,0,0-.132,1.186,4.263,4.263,0,0,0,.143,1.175,2.771,2.771,0,0,0,.373.824,1.525,1.525,0,0,0,.516.483,1.159,1.159,0,0,0,.55.154q.987,0,1.46.033c.315.022.473.128.473.318s-.173.318-.517.34-.846.033-1.5.033a5.738,5.738,0,0,1-2.427-.472,4.516,4.516,0,0,1-1.681-1.307,5.424,5.424,0,0,1-.966-1.977,9.62,9.62,0,0,1-.307-2.5,10.547,10.547,0,0,1,.329-2.537,13.261,13.261,0,0,1,.956-2.614,14.42,14.42,0,0,1,1.526-2.46,11.247,11.247,0,0,1,2.032-2.054,9.941,9.941,0,0,1,2.471-1.406,7.728,7.728,0,0,1,2.855-.527q.769,0,1.131.033t.362.231c0,.161-.14.253-.417.275s-.681.033-1.208.033a2.966,2.966,0,0,0-2.174,1.186,10.035,10.035,0,0,0-1.823,3.712Q1091.093,1011.917,1090.885,1012.587Z" transform="translate(-63.218 -34.524)"/><path class="a" d="M1104.746,1008.662a3.037,3.037,0,0,1,.9-.911,5.065,5.065,0,0,1,1.472-.659,7.24,7.24,0,0,1,2-.253,5.762,5.762,0,0,1,1.735.231,3.5,3.5,0,0,1,1.208.637,2.513,2.513,0,0,1,.714.955,3.09,3.09,0,0,1,.231,1.208,3.41,3.41,0,0,1-.3,1.395,3.606,3.606,0,0,1-.868,1.2,4.787,4.787,0,0,1-1.406.879,6.164,6.164,0,0,1-1.889.439,4.909,4.909,0,0,1,1.054.384,3.32,3.32,0,0,1,.9.659,2.961,2.961,0,0,1,.626.988,3.716,3.716,0,0,1,.231,1.373,5.194,5.194,0,0,1-.231,1.329,4.156,4.156,0,0,1-.911,1.6,5.478,5.478,0,0,1-1.955,1.34,8.381,8.381,0,0,1-3.338.56,4.606,4.606,0,0,1-1.483-.22,3.4,3.4,0,0,1-1.087-.582,2.463,2.463,0,0,1-.67-.846,2.366,2.366,0,0,1-.231-1.032,2.413,2.413,0,0,1,.121-.747,1.936,1.936,0,0,1,.373-.67,2,2,0,0,1,.615-.483,1.823,1.823,0,0,1,.846-.187,1.774,1.774,0,0,1,1.142.406,1.473,1.473,0,0,1,.505,1.219,1.4,1.4,0,0,1-.593,1.2,1.822,1.822,0,0,1-.6.274,2.757,2.757,0,0,1-.692.088,1.459,1.459,0,0,1-.461-.066h-.044a.117.117,0,0,0-.132.132.59.59,0,0,0,.132.318,1.4,1.4,0,0,0,.417.362,2.773,2.773,0,0,0,.758.3,4.727,4.727,0,0,0,1.153.121,2.059,2.059,0,0,0,1.526-.637,4.959,4.959,0,0,0,1.01-1.527,8.107,8.107,0,0,0,.549-1.867,10.25,10.25,0,0,0,.165-1.658,2.221,2.221,0,0,0-.417-1.45,1.5,1.5,0,0,0-1.23-.505h-1.867q-.285,0-.286-.176,0-.242.329-.242h1.933a2.423,2.423,0,0,0,1.57-.505,3.8,3.8,0,0,0,1-1.23,5.661,5.661,0,0,0,.527-1.5,6.977,6.977,0,0,0,.154-1.307,2.386,2.386,0,0,0-.286-1.307,1.2,1.2,0,0,0-1.076-.428,4.081,4.081,0,0,0-.8.077,4.136,4.136,0,0,0-.67.187,2.24,2.24,0,0,0-.461.231c-.118.081-.176.143-.176.187s.059.066.176.066a1.03,1.03,0,0,1,.834.406,1.535,1.535,0,0,1,.329,1,1.822,1.822,0,0,1-2.943,1.461,1.508,1.508,0,0,1-.439-1.2A1.93,1.93,0,0,1,1104.746,1008.662Z" transform="translate(-69.496 -34.804)"/><path class="a" d="M1132.656,1010.435a1.4,1.4,0,0,1-1.286.571,1.518,1.518,0,0,1-1.087-.406,1.455,1.455,0,0,1-.428-1.109,1.7,1.7,0,0,1,.417-1.186,1.575,1.575,0,0,1,1.23-.461h.088c.087,0,.131-.029.131-.088q0-.154-.374-.373a2.488,2.488,0,0,0-1.207-.22,2.439,2.439,0,0,0-1,.231,3.4,3.4,0,0,0-.988.692,5.588,5.588,0,0,0-.879,1.142,6.81,6.81,0,0,0-.669,1.581l-.747,2.636a3.926,3.926,0,0,1,.879-.6,3,3,0,0,1,1.383-.275,5.092,5.092,0,0,1,1.505.22,3.67,3.67,0,0,1,1.252.659,3.133,3.133,0,0,1,.856,1.12,3.809,3.809,0,0,1,.318,1.625,5.272,5.272,0,0,1-.57,2.5,5.722,5.722,0,0,1-1.516,1.823,6.53,6.53,0,0,1-2.175,1.12,8.719,8.719,0,0,1-2.548.373,4.122,4.122,0,0,1-1.614-.318,3.815,3.815,0,0,1-1.329-.933,4.451,4.451,0,0,1-.9-1.5,5.812,5.812,0,0,1-.33-2.032,9.833,9.833,0,0,1,.34-2.548,11.422,11.422,0,0,1,.955-2.427,12.606,12.606,0,0,1,1.461-2.163,10.432,10.432,0,0,1,1.856-1.746,8.8,8.8,0,0,1,2.142-1.153,6.642,6.642,0,0,1,2.317-.417,3.133,3.133,0,0,1,2.163.648,2.045,2.045,0,0,1,.713,1.57A2.667,2.667,0,0,1,1132.656,1010.435Zm-8.291,10.652a.9.9,0,0,0,.878.461,1.415,1.415,0,0,0,.889-.3,2.673,2.673,0,0,0,.67-.791,6.157,6.157,0,0,0,.494-1.12q.208-.626.384-1.307.263-.966.417-1.581t.231-1.01q.076-.4.11-.615a2.683,2.683,0,0,0,.032-.4,2.006,2.006,0,0,0-.208-.944.8.8,0,0,0-.78-.4,1.549,1.549,0,0,0-.615.132,2.5,2.5,0,0,0-.571.34,2.834,2.834,0,0,0-.45.439,1.415,1.415,0,0,0-.253.428q-.176.571-.428,1.384t-.483,1.625q-.231.813-.395,1.5a4.913,4.913,0,0,0-.165,1.043A2.329,2.329,0,0,0,1124.364,1021.087Z" transform="translate(-77.046 -34.776)"/><path class="a" d="M1156.41,1014.759l-.506,1.867a7.2,7.2,0,0,1,1.12-.944,2.762,2.762,0,0,1,1.6-.439,3.289,3.289,0,0,1,1.417.286,2.888,2.888,0,0,1,1,.758,3.157,3.157,0,0,1,.594,1.12,4.681,4.681,0,0,1,.2,1.373,6.434,6.434,0,0,1-.395,2.163,6.505,6.505,0,0,1-1.165,2.021,6.185,6.185,0,0,1-1.878,1.494,5.331,5.331,0,0,1-2.515.582,1.757,1.757,0,0,1-1.911-1.164l-1.756,6.589h1.427l-.087.351h-6.063l.11-.351h1.208l4.042-14.847-1.252.2.176-.351Zm-2.1,7.874q-.011.143-.011.253a1.747,1.747,0,0,0,.384,1.175,1.276,1.276,0,0,0,1.021.45,1.166,1.166,0,0,0,.966-.483,4.873,4.873,0,0,0,.681-1.669q.2-.7.429-1.559t.439-1.658q.209-.8.351-1.45a4.932,4.932,0,0,0,.143-.955q0-.857-.637-.857a1.694,1.694,0,0,0-.868.253,4.33,4.33,0,0,0-1.394,1.329,2.507,2.507,0,0,0-.307.593l-1.1,4.129A2.622,2.622,0,0,0,1154.312,1022.633Z" transform="translate(-87.208 -37.892)"/><path class="a" d="M1179.714,1009.863l-1.231,4.525h1.889l-.088.351H1178.4l-1.538,5.93a1.849,1.849,0,0,0,.011,1.417.977.977,0,0,0,.89.428,1.543,1.543,0,0,0,.911-.351,3.183,3.183,0,0,0,.868-1.12.239.239,0,0,1,.121-.121.163.163,0,0,1,.143,0,.209.209,0,0,1,.1.11.241.241,0,0,1-.011.187,3.493,3.493,0,0,1-1.2,1.45,3.239,3.239,0,0,1-1.944.593,3.471,3.471,0,0,1-1.5-.308,2.5,2.5,0,0,1-1.021-.857,2.858,2.858,0,0,1-.461-1.3,4.361,4.361,0,0,1,.154-1.647l1.186-4.415h-1.581l.088-.351h1.581l.22-.835a9.263,9.263,0,0,0,1.208-.538,5.8,5.8,0,0,0,1.032-.714,6.239,6.239,0,0,0,.922-1.01,9.773,9.773,0,0,0,.857-1.428Z" transform="translate(-97.254 -35.983)"/><path class="a" d="M1189.083,1028.447a1.658,1.658,0,0,1-.362.582,1.929,1.929,0,0,1-.6.417,2.024,2.024,0,0,1-.845.165,1.593,1.593,0,0,1-1.274-.483,1.634,1.634,0,0,1-.417-1.1,1.915,1.915,0,0,1,.12-.659,1.662,1.662,0,0,1,.363-.582,1.927,1.927,0,0,1,.6-.417,2.03,2.03,0,0,1,.846-.165,1.593,1.593,0,0,1,1.274.483,1.637,1.637,0,0,1,.417,1.1A1.9,1.9,0,0,1,1189.083,1028.447Z" transform="translate(-101.91 -42.356)"/><path class="a" d="M1198.35,1017.543q.2-.67.428-1.526t.483-1.812q.252-.955.461-1.856t.34-1.647a7.148,7.148,0,0,0,.132-1.186,4.292,4.292,0,0,0-.142-1.175,2.784,2.784,0,0,0-.373-.824,1.529,1.529,0,0,0-.516-.483,1.16,1.16,0,0,0-.55-.154q-.988,0-1.46-.033t-.473-.318c0-.2.173-.318.516-.34s.846-.033,1.505-.033a5.74,5.74,0,0,1,2.426.472,4.507,4.507,0,0,1,1.68,1.307,5.425,5.425,0,0,1,.966,1.977,9.617,9.617,0,0,1,.308,2.5,10.515,10.515,0,0,1-.33,2.537,13.221,13.221,0,0,1-.955,2.614,14.5,14.5,0,0,1-1.526,2.46,11.29,11.29,0,0,1-2.032,2.054,9.949,9.949,0,0,1-2.471,1.406,7.725,7.725,0,0,1-2.855.527q-.769,0-1.13-.033t-.363-.231c0-.161.14-.252.418-.274s.681-.033,1.207-.033a2.966,2.966,0,0,0,2.175-1.186,10.041,10.041,0,0,0,1.823-3.712Q1198.151,1018.213,1198.35,1017.543Z" transform="translate(-104.51 -34.538)"/><path class="a" d="M1222.123,1019.151a5.846,5.846,0,0,1,1.263-1.823,6.076,6.076,0,0,1,1.823-1.219,5.326,5.326,0,0,1,2.152-.45,4.453,4.453,0,0,1,3.239,1.12,4.086,4.086,0,0,1,1.154,3.075,5.6,5.6,0,0,1-.45,2.262,5.49,5.49,0,0,1-1.241,1.79,5.723,5.723,0,0,1-1.867,1.186,6.24,6.24,0,0,1-2.328.428,4.979,4.979,0,0,1-1.867-.319,3.726,3.726,0,0,1-1.318-.867,3.435,3.435,0,0,1-.78-1.3,5.042,5.042,0,0,1-.252-1.625A5.46,5.46,0,0,1,1222.123,1019.151Zm6.523-2.734a.95.95,0,0,0-.868-.362,1.466,1.466,0,0,0-.878.253,2.358,2.358,0,0,0-.615.67,4.249,4.249,0,0,0-.439.955q-.177.538-.33,1.131-.35,1.34-.548,2.152t-.307,1.285c-.074.315-.121.553-.143.714a3.275,3.275,0,0,0-.033.439,2.026,2.026,0,0,0,.264,1.043,1.023,1.023,0,0,0,.966.45,1.169,1.169,0,0,0,.768-.253,2.379,2.379,0,0,0,.539-.648,4.293,4.293,0,0,0,.384-.89q.153-.494.286-.977.4-1.428.626-2.317t.351-1.428q.121-.538.165-.813a3.172,3.172,0,0,0,.044-.494A1.668,1.668,0,0,0,1228.646,1016.417Z" transform="translate(-115.769 -38.243)"/><path class="a" d="M1246.342,1015.838a3.425,3.425,0,0,1,1.668-.373,1.757,1.757,0,0,1,1.209.428,1.545,1.545,0,0,1,.483,1.219,1.347,1.347,0,0,1-.516,1.153,1.884,1.884,0,0,1-1.154.384,1.542,1.542,0,0,1-1.174-.45,1.469,1.469,0,0,1-.429-1.043,1.447,1.447,0,0,1,.231-.813,1.07,1.07,0,0,1,.6-.461,3.278,3.278,0,0,0-1.45.714,2.763,2.763,0,0,0-.922,1.461l-1.889,6.962h-3.316l2.46-9.049-1.209.2.089-.351,4.656-.769-.44,1.647A3.925,3.925,0,0,1,1246.342,1015.838Z" transform="translate(-122.712 -38.005)"/><path class="a" d="M1272.443,1018.946a4.29,4.29,0,0,1-2.438.754,2.97,2.97,0,0,1,1.661.747,2.094,2.094,0,0,1,.608,1.581,3.591,3.591,0,0,1-.176,1.105,2.411,2.411,0,0,1-.622.988,3.233,3.233,0,0,1-1.223.71,6.033,6.033,0,0,1-1.962.271h-4.568l.058-.234h.791l2.5-9.371h-.791l.073-.234h3.895a3.858,3.858,0,0,1,2.226.52,1.757,1.757,0,0,1,.733,1.53A2.025,2.025,0,0,1,1272.443,1018.946Zm-4.489,5.923a1.274,1.274,0,0,0,1.062-.417,3.888,3.888,0,0,0,.578-1.164c.019-.068.058-.2.116-.4s.12-.415.183-.659.12-.493.168-.747a3.513,3.513,0,0,0,.074-.644,1.246,1.246,0,0,0-.191-.717.74.74,0,0,0-.659-.278h-1.025l-1.332,5.022Zm1.245-5.257a1.38,1.38,0,0,0,.579-.117,1.56,1.56,0,0,0,.454-.315,2.119,2.119,0,0,0,.337-.439,3.054,3.054,0,0,0,.227-.491q.029-.1.1-.307c.049-.137.1-.288.146-.454s.09-.339.124-.52a2.608,2.608,0,0,0,.051-.491,1.094,1.094,0,0,0-.226-.688.974.974,0,0,0-.813-.293h-.747l-1.1,4.115Z" transform="translate(-131.967 -38.089)"/><path class="a" d="M1279.541,1023.231a3.9,3.9,0,0,1,.842-1.215,4.04,4.04,0,0,1,1.215-.813,3.548,3.548,0,0,1,1.435-.3,2.972,2.972,0,0,1,2.16.747,2.725,2.725,0,0,1,.769,2.05,3.73,3.73,0,0,1-.3,1.508,3.67,3.67,0,0,1-.827,1.193,3.824,3.824,0,0,1-1.245.791,4.163,4.163,0,0,1-1.552.285,3.321,3.321,0,0,1-1.245-.212,2.484,2.484,0,0,1-.879-.578,2.29,2.29,0,0,1-.52-.864,3.364,3.364,0,0,1-.168-1.083A3.647,3.647,0,0,1,1279.541,1023.231Zm4.349-1.823a.633.633,0,0,0-.578-.242.978.978,0,0,0-.586.168,1.578,1.578,0,0,0-.41.447,2.838,2.838,0,0,0-.293.637q-.117.359-.22.754-.235.893-.366,1.435t-.2.857q-.073.315-.1.476a2.182,2.182,0,0,0-.022.293,1.351,1.351,0,0,0,.176.7.682.682,0,0,0,.644.3.782.782,0,0,0,.512-.168,1.585,1.585,0,0,0,.359-.432,2.86,2.86,0,0,0,.256-.593q.1-.329.19-.652.264-.952.417-1.545t.234-.952q.081-.359.11-.542a2.1,2.1,0,0,0,.029-.329A1.112,1.112,0,0,0,1283.89,1021.408Z" transform="translate(-137.95 -40.288)"/><path class="a" d="M1300.366,1014.687l-2.328,8.668q-.044.176-.073.286a1.041,1.041,0,0,0-.029.271q0,.41.307.41a1.184,1.184,0,0,0,.637-.322,5.239,5.239,0,0,0,.93-1.084.178.178,0,0,1,.161-.1c.088,0,.131.049.131.146a.18.18,0,0,1-.029.1q-.22.322-.5.674a4.6,4.6,0,0,1-.622.644,3.305,3.305,0,0,1-.754.483,2.03,2.03,0,0,1-.864.19,1.986,1.986,0,0,1-.637-.088,1.254,1.254,0,0,1-.417-.227.971.971,0,0,1-.242-.3.888.888,0,0,1-.1-.322,2.483,2.483,0,0,1-.791.688,2.388,2.388,0,0,1-1.128.234,2.7,2.7,0,0,1-1.083-.2,2.054,2.054,0,0,1-.754-.549,2.2,2.2,0,0,1-.439-.827,3.72,3.72,0,0,1-.139-1.047,3.563,3.563,0,0,1,.271-1.3,4.227,4.227,0,0,1,.776-1.259,4.144,4.144,0,0,1,1.237-.944,3.556,3.556,0,0,1,1.64-.373,1.719,1.719,0,0,1,.974.234,1.517,1.517,0,0,1,.505.542l1.083-4.041-.82.161.059-.234Zm-5.828,6.538q-.161.578-.308,1.127t-.241.988a3.5,3.5,0,0,0-.1.571.8.8,0,0,0,.154.505.548.548,0,0,0,.461.2,1.276,1.276,0,0,0,.8-.307,1.646,1.646,0,0,0,.548-.864l1.011-3.6a2.264,2.264,0,0,0-.124-.293,1.387,1.387,0,0,0-.2-.3,1.067,1.067,0,0,0-.286-.227.786.786,0,0,0-.381-.088.716.716,0,0,0-.652.337,4.073,4.073,0,0,0-.4.966Q1294.7,1020.646,1294.538,1021.225Z" transform="translate(-142.706 -37.864)"/><path class="a" d="M1306.516,1023.231a3.9,3.9,0,0,1,.842-1.215,4.04,4.04,0,0,1,1.215-.813,3.546,3.546,0,0,1,1.435-.3,2.972,2.972,0,0,1,2.16.747,2.727,2.727,0,0,1,.768,2.05,3.732,3.732,0,0,1-.3,1.508,3.658,3.658,0,0,1-.827,1.193,3.825,3.825,0,0,1-1.245.791,4.165,4.165,0,0,1-1.552.285,3.321,3.321,0,0,1-1.245-.212,2.486,2.486,0,0,1-.879-.578,2.279,2.279,0,0,1-.519-.864,3.341,3.341,0,0,1-.169-1.083A3.636,3.636,0,0,1,1306.516,1023.231Zm4.349-1.823a.633.633,0,0,0-.578-.242.977.977,0,0,0-.586.168,1.567,1.567,0,0,0-.41.447,2.8,2.8,0,0,0-.293.637q-.117.359-.219.754-.235.893-.367,1.435t-.2.857c-.049.21-.08.369-.1.476a2.3,2.3,0,0,0-.021.293,1.358,1.358,0,0,0,.175.7.683.683,0,0,0,.645.3.782.782,0,0,0,.513-.168,1.583,1.583,0,0,0,.358-.432,2.854,2.854,0,0,0,.256-.593c.069-.22.132-.437.191-.652q.264-.952.417-1.545t.234-.952c.054-.239.091-.42.11-.542a2.181,2.181,0,0,0,.029-.329A1.111,1.111,0,0,0,1310.865,1021.408Z" transform="translate(-148.335 -40.288)"/><path class="a" d="M1325.937,1025.048a.489.489,0,0,1-.029.132,4.231,4.231,0,0,1-1.018,1.479,2.18,2.18,0,0,1-1.53.586,1.071,1.071,0,0,1-.864-.344,1.388,1.388,0,0,1-.293-.93,3.03,3.03,0,0,1,.117-.776l.7-2.621a3.818,3.818,0,0,0,.147-.849.9.9,0,0,0-.088-.417.331.331,0,0,0-.322-.168.967.967,0,0,0-.4.117,2.317,2.317,0,0,0-.491.329,2.846,2.846,0,0,0-.469.52,2.117,2.117,0,0,0-.322.688l-1.186,4.378h-2.167l1.61-6.033-.834.161.073-.249,3.133-.483-.351,1.2a3.466,3.466,0,0,1,.9-.761,2.57,2.57,0,0,1,1.324-.307,1.491,1.491,0,0,1,1.193.483,1.689,1.689,0,0,1,.418,1.142,3,3,0,0,1-.022.307,2.667,2.667,0,0,1-.1.439l-.63,2.314c-.049.2-.082.337-.1.425a1.04,1.04,0,0,0-.029.22q0,.381.234.381.177,0,.454-.315a6.854,6.854,0,0,0,.688-1.018c.049-.078.1-.117.162-.117A.078.078,0,0,1,1325.937,1025.048Z" transform="translate(-152.762 -40.157)"/><path class="a" d="M1334.92,1024.691q.2,0,.52-.329a4.512,4.512,0,0,0,.68-1.062c.039-.088.093-.132.162-.132s.1.044.1.132a.391.391,0,0,1-.045.176,4.5,4.5,0,0,1-.981,1.428,2.161,2.161,0,0,1-1.538.534,1.335,1.335,0,0,1-.908-.293,1.083,1.083,0,0,1-.337-.864,2.585,2.585,0,0,1,.088-.615l1.245-4.554-.835.1.073-.249,3.119-.469-1.449,5.344a2.632,2.632,0,0,0-.087.359,1.357,1.357,0,0,0-.015.183Q1334.715,1024.691,1334.92,1024.691Zm1.684-7.548a1.276,1.276,0,0,1-.248.4,1.218,1.218,0,0,1-.411.286,1.4,1.4,0,0,1-.571.11.978.978,0,0,1-.8-.307,1.064,1.064,0,0,1-.257-.7,1.356,1.356,0,0,1,.081-.461,1.1,1.1,0,0,1,.248-.4,1.3,1.3,0,0,1,.959-.4,1.01,1.01,0,0,1,.82.315,1.077,1.077,0,0,1,.264.71A1.22,1.22,0,0,1,1336.6,1017.143Z" transform="translate(-158.505 -38.248)"/><path class="a" d="M1357,1018.855q-.139.447-.293,1.018t-.322,1.208q-.169.637-.307,1.237t-.227,1.1a4.767,4.767,0,0,0-.088.791,2.842,2.842,0,0,0,.1.783,1.845,1.845,0,0,0,.25.549,1.015,1.015,0,0,0,.344.322.772.772,0,0,0,.367.1q.658,0,.973.022t.315.212q0,.2-.344.227t-1,.022a3.826,3.826,0,0,1-1.617-.315,3,3,0,0,1-1.12-.871,3.616,3.616,0,0,1-.645-1.318,6.407,6.407,0,0,1-.205-1.669,7.026,7.026,0,0,1,.22-1.691,8.844,8.844,0,0,1,.637-1.742,9.616,9.616,0,0,1,1.018-1.64,7.515,7.515,0,0,1,1.354-1.369,6.634,6.634,0,0,1,1.647-.937,5.151,5.151,0,0,1,1.9-.351q.512,0,.755.022c.16.015.241.066.241.154q0,.161-.278.183t-.805.022a1.978,1.978,0,0,0-1.45.791,6.682,6.682,0,0,0-1.215,2.475Q1357.137,1018.409,1357,1018.855Z" transform="translate(-166.41 -37.808)"/><path class="a" d="M1367.44,1018.383a1.376,1.376,0,0,1-.908.329,1.454,1.454,0,0,1-.447-.073,1.2,1.2,0,0,1-.4-.22,1.165,1.165,0,0,1-.293-.381,1.2,1.2,0,0,1-.117-.542,1.688,1.688,0,0,1,.278-.9,2.86,2.86,0,0,1,.762-.8,4.032,4.032,0,0,1,1.134-.564,4.488,4.488,0,0,1,1.4-.212,3.651,3.651,0,0,1,1.1.161,2.533,2.533,0,0,1,.885.476,2.208,2.208,0,0,1,.586.776,2.478,2.478,0,0,1,.212,1.047,3.8,3.8,0,0,1-.307,1.537,4.627,4.627,0,0,1-.821,1.267,5.784,5.784,0,0,1-1.179.988,8.407,8.407,0,0,1-1.4.717,5.368,5.368,0,0,1-.63.293q-.337.132-.681.286t-.666.329a3.615,3.615,0,0,0-.586.4h3.442a1.56,1.56,0,0,0,.644-.124,1.715,1.715,0,0,0,.469-.3,2.063,2.063,0,0,0,.322-.373c.088-.132.161-.251.22-.359q.131-.249.219-.249c.039,0,.059.024.059.073a.48.48,0,0,1-.037.168q-.037.1-.081.2l-1.376,2.679h-5.608l.117-.4a2.544,2.544,0,0,1,.622-1,9.872,9.872,0,0,1,1.069-.974q.593-.469,1.186-.886t.974-.74q.366-.307.718-.666a4.368,4.368,0,0,0,.629-.827,4.3,4.3,0,0,0,.44-1.054,5.191,5.191,0,0,0,.16-1.362,2.168,2.168,0,0,0-.314-1.347,1.008,1.008,0,0,0-.813-.381,2.549,2.549,0,0,0-.674.088,3.191,3.191,0,0,0-.586.22,2.481,2.481,0,0,0-.461.293,2.1,2.1,0,0,0-.314.307,2.728,2.728,0,0,1,.534.051,1.326,1.326,0,0,1,.461.183,1.019,1.019,0,0,1,.33.344,1.05,1.05,0,0,1,.124.534A1.213,1.213,0,0,1,1367.44,1018.383Z" transform="translate(-169.958 -37.995)"/><path class="a" d="M1381.934,1021.5h1.362l-.234.879H1381.7l-.659,2.475h.791l-.073.264h-3.778l.074-.264h.776l.674-2.475h-3.3l.089-.322q.556-.761,1.332-1.691t1.6-1.867q.82-.937,1.6-1.786t1.347-1.45h1.434Zm-1.025-4.363q-.381.381-.864.908t-1,1.12q-.521.593-1.026,1.2t-.915,1.135h2.636Z" transform="translate(-174.862 -38.089)"/><path class="a" d="M1399.482,1020.3l-.337,1.245a4.779,4.779,0,0,1,.747-.63,1.84,1.84,0,0,1,1.069-.293,2.188,2.188,0,0,1,.944.19,1.929,1.929,0,0,1,.666.505,2.1,2.1,0,0,1,.4.747,3.122,3.122,0,0,1,.132.915,4.282,4.282,0,0,1-.263,1.442,4.331,4.331,0,0,1-.776,1.347,4.131,4.131,0,0,1-1.252,1,3.553,3.553,0,0,1-1.677.388,1.171,1.171,0,0,1-1.274-.776l-1.171,4.393h.952l-.058.234h-4.041l.073-.234h.805l2.694-9.9-.835.132.117-.234Zm-1.4,5.249q-.007.1-.007.168a1.165,1.165,0,0,0,.256.783.851.851,0,0,0,.681.3.778.778,0,0,0,.644-.322,3.246,3.246,0,0,0,.454-1.113q.132-.469.286-1.04t.293-1.106q.139-.534.234-.966a3.312,3.312,0,0,0,.1-.637q0-.571-.425-.571a1.126,1.126,0,0,0-.578.168,2.9,2.9,0,0,0-.93.886,1.711,1.711,0,0,0-.2.4l-.732,2.753A1.716,1.716,0,0,0,1398.083,1025.552Z" transform="translate(-181.618 -40.054)"/><path class="a" d="M1415.017,1017.039l-.819,3.016h1.259l-.058.234h-1.259l-1.025,3.953a1.235,1.235,0,0,0,.007.944.652.652,0,0,0,.594.286,1.03,1.03,0,0,0,.608-.234,2.125,2.125,0,0,0,.578-.747.162.162,0,0,1,.081-.08.109.109,0,0,1,.1,0,.139.139,0,0,1,.066.073.163.163,0,0,1-.007.124,2.331,2.331,0,0,1-.8.966,2.157,2.157,0,0,1-1.3.4,2.31,2.31,0,0,1-1-.2,1.665,1.665,0,0,1-.681-.571,1.908,1.908,0,0,1-.307-.864,2.926,2.926,0,0,1,.1-1.1l.791-2.943h-1.054l.059-.234H1412l.146-.556a6.139,6.139,0,0,0,.806-.359,3.884,3.884,0,0,0,.688-.476,4.16,4.16,0,0,0,.614-.674,6.385,6.385,0,0,0,.571-.952Z" transform="translate(-188.383 -38.781)"/><path class="a" d="M1421.263,1029.429a1.107,1.107,0,0,1-.242.388,1.285,1.285,0,0,1-.4.278,1.349,1.349,0,0,1-.564.11,1.062,1.062,0,0,1-.849-.322,1.089,1.089,0,0,1-.278-.732,1.267,1.267,0,0,1,.081-.439,1.1,1.1,0,0,1,.242-.388,1.279,1.279,0,0,1,.4-.278,1.35,1.35,0,0,1,.564-.11,1.062,1.062,0,0,1,.849.322,1.092,1.092,0,0,1,.278.732A1.268,1.268,0,0,1,1421.263,1029.429Z" transform="translate(-191.518 -43.03)"/><path class="a" d="M1427.441,1022.159q.132-.447.286-1.018t.322-1.208q.168-.637.308-1.237t.227-1.1a4.825,4.825,0,0,0,.089-.791,2.84,2.84,0,0,0-.1-.783,1.846,1.846,0,0,0-.249-.549,1.016,1.016,0,0,0-.344-.322.771.771,0,0,0-.366-.1q-.659,0-.974-.022t-.315-.212q0-.2.344-.227t1-.022a3.826,3.826,0,0,1,1.618.315,3.01,3.01,0,0,1,1.12.871,3.616,3.616,0,0,1,.644,1.318,6.407,6.407,0,0,1,.205,1.669,7.026,7.026,0,0,1-.22,1.691,8.815,8.815,0,0,1-.637,1.742,9.621,9.621,0,0,1-1.018,1.64,7.5,7.5,0,0,1-1.354,1.369,6.638,6.638,0,0,1-1.647.937,5.152,5.152,0,0,1-1.9.351q-.512,0-.754-.022t-.242-.154c0-.107.093-.168.278-.183s.454-.022.805-.022a1.978,1.978,0,0,0,1.45-.791,6.7,6.7,0,0,0,1.215-2.475Q1427.31,1022.606,1427.441,1022.159Z" transform="translate(-193.296 -37.817)"/><line class="b" x2="338.512" transform="translate(922.39 955.814)"/></g></svg>