<svg xmlns="http://www.w3.org/2000/svg" width="60" height="60" viewBox="0 0 60 60"><defs><style>.a{fill:#d8a286;}.a,.b{fill-rule:evenodd;}.b{fill:#deb299;}.c{fill:#fff;}</style></defs><path class="a" d="M272.239,1002.314c.291-.142,1.395-.194,1.769-.384C272.2,1002.065,272.2,1001.995,272.239,1002.314Z" transform="translate(-239.303 -943.034)"/><path class="a" d="M217.361,948.724a7.7,7.7,0,0,0-.017,2.648C217.259,950.595,217.493,949.437,217.361,948.724Z" transform="translate(-216.676 -920.56)"/><path class="a" d="M266.5,1002.5a.585.585,0,0,0,.325.066l.46-.028-.353-.068C266.707,1002.445,266.509,1002.444,266.5,1002.5Z" transform="translate(-236.948 -943.25)"/><path class="a" d="M269.456,1002.524l-.167.068.36.044c0-.028.166-.053.1-.076A2.119,2.119,0,0,0,269.456,1002.524Z" transform="translate(-238.095 -943.28)"/><path class="a" d="M274.165,900.622l3.162.7,1.2.363a19.835,19.835,0,0,1,2.537.92l-.058-.052,1.217.548c.379.122.831.431,1.2.572.657.376,1.341.7,1.913,1.091a3.631,3.631,0,0,0,.784.457l1.53,1.045c.2.09.527.39.695.467a4.376,4.376,0,0,0,.387.224,4.359,4.359,0,0,0-.965-.844l-1.81-1.238a5.638,5.638,0,0,0-1.577-.908l-1.189-.633a17.2,17.2,0,0,0-2.057-.9l-.767-.328a4.808,4.808,0,0,0-1.3-.445l-.484-.156a1.736,1.736,0,0,0-.416-.125l-.383-.105a19.95,19.95,0,0,0-3.623-.888c-.324-.046-.509-.035-.521.032S273.845,900.565,274.165,900.622Zm11.372,4.179.028.018a1.972,1.972,0,0,1,.394.261l-.394-.261c-.011,0-.022-.01-.032-.012Z" transform="translate(-239.861 -900.103)"/><path class="a" d="M310.923,981.907l-.014.021c-.016.024-.026.05-.042.074Z" transform="translate(-255.195 -934.559)"/><path class="b" d="M276.52,934.782c0-.017,0-.035,0-.052a9.846,9.846,0,0,0,.183-2.37,1.648,1.648,0,0,0-.07.192,2.466,2.466,0,0,0-.011-.483l-.023-.107.013-.141c.008-.641.015-1.282.023-1.96l-.074-.387a32.366,32.366,0,0,0-1.013-5.553l-.155-.4a47.19,47.19,0,0,0-1.615-4.513l-.225-.322-.174-.419a1.824,1.824,0,0,0-.363-.753,12.327,12.327,0,0,0-1.6-2.665,44.945,44.945,0,0,0-2.984-3.549c-.528-.549-.833-1.117-1.373-1.617-.524-.46-.614-.278-1.364-.888-.807-.6-1.588-1.28-2.46-1.9l-.051.067c-.012-.043-.048-.106.051-.067l-.34-.235-.05.069-1.055-.716-.391-.155-.125-.058-.077-.068c-.3-.235-.733-.377-.892-.576.2,0,.855.378.915.285a5,5,0,0,0-2.478-.992c-.238-.134-.574-.3-.55-.354.2-.157-.336-.334-1.025-.563-.561-.178-.727-.131-.709.006l-.378-.156a1.472,1.472,0,0,0-.413-.161l.054.044a3.9,3.9,0,0,0-.408-.172c-.483-.169-1.252-.357-.994-.48.206-.084-.109-.223-.674-.393a3.846,3.846,0,0,0-1.427-.282c.564.174,1.221.494,1.009.61-.242-.043-.522-.114-.807-.18a2.77,2.77,0,0,0-.55-.449c-.061-.077-.127-.145-.4-.213a.854.854,0,0,0-.468-.549c.268.018.557.046.844.073a9.164,9.164,0,0,1,2.489.771,5.662,5.662,0,0,0,1.643.5l2.3.956a53.593,53.593,0,0,1,5.395,2.866l-.034-.014c.972.591,1.816,1.461,2.757,2.152a7.863,7.863,0,0,1,1.221,1.079l.441.412c.3.259.606.6.9.912.9,1.09,1.764,2.039,2.519,3.074l-.068-.163.038.058.031.106a6.246,6.246,0,0,0,.75,1l.128.174.1.184a14.47,14.47,0,0,0,1.075,1.889,3.564,3.564,0,0,1,.2.34c.2.452.424.9.619,1.243.041.1.048.1.068.091.034.026.033-.013.011-.123a10.384,10.384,0,0,0-1.53-3.356l-.685-1.057a18.473,18.473,0,0,0-4.9-5.585,3.035,3.035,0,0,0-.666-.546,3.154,3.154,0,0,0-.684-.472l-.641-.51-1.037-.873a20.228,20.228,0,0,0-5.037-3.028c-.808-.373-1.7-.638-2.555-1.079-.63-.347-1.464-.677-1.191-.267.041.091-.5-.067-.844-.172-.647-.181-1.385-.44-2.083-.582a.979.979,0,0,1-.276-.065,1.269,1.269,0,0,0-.484-.1.965.965,0,0,1-.314-.064,18.736,18.736,0,0,0-1.837-.489,4.7,4.7,0,0,0-.8-.165c-.038-.074-.152-.135-.48-.173a3.244,3.244,0,0,0-.447-.066l-.109.018-.038,0,.147-.021c-.075-.065-.224-.105-.6-.106l-.039-.012v.007c-.037-.047-.187-.061-.45-.065a.839.839,0,0,1-.3.016c-.691.052-1.384.149-2.074.268a6.218,6.218,0,0,0-1.19.034,31.927,31.927,0,0,0-4.939.7l0,.014,0,.014-.006-.028a13.057,13.057,0,0,0-2.5.582,4.4,4.4,0,0,0-1.25.322,5.224,5.224,0,0,0-.965.282c-.44.158-.263.21-.52.334a1.383,1.383,0,0,0-.425.276c-.115.09-.669.332-.527.383.062.047.183.056.462-.011.117.082.445.041.923-.088l.089-.055,0,.007a.323.323,0,0,0-.092.048l1,.168c.044.111.179.179.614.091-.235.143-.466.289-.681.445a6.517,6.517,0,0,0-1.843,1.113,18.377,18.377,0,0,0-2.558,1.919l.056-.043c-.4.422-1.069.809-1.351,1.2l0-.006a8.123,8.123,0,0,0-.673.652l-.06.092-.111.091-1.178,1.13a6.617,6.617,0,0,0-1.445,1.421c-.538.717-1.582,1.842-2.172,2.746a15.212,15.212,0,0,0-1.836,2.9l.049-.042c-.024.056-.03.053-.03.053l-.019-.01a27.28,27.28,0,0,0-1.629,3.227,10.6,10.6,0,0,0-.814,2.191c-.061.192-.123.383-.179.576a19.1,19.1,0,0,0-1.116,4.682,6.985,6.985,0,0,0-.052,2.3.391.391,0,0,1-.016.251,2.406,2.406,0,0,0-.093.759,8.376,8.376,0,0,0,.057,2.367l.024.028,0,0h0v0c-.006,0-.016,0-.024-.028a3.472,3.472,0,0,0,.071,1.268h.007a9.479,9.479,0,0,0,.133,1.234.576.576,0,0,1,.035.252,2.124,2.124,0,0,0,.079.8,3.49,3.49,0,0,0,.427,1.4h0a3.592,3.592,0,0,0,.343,1.021l.394,1.267a16.753,16.753,0,0,0,.821,2.057l.312.761a4.7,4.7,0,0,0,.6,1.215l.232.445a1.709,1.709,0,0,0,.207.377l.2.34a19.6,19.6,0,0,0,1.939,3.137c.2.258.337.379.392.34s-.037-.236-.223-.5l-1.745-2.687-.6-1.091a19.36,19.36,0,0,1-1.146-2.405l0,.077-.474-1.228c-.183-.349-.283-.878-.448-1.235-.054-.195-.112-.388-.17-.58.019.034.034.07.056.1l-.007,0,.127.223c-.019-.091-.032-.151-.05-.236,0,.005,0,.013,0,.018v-.03l0,.012a2.072,2.072,0,0,0-.026-.338,2.664,2.664,0,0,0-.135-.78l-.018.005-.007,0,.024-.008a1.191,1.191,0,0,0-.02-.259,24.309,24.309,0,0,0,.874,2.667c.3.825.744,1.632,1.029,2.536.2.682.547,1.494.649,1.015.036-.092.308.4.473.707.327.577.663,1.272,1.054,1.857a.952.952,0,0,1,.148.238,1.212,1.212,0,0,0,.27.407.922.922,0,0,1,.176.263,12.98,12.98,0,0,0,3.529,4.462,5.89,5.89,0,0,1,.617.63,4.96,4.96,0,0,0,1.118,1.134,31.224,31.224,0,0,0,3.994,2.935l.008-.012.008-.012-.015.024a12.825,12.825,0,0,0,2.187,1.324,4.345,4.345,0,0,0,1.116.64,5.164,5.164,0,0,0,.886.469c.424.194.337.034.608.125a1.431,1.431,0,0,0,.5.1c.146.017.711.229.649.095-.01-.077-.089-.167-.334-.313-.024-.139-.285-.338-.716-.578l-.1-.024,0-.007a.34.34,0,0,0,.1.031l-.588-.815c.058-.129-.014-.3-.606-.632-.056-.115-.177-.252-.228-.38.429.2.9.381,1.315.523.445.15.707.136.741.055.108-.093-.392-.271-.69-.42-.358-.174-.632-.37-.653-.475-.041-.14.475.074.737.13a30,30,0,0,0,3.069.928,5.372,5.372,0,0,0,1.5.329l-.029-.021.032.008,0,.013a10.683,10.683,0,0,0,2.017.348.979.979,0,0,1-.153-.064l.032.006.121.058a7.768,7.768,0,0,0,1.94.162l-.064-.022.066.008,0,.014a13.35,13.35,0,0,0,3.231.109c.9-.133,2.446-.2,3.515-.435a15.8,15.8,0,0,0,3.391-.779l-.065,0c.058-.023.059-.017.059-.017l.006.021a27.494,27.494,0,0,0,6.173-2.419,20.675,20.675,0,0,0,3.692-2.182l0,0c.046.05.167.024.4-.146l.116-.138.005.005-.121.133a1.078,1.078,0,0,0,.4-.081,6.242,6.242,0,0,1-.9.658l.026-.02c-.316.173-.751.505-1.056.627-.7.231-1.417.892-2.183,1.238l-.638.307c-.431.139-.965.512-1.433.642l-.6.239a10.931,10.931,0,0,1-2.365.884l-.118.049-.092.023c-2.425.58-4.192,1.209-6.063,1.638a31.1,31.1,0,0,0,10.189-2.928l.7-.346a6.275,6.275,0,0,0,1.816-.942l.97-.6c.324-.159.712-.452,1.026-.634a2.3,2.3,0,0,1,.293-.2,5.013,5.013,0,0,0,1.014-.717l.317-.237c.137-.087.32-.179.423-.259l.449-.432a1.332,1.332,0,0,0,.428-.323l.035-.018-.005,0c.06.007.175-.087.365-.267a.8.8,0,0,1,.2-.217,28.734,28.734,0,0,0,2.631-3.669,11.807,11.807,0,0,0,.8-1.387,3.913,3.913,0,0,0,.55-.924c.1-.133.2-.259.3-.379a23.751,23.751,0,0,0,1.522-4.691,6.278,6.278,0,0,0,.5-2.065,17.716,17.716,0,0,0,.425-3.132ZM270.8,912.768l-.018.012s.009-.006,0-.039ZM233.59,902.562c-.008-.02-.053-.032.045-.082.028-.027.1-.039.128-.062C233.676,902.486,233.58,902.539,233.59,902.562Zm3.7,56.72c-.008.02.014.06-.091.027-.039,0-.1-.041-.135-.046C237.17,959.275,237.276,959.3,237.286,959.282ZM274.677,929.5h-.014v-.065Zm-.187,3.958a7.95,7.95,0,0,0-.008-1.831A6.571,6.571,0,0,1,274.49,933.463Zm.049-11.95c-.031-.028-.1-.19-.132-.212l-.058-.239Zm-.244,3.639.014,0c-.008.036-.02.14-.046.078A.431.431,0,0,0,274.3,925.152Zm-.576,5.969h.007l-.008.033Zm-.674-2.252c.008.126.049.188.032.282-.018.253-.064-.026-.1-.153C273.007,929,273.039,929,273.045,928.869Zm-.4,4.441.021,0-.014.063C272.643,933.4,272.646,933.31,272.646,933.31Zm-6.127,15.517c.048-.087.1-.178.149-.266a11.015,11.015,0,0,1,1.008-2.069,10.19,10.19,0,0,1-1.008,2.069.616.616,0,0,0-.021.118Zm-37.726-.435c-.032-.019-.078-.069-.108-.081l-.005,0-.018-.022-.068-.065,0,0a.487.487,0,0,1,.065.068l.024.017.056.035C228.759,948.364,228.774,948.374,228.792,948.391Zm-5.159-1.5-.038-.047c.055.035.078.017.063-.047l-.016-.027c.008.007.014.016.023.023-.274-.514-.508-1.2-.274-1.131A16.087,16.087,0,0,0,224.3,947l.5.72c.268.641.319.765.184.959-.164-.281-.405-.561-.657-.906a4.3,4.3,0,0,0-.67-.978C223.672,946.858,223.655,946.872,223.633,946.889Zm.815-9.373.024-.006v.061Zm-.388,1.727a.2.2,0,0,0-.114-.062.841.841,0,0,1-.148.4c.034-.165.026-.416.148-.4a1.861,1.861,0,0,0,.036-.352C224.033,939,224,939.073,224.06,939.243Zm-.942,5.086-.031-.057a2.642,2.642,0,0,0,.307.439l-.022.012Zm-.461-2.727-.118-.2c-.021-.059-.043-.122-.054-.153Zm-.918-3.74c-.025.006-.067-.051-.111-.139l-.013-.064C221.651,937.751,221.707,937.869,221.739,937.862Zm-2.67-2.4a.567.567,0,0,1-.045-.115h.008A.307.307,0,0,0,219.069,935.467Zm.766,2.762c-.055.017-.024.195.04.432a1.348,1.348,0,0,1-.154-.461C219.73,938.1,219.79,938.178,219.836,938.229Zm1.406-1.609a1.734,1.734,0,0,1-.2-.587A4.377,4.377,0,0,0,221.242,936.62Zm.214,1.54c-.019-.2-.041-.354.029-.37C221.429,937.8,221.437,937.963,221.456,938.16Zm-2.781-9.061,0,.059h-.014v-.028l0-.031Zm-.178,1.175v.028c0,.01,0,.021-.007.032l-.052.424-.008.123v-.062l.007-.061a2.377,2.377,0,0,1,.052-.424Zm-.493,4.59a.081.081,0,0,0,.074-.035c.01.1.016.156.025.248a1.179,1.179,0,0,0-.1-.213c-.077-.009-.161-.139-.244-.271A.777.777,0,0,1,218,934.863Zm3.816,7.854.155.372a1.423,1.423,0,0,0,.175.4l-.006-.069a3.859,3.859,0,0,0,.165.405c.22.454.628,1.12.357,1.029-.075-.031-.106-.007-.1.06l-.238-.462-.006,0c0-.217-.308-.6-.452-.94a3.673,3.673,0,0,0-.27-.849C221.7,942.776,221.771,942.78,221.82,942.717Zm7.5-32.367.009-.013h0Zm19.921-6.029-.006.038c0,.031-.159.007-.162.028C249.074,904.357,249.231,904.356,249.237,904.321Zm-1.949-.26c-.064-.006,0,0-.032-.007H247.1l.065-.008a3.092,3.092,0,0,1,.536-.025C247.6,904.046,247.355,904.029,247.288,904.061Zm.414.285v0a.476.476,0,0,1-.1,0l-.029,0-.065.014c-.026,0-.045,0-.07,0,.036-.009.105-.006.135-.018v-.007l.029,0Zm20.979,37a.376.376,0,0,1,.088-.155l.016.007C268.754,941.253,268.671,941.44,268.681,941.348Zm.068.2-.025.045.006-.055c-.009.009-.018.021-.026.031,0-.006,0-.013,0-.018s.022-.013.036-.033l-.011.021Zm3.018-8.45c-.012.089-.016.12-.032.239a.339.339,0,0,0-.026-.155C271.731,933.1,271.749,933.129,271.767,933.1Zm-.574-14.524.017.036-.015-.03,0-.006-.039-.081a.911.911,0,0,1-.021-.1A.7.7,0,0,0,271.192,918.576Zm-.131-2.832.014.022-.014-.022,0,0-.019-.029Zm-.408-.358-.012.008-.019-.029C270.647,915.389,270.653,915.386,270.653,915.386Zm-8.829-7.654a4.63,4.63,0,0,0-.562-.279A1.821,1.821,0,0,1,261.825,907.732Zm-1.765-.818a.465.465,0,0,1,.135.028l.055.036A.835.835,0,0,0,260.059,906.913Zm.189-.12c.031-.048-.091-.155-.246-.281C260.157,906.638,260.286,906.734,260.248,906.794Zm-3.352-1.825.148.07-.373-.127Zm-2.978-1.767.463.1.063.02a2.714,2.714,0,0,0-.533-.1Zm-5.583-3.03c-.029.007-.046.016-.1.026v-.01Zm-5,.162.069.005-.284.013ZM223.227,914.6c0,.028,0,.072,0,.11l0,0A.2.2,0,0,1,223.227,914.6Zm-.041.17-.005.009c-.035.014-.076.037-.114.053C223.112,914.8,223.149,914.789,223.185,914.768Zm-5.535,17.741c-.013.04-.025.081-.055.047l-.006-.064C217.621,932.56,217.636,932.54,217.65,932.509Zm.692,5.373,0,.009h0Zm3.074,5.9-.235-.571c.033.044.065.091.1.135a2.555,2.555,0,0,0,.217.552C221.469,943.859,221.444,943.819,221.416,943.782Zm2,3.769a8.8,8.8,0,0,1-1.2-2.273c-.03-.094-.07-.191-.109-.287a2.576,2.576,0,0,1,.222.412,4.333,4.333,0,0,0,.46.786,1.722,1.722,0,0,0,.142.132,17.478,17.478,0,0,0,1.986,2.448l-.056.067C224.628,949,224.008,948.254,223.42,947.551Zm1.749-5.569c.158-.007.2-.216.127-.595h0l.136.67C225.538,942.467,225.31,942.148,225.169,941.982Zm.347,5.179c.034.017-.04-.13.051-.033s.019.067.062.155Zm1.973.019.032-.023c.026-.019.118.1.135.092C227.63,947.268,227.518,947.159,227.489,947.18Zm.87,1.279c.087.048.25.233.321.256.041.049,0,0,.018.027l.11.11-.051-.039A2.992,2.992,0,0,1,228.359,948.459Zm.428,5.633-.046-.051.21.188Zm1.173-.494c0-.008-.009-.023-.007-.032-.2-.217-.316-.4-.506-.612l-.061-.036s.034.014.007-.008l.054.044c.469.367.533.512.506.612.038.043.06.077.108.124Zm2.106-3.464.235.088c-.044,0,.011.073.021.108A2.4,2.4,0,0,1,232.066,950.135Zm1.528,3.377.008-.012.021.027C233.6,953.509,233.595,953.512,233.595,953.512Zm3.138.238a1.221,1.221,0,0,0,.267.072C236.91,953.8,236.889,953.834,236.733,953.75Zm1.534.8c.028.012.03.009.03.009l0,0-.028-.012c-.021-.005-.034,0-.053-.007a1.04,1.04,0,0,1-.645-.1,1.6,1.6,0,0,1-.394-.157c-.018-.009-.026,0-.044-.015l-.192-.086.235.1c.133.058.267.111.394.157.222.055.408.047.645.1.007,0,.022,0,.028,0s-.006-.011,0-.013l-.247-.27-.038-.025.025.01c-.014-.018-.051-.046-.068-.066a6.364,6.364,0,0,1-.793-.58l-.007.012-.653-.4.58.345.08.043a2.64,2.64,0,0,1,.793.58c.046.029.075.061.123.09l-.055-.024.013.014c.2.126.4.248.247.27Zm.76.126-.327-.138c.112.04.243.111.389.149Zm1.688,2.155,0-.01v0Zm1.61-.749c.036-.014-.078-.05-.073-.07a.624.624,0,0,0,.161.1Zm2.225.51,0-.01.058.023Zm1.46.205a4.324,4.324,0,0,0-.486-.213l.57.031C246.207,956.675,246.29,956.741,246.01,956.794Zm2.32-1.806a.783.783,0,0,0,.224.061.164.164,0,0,0,.082.03v.007a.212.212,0,0,1-.081-.037l-.278-.055C248.33,954.995,248.33,954.988,248.33,954.988Zm.3.439h.029a.838.838,0,0,1-.2.059A1.08,1.08,0,0,0,248.627,955.427Zm4.77,2.434-.016.014a.212.212,0,0,1-.1.087l.1-.087a.084.084,0,0,0,.011-.05c.006.039.1.057.174.084A1.246,1.246,0,0,0,253.4,957.861Zm2.5-2.866c-.115.036-.264.1-.28.041-.054.015-.006-.021-.089,0a.068.068,0,0,0,.011-.013l.066-.024.012.042.174-.02.106-.021c.02-.006.044-.015.061-.018l0,.006Zm5.779-2.6c-.389.182-.735.32-.869.25-.192-.056.2-.276.533-.486.142-.092.323-.224.215-.243-.23.048-.546.282-.716.263.289-.222.666-.345.972-.587-.073.018-.119.024-.142.011l-.037.012.024-.016s.011,0,.013,0c.066-.021.126-.036.142-.011a.583.583,0,0,1,.19-.114c.4-.15.814-.527,1.236-.7a6.114,6.114,0,0,0,1.515-1.167l.025-.015.042-.038-.022.018c.351-.481-.115-.09-.4.122l-.128.1-.075.042c-.235.059-.64.431-.876.481a26.371,26.371,0,0,0,2.879-2.472c.059-.059.125-.121.192-.183a.137.137,0,0,0-.018.036c-.06.113.044.036.12-.063a1.335,1.335,0,0,0,.111-.15l-.017-.01a.873.873,0,0,0,.3-.438,1.274,1.274,0,0,1,.224-.5c.23-.11.57-.439.721-.407-.134.213-.191.331-.18.414a10.428,10.428,0,0,0-.891,1.472,8.12,8.12,0,0,1-.786,1.312c-.238.263-.456.522-.663.778-.058.04-.115.083-.173.122A33.12,33.12,0,0,1,261.676,952.394Zm1.278-.23.126-.073a.576.576,0,0,0,.116-.053.559.559,0,0,1,.149-.069.689.689,0,0,0-.149.069A1.936,1.936,0,0,1,262.954,952.164Z" transform="translate(-216.719 -899.921)"/><path class="a" d="M229.491,919.436c-.106.306-.849,1.123-.98,1.522C229.692,919.586,229.743,919.635,229.491,919.436Z" transform="translate(-221.333 -908.17)"/><path class="a" d="M216.972,936.219c.1-.347.167-.893.294-1.2.327-.659.359-1.641.65-2.43.062-.181.146-.427.23-.67.2-.4.313-1.048.55-1.472.1-.235.173-.414.248-.592a10.784,10.784,0,0,1,1.031-2.3l.048-.119.049-.082c.755-1.242,1.339-2.336,1.9-3.357l.477-.713c.149-.251.267-.479.222-.51,0-.008-.006-.009-.01-.012.167-.29.336-.578.512-.861a30.206,30.206,0,0,0-4.691,8.228c-.022-.1-.125.092-.2.329-.184.578-.414,1.166-.558,1.733a7.5,7.5,0,0,0-.478,1.7c-.087.381-.166.73-.254,1.114-.114.343-.177.826-.268,1.178a2.283,2.283,0,0,1-.06.353,4.976,4.976,0,0,0-.2,1.231c-.018.13-.039.293-.053.394-.034.159-.1.354-.112.485,0,.495-.009.953-.013,1.448a.409.409,0,0,0,.021.1c.021.033.036.033.058-.064a1.531,1.531,0,0,0,.1-.4h-.007c.066-.227.055-.585.1-.876a2,2,0,0,1,.017-.293,2.774,2.774,0,0,0,.157-.838,2.991,2.991,0,0,1-.089.289l-.039.126,0-.033c.012-.026.023-.061.035-.092.031-.1.06-.2.089-.289.141-.377.1-1.1.252-1.54Z" transform="translate(-216.282 -909.296)"/><path class="a" d="M305.7,917.449a7.706,7.706,0,0,0-1.861-1.884C304.451,916.055,305.1,917.038,305.7,917.449Z" transform="translate(-252.292 -906.382)"/><path class="a" d="M311.834,925.527l.623,1.175a5.33,5.33,0,0,0,.3.507c.18.2.11-.052-.023-.316a11.151,11.151,0,0,0-1.284-2.254l-.2-.308c-.17-.242-.35-.484-.41-.445-.087-.03.072.218.191.406C311.311,924.724,311.576,925.208,311.834,925.527Z" transform="translate(-255.174 -910.057)"/><path class="a" d="M233.866,915.412a.582.582,0,0,0-.276.183l-.306.345.3-.2C233.76,915.6,233.9,915.456,233.866,915.412Z" transform="translate(-223.304 -906.319)"/><path class="a" d="M231.932,917.473l.07-.165-.286.224c.019.021-.08.156-.016.125A2.129,2.129,0,0,0,231.932,917.473Z" transform="translate(-222.641 -907.102)"/><path class="a" d="M313.839,977.088c-.068.089-.085-.084-.205.269-.023.073-.025.152-.009.16a2.535,2.535,0,0,0,.221-.3C313.908,977.08,313.927,976.967,313.839,977.088Z" transform="translate(-256.329 -932.505)"/><path class="a" d="M317.732,942.141c.092.06,0-.333-.031-.552l-.264-1.295c-.108-.237-.17-.221-.163.039l.255,1.289C317.6,941.906,317.68,942.15,317.732,942.141Z" transform="translate(-257.84 -916.92)"/><path class="a" d="M294.537,911.394l.128.12-.062-.1Z" transform="translate(-248.485 -904.66)"/><g transform="translate(16.93 16.879)"><path class="c" d="M269.45,956.414a.482.482,0,0,1-.482-.482V933.179a.482.482,0,0,1,.344-.461l10.615-3.169a.482.482,0,0,1,.619.462v22.753a.482.482,0,0,1-.344.462l-10.615,3.169A.5.5,0,0,1,269.45,956.414Zm.481-22.876v21.748l9.652-2.881V930.657Z" transform="translate(-254.888 -929.529)"/><path class="c" d="M261.981,956.414a.5.5,0,0,1-.138-.02l-10.615-3.169a.482.482,0,0,1-.344-.462V930.01a.482.482,0,0,1,.619-.462l10.615,3.169a.481.481,0,0,1,.344.461v22.753a.482.482,0,0,1-.481.482ZM251.848,952.4l9.651,2.881V933.537l-9.651-2.881Z" transform="translate(-247.419 -929.529)"/><path class="c" d="M269.449,957.769a.482.482,0,0,1-.137-.943l10.271-3.066V933.6a.481.481,0,0,1,.44-.48l3.466-.306a.482.482,0,0,1,.524.48v22.753a.481.481,0,0,1-.44.48l-14.08,1.243Zm11.1-23.731v20.08a.482.482,0,0,1-.344.462l-6.064,1.81,8.91-.786V933.818Z" transform="translate(-254.888 -930.884)"/><path class="c" d="M259.543,957.769l-.043,0-14.079-1.243a.481.481,0,0,1-.44-.479V933.292a.482.482,0,0,1,.157-.356.494.494,0,0,1,.367-.124l3.466.306a.481.481,0,0,1,.44.48V953.76l10.271,3.066a.482.482,0,0,1-.137.943Zm-13.6-2.165,8.909.786-6.063-1.81a.482.482,0,0,1-.344-.462v-20.08l-2.5-.22Z" transform="translate(-244.981 -930.884)"/></g></svg>