<svg xmlns="http://www.w3.org/2000/svg" width="60" height="60" viewBox="0 0 60 60"><defs><style>.a{fill:#d8a286;}.a,.b{fill-rule:evenodd;}.b{fill:#deb299;}.c{fill:none;stroke:#f4f4f5;stroke-linecap:round;stroke-linejoin:round;stroke-width:1.5px;}</style></defs><path class="a" d="M1493.964,1001.186c.294-.143,1.406-.2,1.782-.387C1493.927,1000.935,1493.926,1000.864,1493.964,1001.186Z" transform="translate(-1461.036 -941.911)"/><path class="a" d="M1439.088,947.593a7.76,7.76,0,0,0-.017,2.668C1438.985,949.478,1439.22,948.311,1439.088,947.593Z" transform="translate(-1438.397 -919.438)"/><path class="a" d="M1488.229,1001.37a.589.589,0,0,0,.326.066l.464-.028-.357-.069C1488.435,1001.314,1488.235,1001.313,1488.229,1001.37Z" transform="translate(-1458.677 -942.125)"/><path class="a" d="M1491.183,1001.393l-.168.068.363.044c0-.028.167-.054.1-.077A2.138,2.138,0,0,0,1491.183,1001.393Z" transform="translate(-1459.822 -942.154)"/><path class="a" d="M1495.894,899.493l3.186.706,1.213.366a19.977,19.977,0,0,1,2.557.927l-.058-.053,1.225.552c.383.122.837.435,1.213.576.663.378,1.351.71,1.928,1.1a3.634,3.634,0,0,0,.79.461l1.541,1.053c.2.091.531.393.7.47a4.446,4.446,0,0,0,.39.226,4.4,4.4,0,0,0-.972-.85l-1.824-1.247a5.679,5.679,0,0,0-1.588-.915l-1.2-.637a17.421,17.421,0,0,0-2.072-.905l-.773-.33a4.844,4.844,0,0,0-1.31-.449l-.487-.157a1.747,1.747,0,0,0-.419-.126l-.387-.106a20.09,20.09,0,0,0-3.649-.894c-.326-.047-.514-.035-.525.032S1495.572,899.436,1495.894,899.493Zm11.458,4.21.028.018a1.985,1.985,0,0,1,.4.263l-.4-.263c-.011,0-.022-.01-.032-.012Z" transform="translate(-1461.671 -898.97)"/><path class="a" d="M1532.649,980.776l-.013.021c-.016.024-.026.051-.043.075Z" transform="translate(-1476.952 -933.428)"/><path class="b" d="M1498.241,933.65c0-.017,0-.035,0-.052a9.871,9.871,0,0,0,.183-2.37,1.629,1.629,0,0,0-.07.192,2.479,2.479,0,0,0-.01-.483l-.023-.107.013-.142c.008-.641.015-1.282.023-1.96l-.073-.387a32.383,32.383,0,0,0-1.013-5.553l-.155-.4a47.359,47.359,0,0,0-1.615-4.513l-.225-.322-.174-.419a1.821,1.821,0,0,0-.362-.753,12.323,12.323,0,0,0-1.6-2.665,45.022,45.022,0,0,0-2.984-3.549c-.528-.549-.833-1.117-1.373-1.617-.525-.46-.614-.278-1.364-.888-.807-.6-1.588-1.28-2.46-1.9l-.051.068c-.012-.043-.048-.106.051-.068l-.34-.234-.05.069-1.055-.716-.391-.155-.125-.058-.077-.068c-.3-.235-.734-.376-.892-.576.2,0,.854.378.914.285a5,5,0,0,0-2.477-.992c-.238-.134-.575-.3-.55-.355.2-.157-.336-.334-1.025-.562-.561-.178-.727-.131-.709.006l-.378-.156a1.465,1.465,0,0,0-.413-.161l.054.044a3.9,3.9,0,0,0-.409-.172c-.482-.169-1.251-.357-.993-.481.206-.084-.109-.223-.674-.393a3.849,3.849,0,0,0-1.427-.282c.564.174,1.222.494,1.009.61-.242-.043-.522-.114-.807-.18a2.777,2.777,0,0,0-.551-.449c-.06-.077-.126-.145-.4-.213a.856.856,0,0,0-.468-.549c.268.018.557.046.844.073a9.151,9.151,0,0,1,2.489.771,5.662,5.662,0,0,0,1.643.5l2.3.956a53.59,53.59,0,0,1,5.394,2.866l-.034-.014c.972.591,1.815,1.461,2.757,2.152a7.866,7.866,0,0,1,1.221,1.08l.441.412c.3.259.605.6.9.912.9,1.09,1.764,2.039,2.519,3.074l-.069-.163.038.058.031.106a6.254,6.254,0,0,0,.75,1l.128.174.1.184a14.464,14.464,0,0,0,1.075,1.888,3.55,3.55,0,0,1,.2.34c.2.452.424.9.619,1.243.041.1.048.1.068.091.034.026.033-.013.012-.123a10.384,10.384,0,0,0-1.53-3.356l-.685-1.057a18.471,18.471,0,0,0-4.9-5.585,3.045,3.045,0,0,0-.666-.546,3.164,3.164,0,0,0-.684-.472l-.641-.51-1.037-.873a20.225,20.225,0,0,0-5.036-3.028c-.808-.373-1.7-.638-2.555-1.079-.629-.347-1.464-.677-1.19-.267.041.091-.5-.067-.844-.171-.647-.181-1.385-.44-2.083-.582a.967.967,0,0,1-.276-.065,1.268,1.268,0,0,0-.484-.1.963.963,0,0,1-.314-.064,18.772,18.772,0,0,0-1.837-.489,4.7,4.7,0,0,0-.8-.165c-.038-.074-.152-.135-.48-.173a3.211,3.211,0,0,0-.447-.066l-.109.018-.038,0,.146-.021c-.074-.065-.223-.105-.6-.106l-.039-.012v.007c-.037-.047-.187-.061-.45-.065a.837.837,0,0,1-.3.016c-.691.052-1.384.149-2.074.268a6.223,6.223,0,0,0-1.19.034,31.917,31.917,0,0,0-4.938.7l0,.014,0,.014-.006-.028a13.057,13.057,0,0,0-2.5.582,4.4,4.4,0,0,0-1.25.322,5.242,5.242,0,0,0-.965.282c-.44.158-.262.21-.52.334a1.381,1.381,0,0,0-.424.276c-.115.089-.668.331-.527.383.062.047.183.055.461-.011.118.082.445.04.923-.088l.09-.055,0,.007a.33.33,0,0,0-.092.048l1,.168c.044.111.179.179.614.091-.235.143-.465.289-.681.445a6.509,6.509,0,0,0-1.843,1.113,18.365,18.365,0,0,0-2.557,1.919l.056-.043c-.4.422-1.069.808-1.351,1.2l0-.006a8.089,8.089,0,0,0-.672.652l-.061.092-.11.091-1.179,1.13a6.621,6.621,0,0,0-1.444,1.421c-.538.717-1.582,1.842-2.172,2.746a15.2,15.2,0,0,0-1.836,2.9l.049-.042c-.024.056-.03.053-.03.053l-.019-.01a27.31,27.31,0,0,0-1.629,3.227,10.576,10.576,0,0,0-.814,2.191c-.061.192-.123.383-.179.576a19.138,19.138,0,0,0-1.116,4.682,7,7,0,0,0-.051,2.3.388.388,0,0,1-.016.251,2.409,2.409,0,0,0-.093.759,8.362,8.362,0,0,0,.057,2.367l.023.028.005,0h0l0,0c-.005,0-.015,0-.023-.028a3.473,3.473,0,0,0,.071,1.268h.007a9.488,9.488,0,0,0,.133,1.234.578.578,0,0,1,.035.252,2.127,2.127,0,0,0,.079.8,3.483,3.483,0,0,0,.426,1.4h0a3.6,3.6,0,0,0,.343,1.021l.394,1.267a16.858,16.858,0,0,0,.821,2.057l.311.761a4.691,4.691,0,0,0,.605,1.215l.233.445a1.691,1.691,0,0,0,.206.377l.2.34a19.568,19.568,0,0,0,1.939,3.137c.2.258.337.379.392.34s-.037-.236-.223-.5l-1.745-2.687-.6-1.091a19.277,19.277,0,0,1-1.146-2.406l0,.077c-.167-.431-.308-.8-.474-1.228-.183-.349-.283-.878-.448-1.235-.054-.195-.112-.388-.17-.58.019.034.034.07.055.1l-.006,0,.127.223c-.019-.091-.032-.151-.05-.236a.137.137,0,0,1,0,.018v-.03l0,.012a2.077,2.077,0,0,0-.026-.338,2.669,2.669,0,0,0-.136-.78l-.017.005-.006,0,.023-.008a1.158,1.158,0,0,0-.019-.259,24.173,24.173,0,0,0,.874,2.667c.3.825.744,1.632,1.029,2.536.2.682.547,1.494.649,1.015.036-.092.308.4.473.707.327.577.663,1.272,1.054,1.857a.96.96,0,0,1,.148.238,1.207,1.207,0,0,0,.27.406.928.928,0,0,1,.176.263,12.986,12.986,0,0,0,3.528,4.462,5.831,5.831,0,0,1,.617.63,4.945,4.945,0,0,0,1.118,1.134,31.2,31.2,0,0,0,3.994,2.934l.007-.012.008-.012-.015.024a12.81,12.81,0,0,0,2.187,1.324,4.331,4.331,0,0,0,1.116.64,5.142,5.142,0,0,0,.885.469c.424.194.337.034.608.125a1.428,1.428,0,0,0,.5.1c.146.017.712.229.649.095-.011-.078-.09-.167-.334-.313-.024-.139-.286-.338-.716-.578l-.1-.024,0-.007a.347.347,0,0,0,.1.031l-.588-.815c.059-.129-.013-.3-.6-.632-.056-.115-.177-.252-.228-.38.428.2.9.381,1.315.523.445.15.707.136.74.055.108-.093-.391-.271-.689-.42-.358-.174-.633-.37-.653-.475-.041-.14.475.074.737.131a30,30,0,0,0,3.069.927,5.372,5.372,0,0,0,1.5.329l-.029-.021.032.008,0,.013a10.7,10.7,0,0,0,2.017.348.97.97,0,0,1-.153-.064l.032.006.121.058a7.765,7.765,0,0,0,1.94.162l-.064-.022.065.008v.014a13.353,13.353,0,0,0,3.231.109c.9-.133,2.446-.2,3.514-.435a15.775,15.775,0,0,0,3.39-.779l-.065,0c.057-.023.06-.017.06-.017l.005.021a27.485,27.485,0,0,0,6.173-2.419,20.646,20.646,0,0,0,3.691-2.182l0,0c.046.05.167.024.4-.146l.117-.138,0,.005-.121.133a1.081,1.081,0,0,0,.4-.081,6.231,6.231,0,0,1-.9.658l.026-.02c-.316.173-.751.505-1.056.627-.7.231-1.417.892-2.184,1.238l-.638.307c-.431.139-.965.512-1.433.642l-.6.239a10.92,10.92,0,0,1-2.364.884l-.118.049-.093.023c-2.424.58-4.191,1.209-6.062,1.638a31.093,31.093,0,0,0,10.187-2.928l.7-.346a6.27,6.27,0,0,0,1.815-.942l.97-.6c.324-.159.711-.452,1.025-.634a2.276,2.276,0,0,1,.294-.2,5.013,5.013,0,0,0,1.014-.717l.317-.237c.137-.087.319-.179.423-.259l.449-.432a1.335,1.335,0,0,0,.428-.323l.035-.018-.005,0c.06.007.175-.087.365-.267a.8.8,0,0,1,.2-.217,28.787,28.787,0,0,0,2.63-3.669,11.907,11.907,0,0,0,.8-1.387,3.889,3.889,0,0,0,.55-.924c.1-.133.2-.259.3-.379a23.693,23.693,0,0,0,1.522-4.691,6.27,6.27,0,0,0,.5-2.065,17.727,17.727,0,0,0,.425-3.132Zm-5.716-22.014-.017.012s.009-.006,0-.039Zm-37.21-10.206c-.008-.02-.053-.032.044-.082.029-.027.1-.039.128-.062C1455.4,901.355,1455.3,901.408,1455.314,901.431Zm3.7,56.72c-.008.02.014.06-.091.027-.039,0-.1-.041-.135-.046C1458.894,958.144,1459,958.173,1459.01,958.151Zm37.388-29.778h-.015v-.065Zm-.187,3.958a7.915,7.915,0,0,0-.008-1.831A6.528,6.528,0,0,1,1496.211,932.331Zm.05-11.95c-.031-.028-.1-.19-.132-.212l-.058-.239C1496.139,920.092,1496.221,920.286,1496.261,920.382Zm-.244,3.639.014,0c-.008.036-.02.14-.047.079A.482.482,0,0,0,1496.017,924.021Zm-.575,5.969h.007l-.008.033Zm-.674-2.252c.008.126.049.188.032.282-.018.253-.063-.026-.1-.152C1494.728,927.866,1494.761,927.864,1494.767,927.738Zm-.4,4.441.021,0-.014.063C1494.365,932.272,1494.368,932.179,1494.368,932.179ZM1488.24,947.7c.048-.087.1-.178.149-.266a11.017,11.017,0,0,1,1.009-2.069,10.214,10.214,0,0,1-1.009,2.069.646.646,0,0,0-.02.118Zm-37.723-.435c-.032-.019-.078-.069-.108-.081l-.005,0-.018-.022-.068-.065,0,0a.493.493,0,0,1,.065.068l.023.017.056.035C1450.483,947.232,1450.5,947.243,1450.517,947.26Zm-5.159-1.5-.038-.047c.055.035.078.017.063-.047,0-.009-.011-.018-.016-.026.009.007.015.016.023.023-.274-.514-.508-1.2-.274-1.131a16.042,16.042,0,0,0,.909,1.34c.154.221.327.47.5.72.268.641.318.765.183.959-.164-.281-.405-.561-.657-.906a4.266,4.266,0,0,0-.669-.978C1445.4,945.727,1445.38,945.74,1445.358,945.757Zm.815-9.373.024-.006v.061Zm-.388,1.727a.2.2,0,0,0-.115-.062.835.835,0,0,1-.148.4c.034-.165.026-.416.148-.4a1.809,1.809,0,0,0,.036-.352C1445.758,937.871,1445.724,937.942,1445.785,938.112Zm-.942,5.086-.031-.057a2.612,2.612,0,0,0,.307.439l-.022.012Zm-.461-2.727-.118-.2c-.021-.06-.043-.122-.054-.153Zm-.918-3.74c-.024.006-.067-.051-.11-.139l-.013-.064C1443.377,936.62,1443.432,936.738,1443.464,936.73Zm-2.669-2.4a.538.538,0,0,1-.045-.115h.007A.3.3,0,0,0,1440.8,934.335Zm.766,2.762c-.055.017-.023.2.04.431a1.363,1.363,0,0,1-.154-.461C1441.456,936.971,1441.516,937.047,1441.561,937.1Zm1.406-1.609a1.744,1.744,0,0,1-.2-.587A4.452,4.452,0,0,0,1442.967,935.489Zm.214,1.54c-.019-.2-.041-.353.029-.37C1443.154,936.672,1443.162,936.832,1443.181,937.028Zm-2.781-9.061,0,.059h-.015V928l0-.031Zm-.178,1.175v.028c0,.01,0,.021-.008.032-.019.157-.035.286-.052.424l-.008.123v-.062l.008-.061a2.444,2.444,0,0,1,.052-.424Zm-.493,4.59a.082.082,0,0,0,.074-.035c.009.1.016.156.025.248a1.183,1.183,0,0,0-.1-.213c-.078-.009-.162-.139-.243-.271A.789.789,0,0,1,1439.73,933.732Zm3.816,7.854.154.372a1.412,1.412,0,0,0,.176.4l-.006-.069a3.735,3.735,0,0,0,.165.405c.22.454.628,1.12.357,1.029-.075-.031-.106-.007-.1.06l-.238-.462-.006,0c0-.217-.308-.6-.453-.94a3.678,3.678,0,0,0-.269-.849C1443.425,941.645,1443.5,941.649,1443.546,941.586Zm7.5-32.367.009-.013h0Zm19.919-6.029-.006.038c0,.031-.159.008-.162.028C1470.8,903.225,1470.955,903.225,1470.96,903.19Zm-1.948-.26c-.063-.006,0,0-.032-.007h-.157l.065-.008a3.1,3.1,0,0,1,.536-.025C1469.328,902.915,1469.078,902.9,1469.012,902.93Zm.414.285v0a.473.473,0,0,1-.1,0l-.029,0-.065.014c-.026,0-.045,0-.07,0,.036-.009.105-.006.135-.018v-.007l.028,0Zm20.977,37a.378.378,0,0,1,.087-.155l.016.007C1490.476,940.122,1490.393,940.309,1490.4,940.217Zm.067.2-.025.045.006-.055c-.009.009-.017.021-.027.031,0-.006,0-.013,0-.018s.022-.013.036-.033l-.011.021Zm3.019-8.45c-.012.089-.016.12-.032.239a.326.326,0,0,0-.027-.155C1493.452,931.965,1493.471,932,1493.488,931.969Zm-.575-14.524.018.036-.015-.03,0-.006-.039-.081a.769.769,0,0,1-.021-.1A.722.722,0,0,0,1492.913,917.445Zm-.13-2.832.014.022-.014-.022,0,0-.019-.029Zm-.408-.358-.012.008-.019-.029C1492.369,914.258,1492.375,914.255,1492.375,914.255Zm-8.829-7.654a4.574,4.574,0,0,0-.561-.279A1.817,1.817,0,0,1,1483.546,906.6Zm-1.765-.818a.456.456,0,0,1,.135.028l.056.036A.829.829,0,0,0,1481.781,905.782Zm.19-.119c.031-.048-.091-.155-.246-.281C1481.879,905.507,1482.008,905.6,1481.971,905.663Zm-3.351-1.825.148.07-.373-.127Zm-2.978-1.767.463.1.063.02a2.717,2.717,0,0,0-.534-.1Zm-5.583-3.03c-.029.007-.046.016-.1.026v-.01Zm-5,.162.07.005-.284.013Zm-20.109,14.265c0,.028,0,.072,0,.11l0,0A.2.2,0,0,1,1444.952,913.467Zm-.041.17-.005.009c-.035.014-.076.037-.114.053C1444.837,913.671,1444.874,913.657,1444.911,913.637Zm-5.535,17.741c-.013.04-.025.081-.056.047l-.005-.064C1439.347,931.429,1439.362,931.409,1439.376,931.378Zm.691,5.373,0,.009h0Zm3.075,5.9-.235-.571c.033.044.064.091.1.135a2.546,2.546,0,0,0,.217.552C1443.195,942.728,1443.169,942.688,1443.142,942.651Zm2,3.769a8.8,8.8,0,0,1-1.2-2.273c-.031-.094-.07-.191-.109-.287a2.569,2.569,0,0,1,.222.412,4.3,4.3,0,0,0,.459.785,1.7,1.7,0,0,0,.141.132,17.474,17.474,0,0,0,1.985,2.448l-.056.067C1446.354,947.872,1445.733,947.123,1445.145,946.42Zm1.749-5.569c.158-.007.2-.216.127-.595h0c.048.234.095.466.136.67C1447.263,941.336,1447.035,941.017,1446.894,940.851Zm.347,5.179c.034.017-.041-.13.051-.033s.019.067.062.155Zm1.973.019.032-.023c.026-.019.118.1.135.092C1449.355,946.137,1449.243,946.028,1449.214,946.049Zm.87,1.279c.086.048.25.233.32.256.041.049,0,0,.018.027l.111.11-.052-.039A3.016,3.016,0,0,1,1450.084,947.328Zm.428,5.633-.045-.051.21.188Zm1.173-.494c0-.008-.009-.023-.007-.032-.2-.217-.316-.4-.507-.612l-.06-.036s.033.014.007-.008l.053.044c.47.367.533.512.507.612.038.043.059.077.108.123Zm2.106-3.463.235.088c-.044,0,.011.073.02.108A2.353,2.353,0,0,1,1453.791,949Zm1.528,3.377.008-.012.021.027C1455.321,952.378,1455.319,952.381,1455.319,952.381Zm3.138.238a1.2,1.2,0,0,0,.267.072C1458.634,952.666,1458.614,952.7,1458.458,952.619Zm1.533.8c.028.011.029.009.029.009v0l-.028-.011c-.021-.005-.034,0-.053-.007a1.038,1.038,0,0,1-.645-.1,1.6,1.6,0,0,1-.395-.157c-.017-.009-.025,0-.043-.015l-.192-.086.235.1c.133.058.268.111.395.157.223.055.409.047.645.1.008,0,.022,0,.028,0s-.006-.011,0-.013l-.246-.27-.039-.025.025.01c-.013-.018-.05-.046-.067-.066a6.379,6.379,0,0,1-.793-.58l-.007.012-.653-.4.58.345.08.043a2.637,2.637,0,0,1,.793.58c.046.029.075.061.123.09l-.056-.024.014.014c.2.126.4.248.246.27Zm.76.127-.328-.139c.112.04.244.111.39.149Zm1.688,2.155,0-.01v0Zm1.609-.749c.036-.014-.078-.05-.073-.07a.621.621,0,0,0,.161.1Zm2.225.51,0-.01.058.023Zm1.461.205a4.293,4.293,0,0,0-.486-.213l.571.031C1467.93,955.544,1468.013,955.61,1467.734,955.663Zm2.32-1.806a.772.772,0,0,0,.223.061.167.167,0,0,0,.083.03v.007a.218.218,0,0,1-.082-.037l-.277-.055C1470.053,953.864,1470.053,953.857,1470.053,953.857Zm.3.439h.029a.832.832,0,0,1-.2.06A1.122,1.122,0,0,0,1470.35,954.3Zm4.77,2.434-.016.015a.214.214,0,0,1-.1.087l.1-.087a.086.086,0,0,0,.011-.05c.006.039.1.057.174.084A1.312,1.312,0,0,0,1475.12,956.729Zm2.5-2.866c-.115.036-.265.1-.281.041-.054.015-.005-.021-.09,0a.06.06,0,0,0,.012-.013l.066-.024.011.042.175-.02.106-.021c.019-.006.044-.015.06-.018l0,.006Zm5.779-2.6c-.389.182-.735.321-.869.25-.192-.056.2-.276.532-.486.142-.092.322-.224.215-.243-.23.048-.545.282-.716.263.289-.222.666-.345.972-.587-.073.018-.119.024-.142.011l-.037.012.024-.016s.01,0,.014,0c.066-.021.126-.036.142-.011a.581.581,0,0,1,.189-.114c.4-.15.815-.527,1.236-.7a6.113,6.113,0,0,0,1.515-1.167l.024-.015.042-.038-.022.018c.351-.481-.115-.09-.4.122l-.128.1-.075.042c-.235.059-.64.431-.876.481a26.357,26.357,0,0,0,2.879-2.472c.059-.059.125-.121.192-.183a.173.173,0,0,0-.018.036c-.059.113.044.036.121-.064a1.431,1.431,0,0,0,.11-.15l-.017-.01c.163-.162.3-.318.3-.438a1.275,1.275,0,0,1,.225-.5c.23-.11.57-.439.721-.406-.133.213-.191.331-.179.414a10.415,10.415,0,0,0-.891,1.472,8.087,8.087,0,0,1-.786,1.312c-.238.263-.456.522-.664.778-.058.04-.114.083-.173.122A33.12,33.12,0,0,1,1483.4,951.263Zm1.277-.23.126-.073a.549.549,0,0,0,.117-.053.568.568,0,0,1,.149-.069.7.7,0,0,0-.149.069A1.92,1.92,0,0,1,1484.676,951.033Z" transform="translate(-1438.44 -898.79)"/><path class="a" d="M1451.223,918.3c-.106.309-.855,1.132-.987,1.533C1451.426,918.456,1451.477,918.505,1451.223,918.3Z" transform="translate(-1443.005 -907.041)"/><path class="a" d="M1438.7,935.194c.1-.349.167-.9.3-1.2.329-.664.361-1.653.655-2.448l.231-.675c.206-.407.316-1.056.554-1.483l.251-.6a10.832,10.832,0,0,1,1.039-2.321l.048-.119.049-.083c.761-1.251,1.35-2.354,1.911-3.382l.481-.718c.15-.253.269-.483.224-.513,0-.008-.006-.009-.01-.012.168-.292.338-.582.516-.868a30.445,30.445,0,0,0-4.726,8.29c-.023-.1-.126.092-.2.331-.186.582-.418,1.174-.562,1.746a7.56,7.56,0,0,0-.481,1.712c-.088.384-.168.735-.256,1.122-.115.345-.179.833-.27,1.187a2.216,2.216,0,0,1-.061.356,5.075,5.075,0,0,0-.2,1.24c-.017.131-.04.3-.053.4-.035.16-.1.357-.113.489,0,.5-.009.96-.013,1.459a.4.4,0,0,0,.021.1c.021.034.036.034.057-.064a1.517,1.517,0,0,0,.1-.4h-.008c.066-.228.055-.589.1-.883a1.958,1.958,0,0,1,.017-.3,2.782,2.782,0,0,0,.157-.844,2.706,2.706,0,0,1-.089.292l-.038.126,0-.034a.936.936,0,0,0,.035-.093l.089-.292c.143-.38.1-1.109.254-1.552Z" transform="translate(-1438.008 -908.207)"/><path class="a" d="M1527.441,916.332a7.764,7.764,0,0,0-1.875-1.9C1526.18,914.927,1526.839,915.918,1527.441,916.332Z" transform="translate(-1474.081 -905.183)"/><path class="a" d="M1533.567,924.409l.627,1.183a5.383,5.383,0,0,0,.307.511c.182.2.111-.052-.024-.319a11.211,11.211,0,0,0-1.293-2.271l-.2-.31c-.171-.244-.352-.487-.413-.448-.088-.03.072.219.192.409C1533.041,923.6,1533.307,924.087,1533.567,924.409Z" transform="translate(-1476.932 -908.932)"/><path class="a" d="M1455.6,914.281a.583.583,0,0,0-.277.184l-.308.348.3-.2C1455.49,914.466,1455.632,914.325,1455.6,914.281Z" transform="translate(-1444.956 -905.12)"/><path class="a" d="M1453.66,916.343l.071-.167-.289.225c.02.021-.08.157-.016.126A2.168,2.168,0,0,0,1453.66,916.343Z" transform="translate(-1444.3 -905.894)"/><path class="a" d="M1535.565,975.957c-.068.089-.085-.085-.207.271-.024.073-.026.153-.01.161a2.471,2.471,0,0,0,.223-.307C1535.636,975.949,1535.655,975.835,1535.565,975.957Z" transform="translate(-1478.074 -931.377)"/><path class="a" d="M1539.462,941.025c.092.06,0-.335-.031-.556l-.266-1.3c-.109-.238-.172-.222-.165.039l.257,1.3C1539.33,940.788,1539.409,941.034,1539.462,941.025Z" transform="translate(-1479.57 -915.795)"/><path class="a" d="M1516.262,910.263l.129.121-.062-.1Z" transform="translate(-1470.211 -903.478)"/><g transform="translate(18.776 17.839)"><ellipse class="c" cx="8.302" cy="2.076" rx="8.302" ry="2.076" transform="translate(0)"/><path class="c" d="M1486.642,934.607v3.08c0,1.371-3.717,2.482-8.3,2.482s-8.3-1.111-8.3-2.482v-3.08" transform="translate(-1470.037 -932.116)"/><path class="c" d="M1486.642,940.223v3.911c0,1.371-3.717,2.482-8.3,2.482s-8.3-1.111-8.3-2.482v-3.911" transform="translate(-1470.037 -934.411)"/><path class="c" d="M1481.344,952.579a25.992,25.992,0,0,1-3.035.172c-4.569,0-8.273-1.108-8.273-2.474v-4.438" transform="translate(-1470.037 -936.706)"/><line class="c" y2="2.491" transform="translate(16.605 9.963)"/><path class="c" d="M1478.693,959.2l-.384,0c-4.569,0-8.273-1.107-8.273-2.473v-5.27" transform="translate(-1470.037 -939.001)"/><path class="c" d="M1479.194,966.506q-.436.013-.884.014c-4.569,0-8.273-1.107-8.273-2.473v-4.169" transform="translate(-1470.037 -942.443)"/><circle class="c" cx="7.472" cy="7.472" r="7.472" transform="translate(11.623 14.944)"/><path class="c" d="M1498.116,969.328h3.321a1.66,1.66,0,0,0,1.66-1.661h0a1.66,1.66,0,0,0-1.66-1.66h-1.661a1.66,1.66,0,0,1-1.66-1.661h0a1.66,1.66,0,0,1,1.66-1.661h3.321" transform="translate(-1481.511 -943.591)"/><line class="c" y2="1.66" transform="translate(19.095 17.435)"/><line class="c" y2="1.66" transform="translate(19.095 25.737)"/></g></svg>