<svg xmlns="http://www.w3.org/2000/svg" xmlns:xlink="http://www.w3.org/1999/xlink" width="90" height="90" viewBox="0 0 90 90"><defs><style>.a{fill:#8ba4b4;}.b{fill:none;}.c{fill:#fff;}.d{filter:url(#a);}</style><filter id="a" x="0" y="0" width="90" height="90" filterUnits="userSpaceOnUse"><feOffset dy="5" input="SourceAlpha"/><feGaussianBlur stdDeviation="5" result="b"/><feFlood flood-color="#2f353a" flood-opacity="0.102"/><feComposite operator="in" in2="b"/><feComposite in="SourceGraphic"/></filter></defs><g transform="translate(15 10)"><g class="d" transform="matrix(1, 0, 0, 1, -15, -10)"><circle class="a" cx="30" cy="30" r="30" transform="translate(15 10)"/></g><g transform="translate(12 12)"><path class="b" d="M0,0H36V36H0Z"/><path class="c" d="M29.03,8.007h-1.5V20.02a1.506,1.506,0,0,1-1.5,1.5H8.007v1.5a3.012,3.012,0,0,0,3,3H26.026l6.007,6.007V11.01A3.012,3.012,0,0,0,29.03,8.007Zm-4.5,7.508V5a3.012,3.012,0,0,0-3-3H5A3.012,3.012,0,0,0,2,5V24.525l6.007-6.007H21.521A3.012,3.012,0,0,0,24.525,15.515Z" transform="translate(0.984 2.12)"/></g></g></svg>