<svg xmlns="http://www.w3.org/2000/svg" width="60" height="60" viewBox="0 0 60 60"><defs><style>.a{fill:#d8a286;}.a,.b{fill-rule:evenodd;}.b{fill:#deb299;}.c{fill:#fff;}</style></defs><path class="a" d="M895.694,997.59c.29-.141,1.386-.193,1.758-.381C895.658,997.343,895.656,997.273,895.694,997.59Z" transform="translate(-862.752 -938.305)"/><path class="a" d="M840.816,944a7.652,7.652,0,0,0-.017,2.631C840.715,945.861,840.947,944.711,840.816,944Z" transform="translate(-840.135 -915.829)"/><path class="a" d="M889.959,997.779a.58.58,0,0,0,.322.065l.457-.028-.351-.068C890.162,997.723,889.965,997.722,889.959,997.779Z" transform="translate(-860.401 -938.523)"/><path class="a" d="M892.911,997.8l-.166.067.358.044c0-.028.165-.053.1-.076A2.1,2.1,0,0,0,892.911,997.8Z" transform="translate(-861.549 -938.553)"/><path class="a" d="M897.617,895.9l3.142.7,1.2.361a19.621,19.621,0,0,1,2.521.914l-.057-.052,1.208.544c.377.121.826.429,1.2.568.654.373,1.333.7,1.9,1.084a3.609,3.609,0,0,0,.779.454l1.519,1.038c.2.09.524.389.691.464a2.174,2.174,0,1,0-.574-.616l-1.8-1.23a5.607,5.607,0,0,0-1.566-.9l-1.181-.629a17.182,17.182,0,0,0-2.044-.893l-.762-.325a4.756,4.756,0,0,0-1.292-.443l-.481-.155a1.749,1.749,0,0,0-.413-.124l-.381-.1a19.784,19.784,0,0,0-3.6-.881c-.322-.046-.507-.035-.518.031S897.3,895.842,897.617,895.9Zm11.3,4.152.027.019a1.911,1.911,0,0,1,.391.259l-.391-.259a.3.3,0,0,0-.031-.013Z" transform="translate(-863.244 -895.383)"/><path class="a" d="M934.378,977.185l-.013.02c-.016.023-.026.051-.042.073Z" transform="translate(-878.623 -929.836)"/><path class="b" d="M899.979,930.06c0-.017,0-.035,0-.051a9.853,9.853,0,0,0,.183-2.371,1.685,1.685,0,0,0-.07.192,2.455,2.455,0,0,0-.011-.483l-.023-.107.013-.142c.008-.641.015-1.282.023-1.959l-.074-.388a32.359,32.359,0,0,0-1.013-5.553l-.155-.4a47.334,47.334,0,0,0-1.615-4.513l-.226-.321-.174-.419a1.814,1.814,0,0,0-.362-.754,12.313,12.313,0,0,0-1.6-2.664,44.841,44.841,0,0,0-2.984-3.549c-.528-.549-.833-1.117-1.373-1.617-.525-.46-.614-.278-1.364-.887-.807-.6-1.588-1.28-2.461-1.9l-.051.068c-.012-.043-.048-.106.051-.068l-.34-.234-.05.069-1.055-.716-.391-.155-.125-.058-.077-.068c-.3-.235-.734-.376-.892-.576.2,0,.854.378.915.285a5.007,5.007,0,0,0-2.478-.992c-.238-.134-.575-.3-.55-.354.2-.158-.336-.334-1.025-.563-.562-.178-.727-.131-.708.006l-.378-.156a1.489,1.489,0,0,0-.413-.161l.053.044a3.865,3.865,0,0,0-.408-.172c-.483-.169-1.252-.357-.994-.48.206-.084-.109-.224-.674-.393a3.836,3.836,0,0,0-1.427-.283c.564.174,1.222.494,1.009.61-.242-.043-.522-.114-.807-.18a2.8,2.8,0,0,0-.551-.449c-.061-.077-.127-.145-.4-.213a.855.855,0,0,0-.469-.549c.268.019.557.046.844.073a9.158,9.158,0,0,1,2.489.772,5.682,5.682,0,0,0,1.643.5l2.3.956a53.44,53.44,0,0,1,5.4,2.867l-.034-.015c.972.592,1.816,1.461,2.757,2.153a7.822,7.822,0,0,1,1.221,1.079l.441.413c.3.259.606.6.9.911.9,1.09,1.764,2.039,2.52,3.074l-.069-.163.038.058.031.106a6.223,6.223,0,0,0,.75,1l.128.174.1.183a14.524,14.524,0,0,0,1.075,1.889,3.447,3.447,0,0,1,.2.34c.2.451.424.9.619,1.242.041.1.048.1.068.091.034.026.033-.013.011-.123a10.374,10.374,0,0,0-1.53-3.355l-.685-1.058a18.472,18.472,0,0,0-4.9-5.585,3.047,3.047,0,0,0-.666-.546,3.12,3.12,0,0,0-.684-.471l-.642-.51-1.037-.873a20.234,20.234,0,0,0-5.037-3.028c-.808-.373-1.7-.638-2.555-1.079-.63-.347-1.464-.677-1.191-.267.041.09-.5-.068-.844-.172-.647-.181-1.385-.44-2.084-.582a.948.948,0,0,1-.276-.065,1.268,1.268,0,0,0-.484-.1.984.984,0,0,1-.314-.063,18.9,18.9,0,0,0-1.837-.489,4.668,4.668,0,0,0-.8-.165c-.038-.074-.152-.136-.48-.173a3.205,3.205,0,0,0-.447-.066l-.108.018-.038,0,.146-.021c-.074-.065-.224-.105-.6-.106l-.039-.011v.007c-.037-.047-.187-.061-.45-.065a.838.838,0,0,1-.3.016c-.691.052-1.384.149-2.074.268a6.218,6.218,0,0,0-1.19.034,31.928,31.928,0,0,0-4.939.7l0,.014,0,.014-.007-.028a13.022,13.022,0,0,0-2.5.582,4.371,4.371,0,0,0-1.25.322,5.2,5.2,0,0,0-.965.282c-.44.158-.262.209-.519.334a1.392,1.392,0,0,0-.425.276c-.115.089-.669.331-.527.383.062.047.183.056.461-.011.118.082.446.041.923-.088l.09-.054,0,.006a.326.326,0,0,0-.093.048l1,.168c.043.111.179.179.614.091-.236.143-.466.289-.682.445a6.512,6.512,0,0,0-1.843,1.112,18.338,18.338,0,0,0-2.558,1.92l.056-.044c-.4.422-1.069.809-1.351,1.2l0-.006a8.042,8.042,0,0,0-.673.653l-.061.091-.111.091-1.179,1.13a6.639,6.639,0,0,0-1.444,1.421c-.539.717-1.583,1.842-2.172,2.746a15.228,15.228,0,0,0-1.836,2.9l.049-.042c-.024.057-.03.053-.03.053l-.019-.011a27.37,27.37,0,0,0-1.629,3.227,10.6,10.6,0,0,0-.815,2.192c-.061.191-.123.382-.179.575a19.136,19.136,0,0,0-1.116,4.682,7,7,0,0,0-.051,2.3.386.386,0,0,1-.016.251,2.42,2.42,0,0,0-.092.758,8.351,8.351,0,0,0,.057,2.367l.024.028,0,0h0v0c-.006,0-.016,0-.024-.028A3.476,3.476,0,0,0,841,929.84h.007a9.5,9.5,0,0,0,.133,1.234.575.575,0,0,1,.035.252,2.127,2.127,0,0,0,.079.8,3.481,3.481,0,0,0,.427,1.4h0a3.6,3.6,0,0,0,.343,1.021l.394,1.266a16.793,16.793,0,0,0,.822,2.057l.312.761a4.707,4.707,0,0,0,.6,1.215l.233.445a1.715,1.715,0,0,0,.206.377l.2.34a19.53,19.53,0,0,0,1.939,3.137c.2.258.337.379.392.34s-.037-.236-.223-.5l-1.745-2.687-.6-1.091a19.3,19.3,0,0,1-1.146-2.4l0,.076-.474-1.227c-.183-.349-.283-.878-.448-1.235-.054-.195-.112-.388-.17-.58.019.034.034.07.056.1l-.007,0,.127.224c-.019-.091-.032-.152-.05-.237,0,.006,0,.013,0,.018v-.031l0,.012a2.071,2.071,0,0,0-.026-.338,2.667,2.667,0,0,0-.135-.78l-.018.005-.007,0,.024-.007a1.188,1.188,0,0,0-.02-.259,24.163,24.163,0,0,0,.874,2.667c.3.825.744,1.632,1.029,2.536.2.682.547,1.494.649,1.015.037-.092.308.4.473.707.327.577.663,1.272,1.054,1.857a.931.931,0,0,1,.148.237,1.216,1.216,0,0,0,.27.407.927.927,0,0,1,.176.263,12.981,12.981,0,0,0,3.529,4.462,5.879,5.879,0,0,1,.616.631,4.973,4.973,0,0,0,1.118,1.134A31.275,31.275,0,0,0,856.2,952.4l.008-.012.008-.011-.015.024a12.825,12.825,0,0,0,2.187,1.324,4.332,4.332,0,0,0,1.117.64,5.161,5.161,0,0,0,.886.469c.424.194.337.035.608.125a1.417,1.417,0,0,0,.5.1c.146.017.712.229.649.095-.01-.077-.089-.167-.334-.313-.024-.139-.286-.337-.716-.578l-.1-.024,0-.007a.341.341,0,0,0,.1.031l-.588-.815c.058-.129-.014-.3-.606-.632-.056-.115-.177-.252-.228-.38.428.2.9.38,1.315.523.445.15.707.136.74.055.108-.092-.391-.271-.689-.42-.358-.174-.632-.37-.653-.475-.041-.14.476.074.737.131a29.787,29.787,0,0,0,3.069.927,5.393,5.393,0,0,0,1.5.329l-.029-.021.033.007,0,.014a10.716,10.716,0,0,0,2.017.348.868.868,0,0,1-.153-.064l.032.007.121.057a7.765,7.765,0,0,0,1.94.162l-.064-.021.065.008v.014a13.331,13.331,0,0,0,3.231.109c.9-.133,2.446-.2,3.515-.435a15.727,15.727,0,0,0,3.391-.779l-.065,0c.058-.023.059-.016.059-.016l.005.02a27.51,27.51,0,0,0,6.174-2.418,20.679,20.679,0,0,0,3.692-2.183l0,0c.046.05.167.025.4-.145l.116-.139,0,.005-.121.133a1.1,1.1,0,0,0,.4-.082,6.237,6.237,0,0,1-.9.658l.026-.02c-.316.173-.751.505-1.056.628-.7.23-1.417.892-2.184,1.238l-.638.307c-.431.139-.965.511-1.433.641l-.6.239a10.968,10.968,0,0,1-2.364.885l-.118.049-.093.023c-2.425.581-4.192,1.209-6.063,1.638a31.115,31.115,0,0,0,10.189-2.927l.7-.347a6.273,6.273,0,0,0,1.816-.942l.97-.6c.324-.159.712-.452,1.025-.634a2.294,2.294,0,0,1,.294-.2,5,5,0,0,0,1.014-.717l.317-.237c.137-.087.32-.18.423-.26l.449-.432a1.331,1.331,0,0,0,.428-.322l.036-.019-.005,0c.06.007.175-.087.366-.267a.8.8,0,0,1,.2-.217,28.674,28.674,0,0,0,2.631-3.669,11.881,11.881,0,0,0,.8-1.387,3.878,3.878,0,0,0,.55-.924c.1-.133.2-.259.3-.38a23.711,23.711,0,0,0,1.522-4.691,6.269,6.269,0,0,0,.5-2.065,17.735,17.735,0,0,0,.425-3.132Zm-5.717-22.014-.018.012s.009-.006,0-.039ZM857.046,897.84c-.008-.02-.053-.032.045-.082.028-.027.1-.039.128-.062C857.133,897.764,857.037,897.818,857.046,897.84Zm3.7,56.72c-.008.02.014.06-.091.027-.039,0-.1-.041-.135-.046C860.627,954.553,860.733,954.582,860.743,954.56Zm37.393-29.778h-.014v-.065Zm-.187,3.958a7.914,7.914,0,0,0-.009-1.831A6.54,6.54,0,0,1,897.95,928.74Zm.049-11.95c-.031-.028-.1-.19-.132-.212-.017-.07-.041-.17-.058-.238C897.877,916.5,897.959,916.695,898,916.791Zm-.244,3.64.014,0c-.008.036-.02.14-.047.079A.492.492,0,0,0,897.755,920.43Zm-.576,5.968h.007l-.008.033Zm-.675-2.252c.008.126.049.188.032.282-.018.253-.064-.026-.1-.152C896.466,924.275,896.5,924.273,896.5,924.147Zm-.4,4.441.021,0-.014.063C896.1,928.681,896.105,928.588,896.105,928.588ZM889.977,944.1c.048-.087.1-.177.149-.266a11.028,11.028,0,0,1,1.008-2.069,10.19,10.19,0,0,1-1.008,2.069.64.64,0,0,0-.021.118Zm-37.729-.435c-.032-.019-.078-.069-.108-.081l-.005,0-.018-.022-.068-.065,0,0a.483.483,0,0,1,.065.068l.024.017.057.035C852.215,943.641,852.231,943.652,852.249,943.669Zm-5.16-1.5-.038-.048c.055.035.078.018.063-.047l-.016-.027c.008.007.014.016.023.023-.274-.514-.508-1.2-.274-1.131.274.387.57.953.909,1.34l.5.72c.268.641.318.766.184.959-.164-.282-.406-.561-.657-.906a4.284,4.284,0,0,0-.669-.978C847.128,942.137,847.111,942.15,847.089,942.167Zm.815-9.373.024-.006v.061Zm-.388,1.727a.193.193,0,0,0-.114-.061.837.837,0,0,1-.148.4c.034-.165.027-.416.148-.4a1.85,1.85,0,0,0,.036-.352C847.489,934.28,847.454,934.351,847.516,934.521Zm-.942,5.086-.03-.057a2.593,2.593,0,0,0,.307.439l-.022.012Zm-.461-2.727-.118-.2c-.021-.059-.043-.122-.054-.153Zm-.918-3.741c-.025.006-.067-.051-.111-.139l-.013-.064C845.107,933.029,845.163,933.148,845.2,933.14Zm-2.67-2.4a.533.533,0,0,1-.045-.115h.007A.306.306,0,0,0,842.525,930.745Zm.766,2.762c-.055.017-.024.2.04.432a1.364,1.364,0,0,1-.154-.461C843.186,933.38,843.246,933.456,843.291,933.507ZM844.7,931.9a1.755,1.755,0,0,1-.2-.587A4.479,4.479,0,0,0,844.7,931.9Zm.214,1.539c-.019-.2-.041-.353.029-.37C844.885,933.081,844.893,933.241,844.912,933.438Zm-2.781-9.06,0,.058h-.014v-.028l0-.031Zm-.178,1.174v.028c0,.01,0,.021-.007.032l-.052.424-.008.123V926.1l.007-.061a2.376,2.376,0,0,1,.052-.424Zm-.493,4.59a.081.081,0,0,0,.074-.035c.01.1.016.156.025.248a1.211,1.211,0,0,0-.1-.213c-.077-.009-.162-.139-.244-.271A.777.777,0,0,1,841.46,930.141Zm3.816,7.854.155.372a1.433,1.433,0,0,0,.175.4l-.006-.069a3.86,3.86,0,0,0,.165.405c.22.454.628,1.12.357,1.029-.075-.031-.106-.007-.1.06l-.238-.462-.007,0c0-.217-.308-.6-.453-.94a3.652,3.652,0,0,0-.269-.849C845.156,938.054,845.227,938.058,845.276,937.995Zm7.5-32.367.009-.013h0Zm19.922-6.029-.006.038c0,.031-.159.007-.162.028C872.531,899.634,872.689,899.634,872.694,899.6Zm-1.949-.26c-.064-.006,0,0-.032-.006h-.157l.064-.008a3.109,3.109,0,0,1,.536-.026C871.062,899.324,870.812,899.306,870.746,899.339Zm.414.285v0a.467.467,0,0,1-.095,0l-.029,0-.065.015c-.026,0-.045,0-.07,0,.036-.009.105-.006.135-.018v-.007l.029,0Zm20.98,37a.381.381,0,0,1,.088-.155l.016.008C892.213,936.531,892.13,936.718,892.14,936.626Zm.067.2-.025.045.006-.055c-.009.009-.018.021-.027.031s0-.013,0-.018.022-.013.036-.033l-.011.021Zm3.019-8.45c-.012.089-.017.12-.032.239a.326.326,0,0,0-.027-.155C895.19,928.374,895.208,928.407,895.226,928.378Zm-.574-14.523.017.036-.015-.03,0-.006-.039-.081a.907.907,0,0,1-.021-.1A.706.706,0,0,0,894.652,913.854Zm-.131-2.833.014.022-.014-.022,0,0-.019-.029Zm-.408-.358-.012.008-.019-.029C894.107,910.667,894.112,910.664,894.112,910.664Zm-8.83-7.654a4.577,4.577,0,0,0-.561-.279A1.8,1.8,0,0,1,885.283,903.01Zm-1.765-.818a.441.441,0,0,1,.135.028l.055.036A.8.8,0,0,0,883.518,902.192Zm.189-.12c.031-.048-.091-.156-.246-.282C883.615,901.916,883.744,902.012,883.706,902.072Zm-3.352-1.826.148.07-.372-.126Zm-2.979-1.767.463.1.063.019a2.712,2.712,0,0,0-.533-.1Zm-5.583-3.031c-.029.007-.046.016-.1.026v-.01Zm-5,.162.07.005-.284.013Zm-20.112,14.265c0,.027,0,.071,0,.109l0,0A.2.2,0,0,1,846.683,909.876Zm-.041.169-.005.009c-.035.015-.076.037-.114.053C846.568,910.08,846.605,910.066,846.642,910.046Zm-5.536,17.741c-.013.04-.025.082-.055.047l-.006-.064C841.077,927.838,841.092,927.818,841.106,927.787Zm.692,5.373,0,.009h0Zm3.075,5.9-.235-.572c.033.044.064.091.1.135a2.542,2.542,0,0,0,.217.552C844.925,939.138,844.9,939.1,844.872,939.06Zm2,3.768a8.82,8.82,0,0,1-1.2-2.273c-.031-.094-.07-.191-.109-.286a2.568,2.568,0,0,1,.223.411,4.327,4.327,0,0,0,.46.785,1.655,1.655,0,0,0,.141.132,17.407,17.407,0,0,0,1.986,2.448l-.057.067C848.085,944.281,847.464,943.532,846.876,942.829Zm1.75-5.569c.158-.007.2-.216.127-.594h0c.048.234.095.466.136.669C848.994,937.745,848.766,937.426,848.626,937.26Zm.347,5.179c.034.018-.04-.13.051-.033s.019.067.062.155Zm1.973.019.032-.023c.026-.019.118.1.135.092C851.086,942.546,850.974,942.437,850.946,942.458Zm.87,1.279c.086.048.25.233.321.256.04.049,0,0,.018.027l.11.109-.052-.039A2.972,2.972,0,0,1,851.815,943.737Zm.428,5.634-.045-.052.21.188Zm1.174-.495c0-.008-.01-.023-.007-.031-.2-.217-.316-.4-.506-.613l-.061-.036s.034.014.007-.007l.054.044c.469.367.533.512.506.613.038.042.06.078.108.123Zm2.106-3.464.235.088c-.044,0,.011.073.02.108A2.43,2.43,0,0,1,855.523,945.413Zm1.528,3.377.008-.011.021.027C857.054,948.787,857.052,948.79,857.052,948.79Zm3.139.238a1.208,1.208,0,0,0,.267.072C860.367,949.075,860.346,949.112,860.19,949.028Zm1.534.8c.028.012.03.009.03.009v0l-.028-.012c-.021-.005-.033,0-.053-.007a1.037,1.037,0,0,1-.644-.1,1.6,1.6,0,0,1-.395-.157c-.017-.009-.025,0-.043-.015l-.192-.086.235.1c.134.058.268.111.395.157.222.055.408.047.644.1.008,0,.022,0,.028,0s-.007-.011,0-.013l-.247-.27-.038-.026.025.011c-.013-.018-.05-.046-.067-.066a6.374,6.374,0,0,1-.793-.58l-.007.013-.653-.4.58.345.08.043a2.655,2.655,0,0,1,.793.58c.046.029.075.061.123.09l-.056-.024.014.015c.2.125.4.247.247.27Zm.76.126-.327-.139c.111.04.243.111.389.15Zm1.688,2.155,0-.01v0Zm1.61-.748c.036-.015-.079-.05-.073-.071a.619.619,0,0,0,.161.1Zm2.225.51,0-.01.058.023Zm1.46.2a4.319,4.319,0,0,0-.486-.213l.57.032C869.664,951.953,869.747,952.019,869.467,952.072Zm2.32-1.805a.8.8,0,0,0,.224.06.164.164,0,0,0,.082.03v.007a.212.212,0,0,1-.081-.037l-.278-.054C871.787,950.273,871.787,950.266,871.787,950.266Zm.3.438h.029a.812.812,0,0,1-.2.059A1.083,1.083,0,0,0,872.085,950.7Zm4.771,2.434-.016.015a.212.212,0,0,1-.1.087l.1-.087a.082.082,0,0,0,.011-.049c.006.038.1.057.174.084A1.264,1.264,0,0,0,876.855,953.138Zm2.5-2.865c-.115.035-.264.1-.281.04-.054.015-.005-.021-.089,0A.127.127,0,0,0,879,950.3l.066-.025.011.042.175-.02.106-.02c.02-.006.044-.016.06-.019l0,.006Zm5.779-2.6c-.389.182-.735.32-.869.251-.192-.057.2-.276.533-.486.142-.092.322-.224.215-.242-.23.047-.546.282-.716.263.289-.222.666-.345.972-.587-.073.018-.119.024-.142.011l-.037.012.023-.015s.011,0,.014,0c.066-.021.126-.036.142-.011a.589.589,0,0,1,.19-.114c.4-.15.815-.527,1.236-.7a6.117,6.117,0,0,0,1.515-1.167l.025-.015.042-.038-.022.018c.351-.481-.115-.09-.4.123l-.128.1-.075.042c-.235.059-.64.432-.876.481a26.4,26.4,0,0,0,2.879-2.472c.059-.059.125-.121.192-.183a.165.165,0,0,0-.018.036c-.059.113.044.036.121-.063a1.435,1.435,0,0,0,.111-.15l-.016-.01a.872.872,0,0,0,.3-.438,1.267,1.267,0,0,1,.224-.5c.23-.11.57-.439.722-.406-.134.213-.191.331-.18.414a10.467,10.467,0,0,0-.892,1.472,8.088,8.088,0,0,1-.786,1.312c-.238.263-.456.522-.663.778-.058.04-.115.083-.173.122A33.147,33.147,0,0,1,885.135,947.672Zm1.278-.23.126-.073a.538.538,0,0,0,.116-.053.589.589,0,0,1,.15-.069.7.7,0,0,0-.15.069A1.84,1.84,0,0,1,886.413,947.442Z" transform="translate(-840.179 -895.199)"/><path class="a" d="M852.939,914.714c-.1.3-.843,1.116-.974,1.512C853.14,914.863,853.19,914.912,852.939,914.714Z" transform="translate(-844.834 -903.446)"/><path class="a" d="M840.423,931.406c.1-.345.165-.887.292-1.189.325-.654.356-1.63.646-2.415l.228-.666c.2-.4.311-1.042.547-1.462l.247-.589a10.716,10.716,0,0,1,1.025-2.289l.048-.118.049-.081c.751-1.235,1.331-2.321,1.884-3.336l.474-.708c.148-.25.265-.477.221-.507,0-.008-.006-.009-.01-.012.166-.288.334-.573.509-.856a30.015,30.015,0,0,0-4.661,8.176c-.022-.1-.124.092-.2.327-.183.574-.412,1.158-.554,1.722a7.452,7.452,0,0,0-.475,1.688l-.253,1.107c-.114.341-.176.821-.266,1.171a2.208,2.208,0,0,1-.06.352,4.966,4.966,0,0,0-.2,1.223l-.053.391c-.034.158-.1.352-.111.482,0,.492-.009.947-.013,1.439a.4.4,0,0,0,.021.1c.021.034.035.033.057-.063a1.5,1.5,0,0,0,.1-.393H839.9c.065-.225.054-.581.1-.871a2,2,0,0,1,.017-.291,2.757,2.757,0,0,0,.156-.832,2.913,2.913,0,0,1-.088.288l-.039.125,0-.033c.013-.026.024-.06.036-.092.031-.1.06-.2.088-.288.141-.374.1-1.094.25-1.53Z" transform="translate(-839.738 -904.539)"/><path class="a" d="M929.145,912.715a7.657,7.657,0,0,0-1.849-1.872C927.9,911.329,928.552,912.306,929.145,912.715Z" transform="translate(-875.694 -901.719)"/><path class="a" d="M935.283,920.795l.619,1.167a5.312,5.312,0,0,0,.3.5c.179.2.11-.052-.023-.314a11.064,11.064,0,0,0-1.275-2.24l-.2-.306c-.169-.242-.348-.481-.408-.443-.086-.03.071.216.19.4C934.764,920,935.027,920.478,935.283,920.795Z" transform="translate(-878.602 -905.33)"/><path class="a" d="M857.317,910.69a.576.576,0,0,0-.273.181l-.3.343.3-.2C857.213,910.873,857.354,910.734,857.317,910.69Z" transform="translate(-846.824 -901.655)"/><path class="a" d="M855.386,912.75l.07-.165-.285.223c.02.02-.079.154-.016.124A2.123,2.123,0,0,0,855.386,912.75Z" transform="translate(-846.154 -902.445)"/><path class="a" d="M937.292,972.365c-.067.088-.083-.083-.2.268-.023.072-.026.152-.009.16a2.589,2.589,0,0,0,.219-.3C937.362,972.357,937.381,972.245,937.292,972.365Z" transform="translate(-879.767 -927.781)"/><path class="a" d="M941.186,937.406c.091.06,0-.33-.031-.548l-.262-1.287c-.107-.235-.169-.219-.162.039l.253,1.281C941.055,937.172,941.133,937.416,941.186,937.406Z" transform="translate(-881.293 -912.193)"/><path class="a" d="M917.993,906.672l.127.119-.062-.1Z" transform="translate(-871.94 -899.98)"/><path class="c" d="M897.787,939.286A8.1,8.1,0,0,0,896.559,937a8.224,8.224,0,0,0-4.182-2.907,8.783,8.783,0,0,0-2.539-.329,8.031,8.031,0,0,0-2.5.471,7.939,7.939,0,0,0-2.854,1.775l-1.339-1.339v3.789h3.789l-1.466-1.466a6.521,6.521,0,0,1,4.393-1.658,7.185,7.185,0,0,1,2.027.332,6.5,6.5,0,0,1,3.22,2.4,6.248,6.248,0,0,1,.891,1.806,6.285,6.285,0,0,1-.072,3.944,6.179,6.179,0,0,1-.942,1.737,6.257,6.257,0,0,1-3.185,2.2,6.831,6.831,0,0,1-1.927.242,6.08,6.08,0,0,1-4.862-2.687l-.174-.254c-.011-.018-.021-.037-.034-.055l-3.141-4.6-2.344-3.434c-.007-.01-.013-.022-.02-.031a8.608,8.608,0,0,0-4.308-3.15,8.468,8.468,0,0,0-2.651-.417,9.153,9.153,0,0,0-2.638.423,8.46,8.46,0,0,0-4.211,3.114,8.222,8.222,0,0,0-1.174,2.356,8.242,8.242,0,0,0,.074,5.161,8.117,8.117,0,0,0,1.225,2.288,8.215,8.215,0,0,0,4.175,2.9,8.776,8.776,0,0,0,2.535.331,8.036,8.036,0,0,0,2.5-.469,7.955,7.955,0,0,0,3.021-1.939l1.34,1.34V945.09h-3.789l1.492,1.493A6.539,6.539,0,0,1,872.3,948.4a7.162,7.162,0,0,1-2.03-.337,6.5,6.5,0,0,1-3.222-2.411,6.3,6.3,0,0,1-.89-1.81,6.294,6.294,0,0,1,.079-3.949,6.146,6.146,0,0,1,.945-1.738,6.264,6.264,0,0,1,3.191-2.2,6.815,6.815,0,0,1,1.929-.239,6.073,6.073,0,0,1,4.831,2.656c.007.011.013.022.02.033l2.377,3.478,3.337,4.889,0,0,0,.007a8.616,8.616,0,0,0,4.311,3.148,8.47,8.47,0,0,0,2.652.415,9.137,9.137,0,0,0,2.638-.425,8.46,8.46,0,0,0,4.212-3.117,8.274,8.274,0,0,0,1.173-2.359,8.25,8.25,0,0,0-.077-5.166Z" transform="translate(-849.522 -911.41)"/></svg>