<svg xmlns="http://www.w3.org/2000/svg" xmlns:xlink="http://www.w3.org/1999/xlink" width="32" height="32" viewBox="0 0 32 32"><defs><style>.a{fill:url(#a);}.b{fill:#fff;}</style><linearGradient id="a" x1="0.146" y1="0.147" x2="0.854" y2="0.859" gradientUnits="objectBoundingBox"><stop offset="0" stop-color="#0d76be"/><stop offset="0.243" stop-color="#0f6db6"/><stop offset="0.636" stop-color="#1455a3"/><stop offset="1" stop-color="#1b398d"/></linearGradient></defs><g transform="translate(-1107.513 -820.691)"><path class="a" d="M1139.513,836.691a16,16,0,1,0-18.5,15.805v-11.18h-4.063v-4.625h4.063v-3.524c0-4.01,2.389-6.225,6.044-6.225a24.6,24.6,0,0,1,3.581.313v3.937h-2.017a2.313,2.313,0,0,0-2.607,2.5v3h4.437l-.709,4.625h-3.728V852.5A16,16,0,0,0,1139.513,836.691Z"/><path class="b" d="M1134.546,844.523l.712-4.645H1130.8v-3.014a2.322,2.322,0,0,1,2.618-2.509h2.026V830.4a24.7,24.7,0,0,0-3.6-.314c-3.67,0-6.069,2.225-6.069,6.252v3.539h-4.08v4.645h4.08v11.227a16.254,16.254,0,0,0,5.021,0V844.523Z" transform="translate(-4.781 -3.255)"/></g></svg>