<svg xmlns="http://www.w3.org/2000/svg" xmlns:xlink="http://www.w3.org/1999/xlink" width="30" height="30" viewBox="0 0 30 30"><defs><style>.a{fill:url(#a);}.b{fill:#fff;}</style><linearGradient id="a" x1="0.854" y1="0.146" x2="0.146" y2="0.854" gradientUnits="objectBoundingBox"><stop offset="0.001" stop-color="#fbe18a"/><stop offset="0.209" stop-color="#fcbb45"/><stop offset="0.376" stop-color="#f75274"/><stop offset="0.524" stop-color="#d53692"/><stop offset="0.739" stop-color="#8f39ce"/><stop offset="1" stop-color="#5b4fe9"/></linearGradient></defs><g transform="translate(-993.305 -965.049)"><circle class="a" cx="15" cy="15" r="15" transform="translate(993.305 965.049)"/><g transform="translate(999.305 971.049)"><path class="b" d="M1028.293,982.051a1.031,1.031,0,1,0,1.031,1.031A1.031,1.031,0,0,0,1028.293,982.051Z" transform="translate(-1014.513 -978.828)"/><path class="b" d="M1017.219,984.462a4.332,4.332,0,1,0,4.332,4.331A4.337,4.337,0,0,0,1017.219,984.462Zm0,7.106a2.775,2.775,0,1,1,2.774-2.775A2.778,2.778,0,0,1,1017.219,991.568Z" transform="translate(-1008.143 -979.794)"/><path class="b" d="M1017.213,994.326h-7.186a5.413,5.413,0,0,1-5.406-5.407v-7.187a5.413,5.413,0,0,1,5.406-5.406h7.186a5.413,5.413,0,0,1,5.407,5.406v7.187A5.413,5.413,0,0,1,1017.213,994.326Zm-7.186-16.307a3.717,3.717,0,0,0-3.713,3.713v7.187a3.717,3.717,0,0,0,3.713,3.714h7.186a3.717,3.717,0,0,0,3.714-3.714v-7.187a3.717,3.717,0,0,0-3.714-3.713Z" transform="translate(-1004.62 -976.326)"/></g></g></svg>