<svg xmlns="http://www.w3.org/2000/svg" width="66" height="40" viewBox="0 0 66 40"><defs><style>.a{fill:#56bafb;}</style></defs><g transform="translate(-1011.223 -2050.875)"><g transform="translate(1033.356 2050.875)"><path class="a" d="M1038.4,2074.882a13.368,13.368,0,0,1-4.311-9.36h0a13.461,13.461,0,0,1,12.93-13.977l16.939-.66a13.465,13.465,0,0,1,1.047,26.909l-16.938.658A13.371,13.371,0,0,1,1038.4,2074.882Zm32.57-17.557a9.521,9.521,0,0,0-6.86-2.538l-16.939.659a9.559,9.559,0,0,0-9.181,9.925h0a9.559,9.559,0,0,0,9.925,9.182l16.937-.658a9.555,9.555,0,0,0,6.117-16.569Z" transform="translate(-1034.076 -2050.875)"/></g><g transform="translate(1011.223 2063.287)"><path class="a" d="M1015.549,2087.586a13.417,13.417,0,0,1-4.315-9.355h0a13.464,13.464,0,0,1,12.932-13.979l16.937-.658a13.464,13.464,0,1,1,1.048,26.907l-16.939.66A13.421,13.421,0,0,1,1015.549,2087.586Zm-.415-9.507a9.575,9.575,0,0,0,9.925,9.181L1042,2086.6a9.56,9.56,0,0,0-.744-19.106l-16.938.658a9.563,9.563,0,0,0-9.183,9.926Z" transform="translate(-1011.223 -2063.584)"/></g></g></svg>