<svg xmlns="http://www.w3.org/2000/svg" width="48.765" height="40" viewBox="0 0 48.765 40"><defs><style>.a{fill:none;}.b{fill:#231f20;}.c{fill:#ff5f00;}.d{fill:#eb001b;}.e{fill:#f79e1b;}</style></defs><rect class="a" width="48.765" height="40" transform="translate(0)"/><g transform="translate(4.952 4.952)"><path class="b" d="M348.85,342.031v-1.96a1.148,1.148,0,0,0-.341-.9,1.2,1.2,0,0,0-.915-.343,1.245,1.245,0,0,0-1.122.555,1.18,1.18,0,0,0-1.055-.555,1.064,1.064,0,0,0-.935.464v-.385h-.695v3.123h.7V340.3a.72.72,0,0,1,.19-.6.755.755,0,0,1,.591-.234c.461,0,.695.294.695.823v1.738h.7V340.3a.726.726,0,0,1,.193-.593.761.761,0,0,1,.589-.237c.474,0,.7.294.7.823v1.738Zm10.381-3.123h-1.136v-.947h-.7v.947h-.648v.621h.648v1.424c0,.725.287,1.157,1.109,1.157a1.659,1.659,0,0,0,.868-.242l-.2-.582a1.3,1.3,0,0,1-.615.176c-.347,0-.461-.209-.461-.523v-1.411h1.136Zm5.925-.078a.946.946,0,0,0-.842.457v-.379h-.688v3.123h.695V340.28c0-.516.227-.8.681-.8a1.154,1.154,0,0,1,.434.078l.214-.64A1.515,1.515,0,0,0,365.156,338.829Zm-8.958.327a2.43,2.43,0,0,0-1.3-.327c-.808,0-1.329.379-1.329,1,0,.51.388.823,1.1.921l.327.046c.381.052.561.15.561.327,0,.242-.254.379-.728.379a1.727,1.727,0,0,1-1.062-.327l-.327.529a2.341,2.341,0,0,0,1.383.405c.922,0,1.456-.425,1.456-1.019,0-.549-.421-.836-1.116-.934l-.327-.046c-.3-.039-.541-.1-.541-.307,0-.229.227-.366.608-.366a2.094,2.094,0,0,1,1,.268Zm18.611-.327a.946.946,0,0,0-.842.457v-.379h-.688v3.123h.695V340.28c0-.516.227-.8.681-.8a1.154,1.154,0,0,1,.434.078l.214-.64A1.515,1.515,0,0,0,374.809,338.829Zm-8.951,1.64a1.56,1.56,0,0,0,.48,1.189,1.634,1.634,0,0,0,1.223.451,1.7,1.7,0,0,0,1.149-.372l-.334-.549a1.424,1.424,0,0,1-.835.281,1,1,0,0,1,0-2,1.424,1.424,0,0,1,.835.281l.334-.549a1.7,1.7,0,0,0-1.149-.372,1.634,1.634,0,0,0-1.223.451,1.56,1.56,0,0,0-.48,1.189Zm6.506,0v-1.562h-.695v.379a1.222,1.222,0,0,0-1.009-.457,1.641,1.641,0,0,0,0,3.28,1.222,1.222,0,0,0,1.009-.457v.379h.695Zm-2.585,0a.946.946,0,1,1,.26.707A.925.925,0,0,1,369.778,340.469Zm-8.383-1.64a1.64,1.64,0,0,0,.047,3.28,1.968,1.968,0,0,0,1.309-.438l-.341-.5a1.542,1.542,0,0,1-.929.327.882.882,0,0,1-.955-.765H362.9c.007-.085.013-.17.013-.261a1.511,1.511,0,0,0-1.516-1.64Zm-.013.608a.785.785,0,0,1,.808.758h-1.657A.815.815,0,0,1,361.381,339.437Zm17.428,1.032v-2.816h-.695v1.633a1.222,1.222,0,0,0-1.009-.457,1.641,1.641,0,0,0,0,3.28,1.222,1.222,0,0,0,1.009-.457v.379h.695Zm1.158,1.109a.329.329,0,0,1,.228.091.312.312,0,0,1,.069.1.3.3,0,0,1,0,.241.315.315,0,0,1-.069.1.335.335,0,0,1-.1.067.32.32,0,0,1-.126.025.324.324,0,0,1-.3-.19.3.3,0,0,1,0-.241.315.315,0,0,1,.172-.165.334.334,0,0,1,.128-.024Zm0,.552a.241.241,0,0,0,.1-.019.252.252,0,0,0,.078-.052.24.24,0,0,0,0-.342.245.245,0,0,0-.173-.07.256.256,0,0,0-.1.019.245.245,0,0,0-.079.051.24.24,0,0,0,0,.342.253.253,0,0,0,.176.071Zm.019-.387a.137.137,0,0,1,.088.025.082.082,0,0,1,.031.067.078.078,0,0,1-.025.059.118.118,0,0,1-.07.029l.1.109h-.075l-.09-.108h-.029v.108h-.063v-.288Zm-.073.054v.077h.072a.072.072,0,0,0,.04-.01.032.032,0,0,0,.015-.029.032.032,0,0,0-.015-.029.073.073,0,0,0-.04-.009Zm-3.689-1.328a.946.946,0,1,1,.26.707A.925.925,0,0,1,376.225,340.469Zm-23.461,0v-1.562h-.695v.379a1.222,1.222,0,0,0-1.009-.457,1.641,1.641,0,0,0,0,3.28,1.222,1.222,0,0,0,1.009-.457v.379h.695Zm-2.585,0a.946.946,0,1,1,.26.708.925.925,0,0,1-.261-.707Z" transform="translate(-341.815 -311.935)"/><rect class="c" width="10.293" height="19.15" transform="translate(14.285 2.515)"/><path class="d" d="M352.292,273.039a12.2,12.2,0,0,1,4.493-9.506,11.535,11.535,0,0,0-15.911,1.3,12.338,12.338,0,0,0,0,16.405,11.535,11.535,0,0,0,15.911,1.3,12.2,12.2,0,0,1-4.493-9.505Z" transform="translate(-337.753 -260.949)"/><path class="e" d="M415.032,273.04a12.124,12.124,0,0,1-6.622,10.874A11.5,11.5,0,0,1,396,282.545a12.3,12.3,0,0,0,0-19.011,11.5,11.5,0,0,1,12.41-1.369,12.124,12.124,0,0,1,6.622,10.874Z" transform="translate(-376.17 -260.949)"/><path class="e" d="M450.323,318.316v-.379h.153v-.077h-.389v.077h.153v.379Zm.755,0v-.457h-.119l-.137.314-.137-.314h-.119v.457h.084v-.344l.129.3h.087l.129-.3v.345Z" transform="translate(-412.584 -298.737)"/></g></svg>