<svg xmlns="http://www.w3.org/2000/svg" xmlns:xlink="http://www.w3.org/1999/xlink" width="55.703" height="18" viewBox="0 0 55.703 18"><defs><style>.a{fill:url(#a);}.b{fill:url(#b);}.c{fill:url(#c);}.d{fill:url(#d);}</style><linearGradient id="a" x1="-2.251" y1="0.518" x2="0.982" y2="0.498" gradientUnits="objectBoundingBox"><stop offset="0" stop-color="#121e4e"/><stop offset="1" stop-color="#1b338a"/></linearGradient><linearGradient id="b" x1="-1.738" y1="0.511" x2="2.08" y2="0.492" xlink:href="#a"/><linearGradient id="c" x1="0.147" y1="0.502" x2="2.623" y2="0.482" xlink:href="#a"/><linearGradient id="d" x1="-1.967" y1="0.508" x2="4.38" y2="0.488" xlink:href="#a"/></defs><path class="a" d="M449.027,38.492h-4.2c-.154-.737-.318-1.459-.448-2.186-.054-.3-.151-.419-.488-.415-1.682.022-3.365.016-5.048,0a.38.38,0,0,0-.433.314c-.232.693-.485,1.379-.745,2.063-.035.093-.152.22-.232.221-1.517.013-3.033.01-4.594.01.284-.684.554-1.338.827-1.99q2.933-6.994,5.868-13.988a2.066,2.066,0,0,1,2.151-1.433h3.684c.122.568.244,1.129.362,1.69q1.444,6.912,2.887,13.823c.124.59.269,1.176.4,1.763Zm-5.492-6.183-1.329-6.37-.054-.011-2.315,6.381Z" transform="translate(-393.324 -20.782)"/><path class="b" d="M320.7,18.077c.554.1,1.112.187,1.66.314.5.115.99.276,1.522.427l-.786,3.671c-.7-.206-1.372-.442-2.061-.594a5.85,5.85,0,0,0-2.852-.025,2.892,2.892,0,0,0-1.073.57.978.978,0,0,0-.03,1.547,6.688,6.688,0,0,0,1.149.827c.918.552,1.882,1.031,2.774,1.621a4.106,4.106,0,0,1,1.978,2.939,5.237,5.237,0,0,1-2.478,5.351,8.5,8.5,0,0,1-3.993,1.289,14.277,14.277,0,0,1-5.83-.661c-.127-.042-.251-.094-.375-.145a1.042,1.042,0,0,1-.126-.077l.812-3.8c.323.141.627.283.937.408a8.127,8.127,0,0,0,4.6.573,3.271,3.271,0,0,0,1.184-.494,1.252,1.252,0,0,0,.141-2.062,11.08,11.08,0,0,0-1.518-1c-.809-.492-1.668-.912-2.433-1.463a4.077,4.077,0,0,1-1.826-2.9,4.957,4.957,0,0,1,1.934-4.578,8.13,8.13,0,0,1,4.323-1.677,2.284,2.284,0,0,0,.26-.062Z" transform="translate(-283.26 -18.077)"/><path class="c" d="M69.41,21.057c-.236.567-.459,1.107-.685,1.646q-3.239,7.722-6.472,15.447a.427.427,0,0,1-.477.308c-1.363-.011-2.726-.016-4.089,0-.289,0-.383-.1-.45-.356-1.156-4.5-2.33-9-3.473-13.5a2.37,2.37,0,0,0-1.416-1.737,22.556,22.556,0,0,0-3.906-1.262l-.173-.043c.007-.522.007-.522.5-.522h7.156A2.075,2.075,0,0,1,58.09,22.82q.908,4.752,1.8,9.508c.026.139.056.276.1.472.062-.116.105-.181.133-.253q2.222-5.617,4.437-11.237a.36.36,0,0,1,.4-.272c1.384.011,2.767.005,4.151.006C69.194,21.044,69.283,21.052,69.41,21.057Z" transform="translate(-48.269 -20.733)"/><path class="d" d="M236.258,38.665l3.724-17.392H244.5c-.188.882-.372,1.748-.557,2.613q-1.536,7.178-3.064,14.357c-.07.333-.188.438-.534.432-1.239-.024-2.478-.009-3.717-.009Z" transform="translate(-216.937 -20.944)"/></svg>