<svg xmlns="http://www.w3.org/2000/svg" width="18" height="18" viewBox="0 0 18 18"><defs><style>.a{fill:none;}.b{fill:#2f353a;}</style></defs><g transform="translate(-1265 -7866)"><g transform="translate(1265 7866)"><rect class="a" width="18" height="18"/><g transform="translate(0.022 0.022)"><path class="b" d="M12.617,0H5.353A5.359,5.359,0,0,0,0,5.353v7.263A5.359,5.359,0,0,0,5.353,17.97h7.263a5.359,5.359,0,0,0,5.353-5.353V5.353A5.359,5.359,0,0,0,12.617,0Zm3.546,12.617a3.546,3.546,0,0,1-3.546,3.546H5.353a3.546,3.546,0,0,1-3.546-3.546V5.353A3.546,3.546,0,0,1,5.353,1.808h7.263a3.546,3.546,0,0,1,3.546,3.546v7.263Z"/><path class="b" d="M137.648,133a4.648,4.648,0,1,0,4.648,4.648A4.653,4.653,0,0,0,137.648,133Zm0,7.488a2.84,2.84,0,1,1,2.84-2.84A2.84,2.84,0,0,1,137.648,140.488Z" transform="translate(-128.663 -128.663)"/><circle class="b" cx="1.114" cy="1.114" r="1.114" transform="translate(12.528 3.259)"/></g></g></g></svg>