<svg xmlns="http://www.w3.org/2000/svg" width="60.036" height="60.025" viewBox="0 0 60.036 60.025"><defs><style>.a{fill:#dd3e26;stroke:#dd3e26;}.a,.b,.c,.d,.e,.f,.g,.h{stroke-miterlimit:22.926;stroke-width:0.015px;fill-rule:evenodd;}.b{fill:#ed8122;stroke:#ed8122;}.c{fill:#782b8e;stroke:#782b8e;}.d{fill:#fcb813;stroke:#fcb813;}.e{fill:#00835c;stroke:#00835c;}.f{fill:#4874b9;stroke:#4874b9;}.g{fill:#5cae46;stroke:#5cae46;}.h{fill:#353b96;stroke:#353b96;}</style></defs><g transform="translate(-1188.729 -1615.163)"><path class="a" d="M1239.159,1615.176a1.908,1.908,0,0,1,.438.379q7.34,7.375,14.679,14.762c-3.08,3.033-6.113,6.114-9.17,9.158-1.149,1.161-2.322,2.3-3.459,3.483-.853-2.061-1.67-4.135-2.488-6.208,0-2.156.012-4.312,0-6.48C1239.147,1625.247,1239.135,1620.211,1239.159,1615.176Z" transform="translate(-20.497 0)"/><path class="b" d="M1213.918,1640.288h15.177c.011,2.168,0,4.324,0,6.481q-1.262,3.056-2.464,6.149a2.722,2.722,0,0,1-.651-.569l-12.013-12.013Z" transform="translate(-10.237 -10.174)"/><path class="c" d="M1255.936,1640.343l.047-.035q-.017,7.571,0,15.153h-6.527c-2.038-.853-4.1-1.635-6.149-2.476,1.137-1.185,2.31-2.322,3.459-3.483C1249.823,1646.457,1252.856,1643.376,1255.936,1640.343Z" transform="translate(-22.168 -10.19)"/><path class="d" d="M1201.4,1642.867c.854-.817,1.647-1.694,2.524-2.5l12.013,12.013a2.722,2.722,0,0,0,.652.568,5.017,5.017,0,0,1-.925.415c-1.753.71-3.531,1.374-5.272,2.133-2.168-.024-4.336-.012-6.5-.012-5.047-.012-10.094.023-15.141-.012Q1195.056,1649.146,1201.4,1642.867Z" transform="translate(0 -10.214)"/><path class="e" d="M1213.928,1665.516c2.168,0,4.336-.012,6.5.012,2.05.841,4.1,1.635,6.149,2.464-3.365,3.412-6.765,6.777-10.142,10.177-.853.806-1.623,1.694-2.523,2.452C1213.916,1675.586,1213.9,1670.551,1213.928,1665.516Z" transform="translate(-10.225 -20.41)"/><path class="f" d="M1249.424,1665.518h6.527c5.036.012,10.082-.012,15.117.012-3.234,3.282-6.516,6.527-9.762,9.786-1.8,1.789-3.578,3.6-5.379,5.367-4.028-4.076-8.116-8.1-12.155-12.179a2.443,2.443,0,0,0-.545-.45,7.415,7.415,0,0,1,1.09-.474C1246.024,1666.892,1247.73,1666.229,1249.424,1665.518Z" transform="translate(-22.322 -20.412)"/><path class="g" d="M1226.583,1669.637c.865,2.062,1.647,4.147,2.512,6.208-.012,2.156,0,4.324-.012,6.481v10.425c-.024,1.552.035,3.1-.024,4.645a2.571,2.571,0,0,1-.6-.533q-7.268-7.3-14.537-14.6c.9-.758,1.67-1.647,2.523-2.452C1219.818,1676.414,1223.218,1673.049,1226.583,1669.637Z" transform="translate(-10.237 -22.22)"/><path class="h" d="M1241.6,1669.736a2.447,2.447,0,0,1,.545.45c4.04,4.076,8.127,8.1,12.155,12.179-5.059-.012-10.106.012-15.153,0,.012-2.157,0-4.325.012-6.481C1239.953,1673.835,1240.806,1671.8,1241.6,1669.736Z" transform="translate(-20.499 -22.104)"/></g></svg>