<svg xmlns="http://www.w3.org/2000/svg" xmlns:xlink="http://www.w3.org/1999/xlink" width="50.315" height="51.698" viewBox="0 0 50.315 51.698"><defs><style>.a{fill:url(#a);}</style><linearGradient id="a" y1="0.5" x2="1" y2="0.5" gradientUnits="objectBoundingBox"><stop offset="0" stop-color="#eea46d"/><stop offset="0.149" stop-color="#b56436"/><stop offset="0.193" stop-color="#a1542b"/><stop offset="0.254" stop-color="#8b421f"/><stop offset="0.294" stop-color="#833c1b"/><stop offset="0.379" stop-color="#aa5a2d"/><stop offset="0.434" stop-color="#c06a38"/><stop offset="0.456" stop-color="#c97946"/><stop offset="0.508" stop-color="#dc9a65"/><stop offset="0.557" stop-color="#e9b17b"/><stop offset="0.604" stop-color="#f2c088"/><stop offset="0.643" stop-color="#f5c58d"/><stop offset="0.731" stop-color="#eab37c"/><stop offset="0.906" stop-color="#cf8551"/><stop offset="1" stop-color="#c06a38"/></linearGradient></defs><g transform="translate(-1191.099 -1661.598)"><path class="a" d="M1233.309,1662.327a11.945,11.945,0,0,1,4.225,2.228,10.223,10.223,0,0,1,2.843,3.918,14.463,14.463,0,0,1,1.037,5.723,14.811,14.811,0,0,1-1.191,5.915,13.558,13.558,0,0,1-3.611,4.878,17.487,17.487,0,0,1-6.221,3.341,29.177,29.177,0,0,1-8.95,1.229h-7.528l-5.992,22.431h4.148l-.384,1.306H1191.1l.383-1.306h3.994l13.136-49.163h-4.071l.308-1.229H1228.2A17.611,17.611,0,0,1,1233.309,1662.327Zm-9.1,24.044a17.176,17.176,0,0,0,3.418-4.8,27.288,27.288,0,0,0,2.036-5.723,22.091,22.091,0,0,0,.691-4.8q0-4.453-1.843-6.3a6.449,6.449,0,0,0-4.763-1.843h-2.688l-6.761,25.5h5.07A6.691,6.691,0,0,0,1224.207,1686.371Z"/></g></svg>