<svg xmlns="http://www.w3.org/2000/svg" xmlns:xlink="http://www.w3.org/1999/xlink" width="50.315" height="51.698" viewBox="0 0 50.315 51.698"><defs><style>.a{fill:url(#a);}</style><linearGradient id="a" y1="0.5" x2="1" y2="0.5" gradientUnits="objectBoundingBox"><stop offset="0.017" stop-color="#8e6120"/><stop offset="0.252" stop-color="#bb9246"/><stop offset="0.483" stop-color="#e2bd67"/><stop offset="0.6" stop-color="#f2ce74"/><stop offset="0.674" stop-color="#ebc56b"/><stop offset="0.794" stop-color="#d7ad53"/><stop offset="0.944" stop-color="#b9872d"/><stop offset="1" stop-color="#ac771d"/></linearGradient></defs><g transform="translate(-1033.451 -1661.598)"><path class="a" d="M1075.662,1662.327a11.961,11.961,0,0,1,4.225,2.228,10.212,10.212,0,0,1,2.842,3.918,14.446,14.446,0,0,1,1.037,5.723,14.792,14.792,0,0,1-1.191,5.915,13.552,13.552,0,0,1-3.61,4.878,17.5,17.5,0,0,1-6.222,3.341,29.166,29.166,0,0,1-8.949,1.229h-7.528l-5.993,22.431h4.149l-.384,1.306h-20.587l.384-1.306h3.994l13.136-49.163h-4.072l.308-1.229h23.353A17.612,17.612,0,0,1,1075.662,1662.327Zm-9.1,24.044a17.154,17.154,0,0,0,3.418-4.8,27.236,27.236,0,0,0,2.037-5.723,22.09,22.09,0,0,0,.691-4.8q0-4.453-1.844-6.3a6.445,6.445,0,0,0-4.762-1.843h-2.689l-6.761,25.5h5.071A6.689,6.689,0,0,0,1066.559,1686.371Z"/></g></svg>