<svg xmlns="http://www.w3.org/2000/svg" width="50.315" height="51.698" viewBox="0 0 50.315 51.698"><defs><style>.a{fill:#1a1818;}</style></defs><g transform="translate(-1273.889 -1661.598)"><path class="a" d="M1316.1,1662.327a11.948,11.948,0,0,1,4.224,2.228,10.224,10.224,0,0,1,2.843,3.918,14.463,14.463,0,0,1,1.037,5.723,14.792,14.792,0,0,1-1.191,5.915,13.544,13.544,0,0,1-3.611,4.878,17.487,17.487,0,0,1-6.221,3.341,29.177,29.177,0,0,1-8.95,1.229H1296.7l-5.992,22.431h4.148l-.384,1.306h-20.586l.383-1.306h3.994l13.136-49.163h-4.071l.308-1.229h23.352A17.624,17.624,0,0,1,1316.1,1662.327Zm-9.1,24.044a17.177,17.177,0,0,0,3.418-4.8,27.288,27.288,0,0,0,2.036-5.723,22.09,22.09,0,0,0,.691-4.8q0-4.453-1.843-6.3a6.449,6.449,0,0,0-4.763-1.843h-2.688l-6.761,25.5h5.07A6.691,6.691,0,0,0,1307,1686.371Z"/></g></svg>