<svg xmlns="http://www.w3.org/2000/svg" width="64" height="64" viewBox="0 0 64 64"><defs><style>.a{fill:#deb299;}.b{fill:#fff;}</style></defs><circle class="a" cx="32" cy="32" r="32"/><path class="b" d="M22.378,26.231V14.148H33.534v9.539q0,7.747-1.792,11.158A15.775,15.775,0,0,1,24,41.9l-2.543-4.1a9.037,9.037,0,0,0,4.653-4.018,16.854,16.854,0,0,0,1.705-7.545Zm17.919,0V14.148H51.453v9.539q0,7.747-1.792,11.158A15.775,15.775,0,0,1,41.916,41.9l-2.543-4.1a9.037,9.037,0,0,0,4.653-4.018,16.854,16.854,0,0,0,1.705-7.545Z" transform="translate(-4.453 3.852)"/></svg>