<?xml version="1.0" encoding="UTF-8" standalone="no" ?>
<!DOCTYPE svg PUBLIC "-//W3C//DTD SVG 1.1//EN" "http://www.w3.org/Graphics/SVG/1.1/DTD/svg11.dtd">
<svg xmlns="http://www.w3.org/2000/svg" xmlns:xlink="http://www.w3.org/1999/xlink" version="1.1" width="1080" height="1080" viewBox="0 0 1080 1080" xml:space="preserve">
<desc>Created with Fabric.js 4.2.0</desc>
<defs>
</defs>
<g transform="matrix(1 0 0 1 540 540)" id="c5ba2b59-e417-4414-8e53-9ca5307a8308"  >
<rect style="stroke: none; stroke-width: 1; stroke-dasharray: none; stroke-linecap: butt; stroke-dashoffset: 0; stroke-linejoin: miter; stroke-miterlimit: 4; fill: rgb(255,255,255); fill-rule: nonzero; opacity: 1;" vector-effect="non-scaling-stroke"  x="-540" y="-540" rx="0" ry="0" width="1080" height="1080" />
</g>
<g transform="matrix(1 0 0 1 540 540)" id="74b4ac03-4d4b-452f-9dee-f55d838adc64"  >
</g>
<g transform="matrix(42.4 0 0 39.06 541.73 557.2)"  >
<g style="" vector-effect="non-scaling-stroke"   >
		<g transform="matrix(1 0 0 1 0 0)"  >
<path style="stroke: none; stroke-width: 1; stroke-dasharray: none; stroke-linecap: butt; stroke-dashoffset: 0; stroke-linejoin: miter; stroke-miterlimit: 4; fill: none; fill-rule: nonzero; opacity: 1;" vector-effect="non-scaling-stroke"  transform=" translate(-12, -12)" d="M 0 0 L 24 0 L 24 24 L 0 24 L 0 0 z M 0 0 L 24 0 L 24 24 L 0 24 L 0 0 z M 0 0 L 24 0 L 24 24 L 0 24 L 0 0 z M 0 0 L 24 0 L 24 24 L 0 24 L 0 0 z" stroke-linecap="round" />
</g>
		<g transform="matrix(1 0 0 1 0 0.03)"  >
<path style="stroke: none; stroke-width: 1; stroke-dasharray: none; stroke-linecap: butt; stroke-dashoffset: 0; stroke-linejoin: miter; stroke-miterlimit: 4; fill: rgb(0,0,0); fill-rule: nonzero; opacity: 1;" vector-effect="non-scaling-stroke"  transform=" translate(-12, -12.03)" d="M 12 6 C 15.79 6 19.17 8.129999999999999 20.82 11.5 C 20.23 12.72 19.4 13.77 18.41 14.620000000000001 L 19.82 16.03 C 21.21 14.8 22.310000000000002 13.260000000000002 23 11.5 C 21.27 7.11 17 4 12 4 C 10.73 4 9.51 4.2 8.36 4.57 L 10.01 6.220000000000001 C 10.66 6.09 11.32 6 12 6 z M 10.93 7.14 L 13 9.21 C 13.57 9.46 14.03 9.920000000000002 14.28 10.49 L 16.349999999999998 12.56 C 16.429999999999996 12.22 16.49 11.860000000000001 16.49 11.49 C 16.5 9.01 14.48 7 12 7 C 11.63 7 11.28 7.05 10.93 7.14 z M 2.01 3.87 L 4.6899999999999995 6.550000000000001 C 3.06 7.83 1.77 9.53 1 11.5 C 2.73 15.89 7 19 12 19 C 13.52 19 14.98 18.71 16.32 18.18 L 19.740000000000002 21.6 L 21.150000000000002 20.19 L 3.42 2.45 L 2.01 3.87 z M 9.51 11.370000000000001 L 12.12 13.98 C 12.08 13.99 12.04 14 12 14 C 10.620000000000001 14 9.5 12.879999999999999 9.5 11.5 C 9.5 11.45 9.51 11.42 9.51 11.37 z M 6.109999999999999 7.970000000000001 L 7.859999999999999 9.72 C 7.629999999999999 10.270000000000001 7.499999999999999 10.870000000000001 7.499999999999999 11.5 C 7.499999999999999 13.98 9.52 16 12 16 C 12.63 16 13.23 15.87 13.77 15.64 L 14.75 16.62 C 13.87 16.86 12.95 17 12 17 C 8.21 17 4.83 14.870000000000001 3.1799999999999997 11.5 C 3.88 10.07 4.8999999999999995 8.89 6.109999999999999 7.970000000000001 z" stroke-linecap="round" />
</g>
</g>
</g>
</svg>