<svg xmlns="http://www.w3.org/2000/svg" width="30" height="30" viewBox="0 0 30 30"><defs><style>.a{fill:#006fcf;fill-rule:evenodd;}</style></defs><path class="a" d="M216.139,124.728c0,.751-.475,1.1-1.324,1.1h-1.623v-.751h1.623a.517.517,0,0,0,.325-.075.32.32,0,0,0,.1-.226.382.382,0,0,0-.1-.25.433.433,0,0,0-.3-.075c-.774-.025-1.748.025-1.748-1.077a1.054,1.054,0,0,1,1.2-1.052h1.673v.751h-1.549a.59.59,0,0,0-.325.05.359.359,0,0,0-.125.276.273.273,0,0,0,.175.251,1.276,1.276,0,0,0,.325.05h.449a1.415,1.415,0,0,1,.974.275,1.085,1.085,0,0,1,.249.751Zm-3.522-.751a1.415,1.415,0,0,0-.974-.275h-.449a1.279,1.279,0,0,1-.325-.05.272.272,0,0,1-.175-.251.294.294,0,0,1,.125-.276.591.591,0,0,1,.325-.05h1.549v-.751h-1.674c-.9,0-1.2.551-1.2,1.052,0,1.1.974,1.052,1.749,1.077a.432.432,0,0,1,.3.075.383.383,0,0,1,.1.25.319.319,0,0,1-.1.226.567.567,0,0,1-.325.075h-1.624v.751h1.624c.849,0,1.324-.35,1.324-1.1A1.082,1.082,0,0,0,212.617,123.976Zm-3.2,1.127h-1.973v-.7h1.923v-.7h-1.923v-.651h1.973v-.726h-2.8v3.506h2.8Zm-3.7-2.6a2.093,2.093,0,0,0-1.024-.175h-1.923v3.506h.849v-1.277h.9c.3,0,.475.025.6.15a1.12,1.12,0,0,1,.15.7v.425h.824v-.676a1.158,1.158,0,0,0-.125-.651.974.974,0,0,0-.424-.3.965.965,0,0,0,.6-.927A.787.787,0,0,0,205.723,122.5Zm-4.746-.175H198.3l-1.074,1.152-1.024-1.152h-3.372v3.506h3.322l1.074-1.152,1.024,1.152h1.624v-1.177h1.049c.724,0,1.449-.2,1.449-1.177C202.376,122.524,201.626,122.324,200.977,122.324Zm4.071,1.453a1.038,1.038,0,0,1-.4.05l-1.024.025v-.8h1.024a.677.677,0,0,1,.4.075.319.319,0,0,1,.175.3A.438.438,0,0,1,205.048,123.776Zm-4.071.175h-1.1v-.9h1.1c.3,0,.5.125.5.426A.453.453,0,0,1,200.977,123.951Zm-3.222.125,1.3-1.377v2.83Zm-2.023,1.027h-2.073v-.7h1.848v-.7h-1.848v-.651h2.1l.924,1.027Zm18.085-5.309h-1.2l-1.574-2.629v2.629h-1.7l-.325-.776h-1.748l-.325.776h-.974a1.8,1.8,0,0,1-1.224-.4,1.835,1.835,0,0,1-.425-1.327,1.812,1.812,0,0,1,.449-1.377,1.693,1.693,0,0,1,1.274-.4h.8v.751h-.8a.882.882,0,0,0-.649.2,1.137,1.137,0,0,0-.225.8,1.256,1.256,0,0,0,.225.826.832.832,0,0,0,.574.175h.375l1.2-2.754h1.249l1.4,3.305v-3.306h1.3l1.474,2.429v-2.429h.849v3.506Zm-9.916-3.506h-.849v3.506h.849Zm-1.774.15a2.006,2.006,0,0,0-1-.15H199.2v3.506h.824v-1.277h.9a.854.854,0,0,1,.625.15,1.065,1.065,0,0,1,.125.676v.451h.849v-.7a.937.937,0,0,0-.15-.626,1.046,1.046,0,0,0-.4-.3.994.994,0,0,0,.6-.927A.868.868,0,0,0,202.126,116.439Zm-3.522,2.629h-1.948v-.7h1.923v-.726h-1.923v-.626H198.6v-.726h-2.8v3.506h2.8Zm-3.422-2.78h-1.374l-1.024,2.379-1.1-2.379h-1.349v3.305l-1.424-3.305h-1.249l-1.5,3.506h.9l.325-.776h1.749l.325.776h1.7V117.04l1.224,2.754h.724l1.224-2.754v2.754h.849v-3.506Zm13.539,1.978-.575-1.377-.574,1.377Zm-7.244-.551a.761.761,0,0,1-.425.075h-1.024v-.776h1.024a1.1,1.1,0,0,1,.425.05.373.373,0,0,1,.15.326A.345.345,0,0,1,201.476,117.716Zm-13.789.551.575-1.377.574,1.377ZM215.939,105.3h-29.8v12.621l1.024-2.329h2.173l.3.576v-.576h2.548l.574,1.252.55-1.252h8.118a1.474,1.474,0,0,1,.949.275v-.275H204.6v.275a2.969,2.969,0,0,1,1.4-.275h3.222l.3.576v-.576h2.373l.35.576v-.576h2.323V120.5h-2.348l-.449-.751v.751h-2.923l-.325-.8H207.8l-.325.8h-1.524a2.986,2.986,0,0,1-1.349-.3v.3h-3.622v-1.127c0-.15-.025-.175-.125-.175h-.125v1.3h-6.994v-.626l-.25.626h-1.474l-.25-.6v.6h-2.823l-.3-.8h-.724l-.325.8h-1.449v14.8h29.8V126.3a3.051,3.051,0,0,1-1.224.225h-2.173v-.3a1.923,1.923,0,0,1-1.124.3h-6.844V125.4c0-.15-.025-.15-.15-.15H204.3v1.277h-2.248V125.2a2.743,2.743,0,0,1-1.174.175h-.25v1.152h-2.748l-.649-.751-.724.751h-4.422v-4.908h4.5l.65.751.7-.751h3.022a1.881,1.881,0,0,1,1.174.3v-.3h2.7a2.134,2.134,0,0,1,1.149.3v-.3h4.072v.3a1.658,1.658,0,0,1,1.024-.3h2.273v.3a1.8,1.8,0,0,1,1.049-.3h1.549Z" transform="translate(-186.139 -105.295)"/></svg>