<svg xmlns="http://www.w3.org/2000/svg" width="74.5" height="76" viewBox="0 0 74.5 76"><defs><style>.a{fill:#d8a286;fill-rule:evenodd;}.b{fill:#fff;}</style></defs><g transform="translate(0 -275.797)"><g transform="translate(0 275.797)"><path class="a" d="M408.762,350.261c.36-.175,1.723-.24,2.186-.474C408.716,349.954,408.715,349.867,408.762,350.261Z" transform="translate(-367.861 -275.151)"/><path class="a" d="M369.018,311.2a9.566,9.566,0,0,0-.021,3.273C368.892,313.507,369.181,312.077,369.018,311.2Z" transform="translate(-368.171 -275.48)"/><path class="a" d="M404.6,350.225a.716.716,0,0,0,.4.081l.569-.034-.437-.084C404.85,350.156,404.605,350.155,404.6,350.225Z" transform="translate(-367.897 -275.151)"/><path class="a" d="M406.824,350.218l-.206.083.446.055c0-.035.205-.067.123-.1A2.683,2.683,0,0,0,406.824,350.218Z" transform="translate(-367.884 -275.151)"/><path class="a" d="M410.418,276.439l3.907.866,1.488.449a24.5,24.5,0,0,1,3.135,1.137l-.071-.064,1.5.676c.469.151,1.027.533,1.488.707.812.464,1.657.871,2.364,1.348a4.479,4.479,0,0,0,.968.565l1.89,1.291c.251.112.651.483.859.577a5.189,5.189,0,0,0,.479.277,5.4,5.4,0,0,0-1.192-1.043L425,281.7a6.925,6.925,0,0,0-1.948-1.123l-1.468-.781a21.333,21.333,0,0,0-2.542-1.111l-.948-.4a5.917,5.917,0,0,0-1.606-.551l-.6-.193a2.149,2.149,0,0,0-.514-.155l-.474-.13a24.685,24.685,0,0,0-4.476-1.1c-.4-.057-.63-.043-.644.04S410.023,276.369,410.418,276.439ZM424.47,281.6l.035.022a2.409,2.409,0,0,1,.487.322c-.2-.133-.374-.247-.487-.322-.013,0-.027-.012-.039-.015Z" transform="translate(-367.758 -275.797)"/><path class="a" d="M436.844,335.264l-.016.025c-.02.029-.032.063-.052.092Z" transform="translate(-367.623 -275.286)"/><path class="a" d="M442.424,319.954c0-.021,0-.044,0-.066a12.742,12.742,0,0,0,.227-3,1.866,1.866,0,0,0-.087.243,3.23,3.23,0,0,0-.013-.613l-.029-.135.016-.179c.01-.812.019-1.624.029-2.482l-.092-.49a41.805,41.805,0,0,0-1.257-7.034l-.192-.506c-.574-1.959-1.214-3.748-2-5.716l-.28-.407-.216-.531a2.341,2.341,0,0,0-.45-.954,15.672,15.672,0,0,0-1.985-3.375,56.8,56.8,0,0,0-3.7-4.5c-.656-.695-1.035-1.415-1.7-2.047-.652-.583-.763-.353-1.694-1.125-1-.757-1.973-1.622-3.056-2.4l-.063.086c-.015-.054-.059-.135.063-.086l-.422-.3-.062.086-1.31-.907-.486-.2-.155-.073-.1-.087c-.373-.3-.911-.477-1.108-.729.25,0,1.062.479,1.136.361a6.134,6.134,0,0,0-3.077-1.257c-.3-.169-.713-.385-.683-.449.243-.2-.417-.424-1.273-.712-.7-.226-.9-.166-.88.007l-.468-.2a1.814,1.814,0,0,0-.513-.2l.067.056a4.815,4.815,0,0,0-.508-.218c-.6-.214-1.554-.453-1.233-.608.256-.107-.137-.282-.837-.5a4.662,4.662,0,0,0-1.772-.358c.7.22,1.517.625,1.253.773-.3-.054-.648-.145-1-.228a3.491,3.491,0,0,0-.684-.569c-.076-.1-.157-.184-.5-.269a1.079,1.079,0,0,0-.581-.695c.332.023.691.057,1.048.093a11.2,11.2,0,0,1,3.091.976,6.941,6.941,0,0,0,2.04.638l2.849,1.21a66,66,0,0,1,6.7,3.631l-.042-.018c1.206.749,2.254,1.85,3.423,2.726a9.789,9.789,0,0,1,1.516,1.368l.548.522c.37.328.752.762,1.112,1.155,1.12,1.381,2.19,2.583,3.129,3.893-.051-.125-.051-.126-.086-.207l.047.073.038.134a7.84,7.84,0,0,0,.931,1.268l.159.221.13.233a18.543,18.543,0,0,0,1.335,2.392,4.6,4.6,0,0,1,.252.431c.253.572.526,1.14.768,1.574.051.128.06.125.085.114.042.033.041-.016.015-.155a13.309,13.309,0,0,0-1.9-4.251c-.245-.384-.585-.92-.851-1.339a23.233,23.233,0,0,0-6.082-7.074,3.8,3.8,0,0,0-.826-.692,3.921,3.921,0,0,0-.85-.6l-.8-.646-1.289-1.106a25.014,25.014,0,0,0-6.254-3.835c-1-.473-2.113-.808-3.173-1.368-.782-.439-1.818-.857-1.478-.338.05.114-.626-.085-1.048-.217-.8-.23-1.72-.558-2.587-.737a1.188,1.188,0,0,1-.343-.083,1.541,1.541,0,0,0-.6-.127,1.144,1.144,0,0,1-.389-.081,23.075,23.075,0,0,0-2.282-.619,5.777,5.777,0,0,0-.99-.209c-.047-.094-.188-.171-.6-.219a3.967,3.967,0,0,0-.555-.084l-.135.023-.046,0,.181-.026c-.092-.083-.278-.133-.741-.134l-.048-.015v.009c-.046-.058-.232-.077-.559-.083a.986.986,0,0,1-.369.02c-.858.067-1.719.189-2.575.34a7.563,7.563,0,0,0-1.478.042,38.92,38.92,0,0,0-6.132.883l0,.017,0,.017-.007-.034a15.969,15.969,0,0,0-3.106.736,5.368,5.368,0,0,0-1.553.408,6.343,6.343,0,0,0-1.2.358c-.546.2-.326.265-.645.423a1.734,1.734,0,0,0-.528.35c-.143.114-.83.421-.654.486.078.06.228.071.573-.014.146.1.552.051,1.146-.111l.112-.07,0,.008a.4.4,0,0,0-.115.062l1.246.213c.053.14.223.227.762.115-.292.181-.578.366-.846.564a8.065,8.065,0,0,0-2.288,1.409,22.856,22.856,0,0,0-3.176,2.431l.07-.054c-.5.535-1.328,1.024-1.678,1.521l-.005-.007a10.025,10.025,0,0,0-.835.826l-.076.116-.138.116-1.463,1.431a8.3,8.3,0,0,0-1.793,1.8c-.669.909-1.965,2.332-2.7,3.479-.742,1.22-1.882,2.394-2.281,3.678l.061-.054c-.03.072-.037.068-.037.068l-.024-.013a34.775,34.775,0,0,0-2.022,4.088,13.581,13.581,0,0,0-1.012,2.776c-.077.242-.152.484-.223.729a24.592,24.592,0,0,0-1.386,5.93,9.049,9.049,0,0,0-.064,2.914.5.5,0,0,1-.02.318,3.062,3.062,0,0,0-.115.96,10.788,10.788,0,0,0,.071,3l.029.036h0v0a.053.053,0,0,1-.029-.036,4.472,4.472,0,0,0,.089,1.607h.008a12.291,12.291,0,0,0,.165,1.563.736.736,0,0,1,.043.319,2.751,2.751,0,0,0,.1,1.011,4.488,4.488,0,0,0,.53,1.78h0a4.622,4.622,0,0,0,.426,1.293l.489,1.6a21.486,21.486,0,0,0,1.02,2.605c.135.334.269.669.388.964a5.957,5.957,0,0,0,.752,1.538c.1.2.207.4.288.565a2.192,2.192,0,0,0,.256.476l.245.431a24.847,24.847,0,0,0,2.408,3.974c.245.327.418.48.488.432s-.046-.3-.278-.631l-2.166-3.4c-.232-.433-.487-.907-.74-1.381a24.647,24.647,0,0,1-1.424-3.047l0,.1-.588-1.555c-.228-.442-.352-1.111-.557-1.564-.066-.247-.139-.491-.211-.735.023.043.042.089.069.129l-.008,0,.158.282c-.024-.115-.04-.192-.062-.3a.14.14,0,0,1,0,.023v-.038l0,.015a2.658,2.658,0,0,0-.033-.428,3.4,3.4,0,0,0-.168-.988l-.021.007-.008,0,.029-.009a1.536,1.536,0,0,0-.024-.328,30.962,30.962,0,0,0,1.085,3.378c.376,1.045.924,2.068,1.277,3.212.243.864.68,1.893.806,1.285.045-.116.383.5.588.9.406.731.822,1.612,1.309,2.353a1.177,1.177,0,0,1,.183.3,1.541,1.541,0,0,0,.335.515,1.173,1.173,0,0,1,.219.333,16.393,16.393,0,0,0,4.382,5.652,7.417,7.417,0,0,1,.766.8,6.219,6.219,0,0,0,1.388,1.437,39.018,39.018,0,0,0,4.959,3.717l.01-.015.009-.015-.019.03a15.945,15.945,0,0,0,2.717,1.677,5.341,5.341,0,0,0,1.385.81,6.324,6.324,0,0,0,1.1.6c.527.246.418.043.755.158a1.723,1.723,0,0,0,.621.125c.181.021.884.29.8.12-.012-.1-.111-.211-.415-.4-.029-.176-.355-.428-.889-.732l-.128-.03,0-.008a.4.4,0,0,0,.124.038l-.73-1.032c.073-.163-.017-.385-.752-.8-.069-.146-.22-.32-.283-.482.532.248,1.118.483,1.633.663.553.191.878.172.92.07.134-.117-.487-.343-.856-.533-.444-.221-.785-.468-.81-.6-.05-.177.59.094.915.165a36.487,36.487,0,0,0,3.811,1.175,6.579,6.579,0,0,0,1.857.417l-.036-.026.04.009,0,.017a13.131,13.131,0,0,0,2.5.441,1.12,1.12,0,0,1-.19-.082l.04.009.15.073a9.5,9.5,0,0,0,2.409.206l-.08-.027.082.009,0,.018a16.269,16.269,0,0,0,4.012.137c1.115-.168,3.038-.258,4.364-.551,1.386-.338,3.022-.361,4.21-.987l-.082,0c.072-.03.075-.021.075-.021l.007.025a33.711,33.711,0,0,0,7.666-3.063,25.568,25.568,0,0,0,4.584-2.764l.006,0c.056.063.207.031.5-.185l.144-.174.006.006-.15.168a1.329,1.329,0,0,0,.5-.1,7.783,7.783,0,0,1-1.118.833l.032-.026c-.392.219-.932.64-1.312.795-.867.293-1.759,1.13-2.711,1.569l-.793.388c-.535.176-1.2.647-1.779.812l-.74.3a13.375,13.375,0,0,1-2.936,1.121l-.147.063-.115.029c-3.011.734-5.206,1.532-7.528,2.075a38.064,38.064,0,0,0,12.651-3.709l.868-.44a7.751,7.751,0,0,0,2.254-1.193l1.2-.757c.4-.2.885-.572,1.273-.8a2.783,2.783,0,0,1,.365-.258,6.246,6.246,0,0,0,1.258-.909l.393-.3c.171-.11.4-.227.526-.329l.557-.548a1.642,1.642,0,0,0,.532-.408l.043-.023-.006-.006c.075.009.218-.11.453-.338a1.016,1.016,0,0,1,.247-.275,36.366,36.366,0,0,0,3.266-4.648,15.065,15.065,0,0,0,1-1.757,4.942,4.942,0,0,0,.683-1.17c.121-.168.245-.329.377-.481a30.5,30.5,0,0,0,1.89-5.941,8.09,8.09,0,0,0,.623-2.616,22.861,22.861,0,0,0,.528-3.967Zm-7.1-27.884-.022.015s.011-.008,0-.049Zm-46.21-12.928c-.01-.024-.065-.04.055-.1.035-.033.122-.048.159-.078C389.224,279.047,389.1,279.114,389.116,279.142Zm4.59,71.845c-.01.025.017.076-.113.034-.048,0-.121-.051-.167-.057C393.562,350.979,393.694,351.017,393.706,350.987Zm46.429-37.718h-.018v-.082Zm-.232,5.014a10.236,10.236,0,0,0-.011-2.32A8.443,8.443,0,0,1,439.9,318.283Zm.061-15.137c-.038-.034-.118-.24-.163-.268-.021-.088-.052-.215-.073-.3C439.813,302.779,439.915,303.026,439.965,303.147Zm-.3,4.61.018,0c-.01.045-.026.177-.058.1A.634.634,0,0,0,439.662,307.757Zm-.715,7.56h.009l-.009.042Zm-.836-2.852a1.674,1.674,0,0,1,.039.358c-.022.32-.079-.033-.128-.194C438.062,312.627,438.1,312.625,438.11,312.465Zm-.5,5.626.026,0-.017.081C437.61,318.209,437.614,318.091,437.614,318.091ZM430,337.745c.06-.11.123-.225.185-.337a14.087,14.087,0,0,1,1.252-2.621,13.01,13.01,0,0,1-1.252,2.621c0,.046-.033.111-.025.15Zm-46.844-.552c-.041-.024-.1-.087-.135-.1l-.007.006-.022-.027-.085-.083,0,0a.526.526,0,0,1,.082.086l.029.021.07.044C383.117,337.158,383.138,337.172,383.16,337.193Zm-6.408-1.9-.046-.06c.067.043.1.021.078-.06l-.02-.034c.011.009.018.02.029.029-.341-.651-.631-1.516-.341-1.432.341.49.707,1.207,1.128,1.7l.623.911c.332.812.395.97.228,1.215-.2-.357-.5-.711-.816-1.148a5.435,5.435,0,0,0-.831-1.239C376.8,335.252,376.78,335.269,376.752,335.29Zm1.013-11.872.03-.008v.078Zm-.482,2.188a.24.24,0,0,0-.142-.078,1.075,1.075,0,0,1-.183.5c.042-.209.032-.526.183-.5a2.433,2.433,0,0,0,.045-.447C377.25,325.3,377.206,325.391,377.283,325.606Zm-1.17,6.442-.037-.073a3.274,3.274,0,0,0,.381.557l-.028.015Zm-.571-3.454-.147-.247-.068-.194Zm-1.14-4.737c-.03.007-.084-.066-.137-.175l-.016-.082C374.292,323.716,374.36,323.866,374.4,323.856Zm-3.316-3.034a.689.689,0,0,1-.054-.145l.008,0A.392.392,0,0,0,371.086,320.822Zm.951,3.5c-.068.021-.029.247.05.547a1.738,1.738,0,0,1-.191-.585C371.907,324.16,371.982,324.257,372.037,324.321Zm1.747-2.037a2.255,2.255,0,0,1-.244-.743A5.683,5.683,0,0,0,373.784,322.283Zm.266,1.95c-.024-.248-.051-.448.035-.468C374.016,323.781,374.026,323.985,374.05,324.233ZM370.6,312.756l0,.075h-.018v-.035l0-.039Zm-.221,1.488v.035c0,.013-.005.027-.008.041-.024.2-.044.362-.064.537l-.01.155v-.079l.01-.077a2.971,2.971,0,0,1,.064-.537Zm-.613,5.813a.1.1,0,0,0,.093-.044c.012.121.019.2.031.315a1.486,1.486,0,0,0-.124-.27c-.1-.011-.2-.176-.3-.344A.986.986,0,0,1,369.763,320.057Zm4.738,9.949c.081.2.129.315.192.471a1.8,1.8,0,0,0,.219.507l-.008-.087a4.676,4.676,0,0,0,.206.513c.273.575.779,1.419.442,1.3-.094-.038-.132-.008-.126.077l-.3-.585-.007.005c0-.275-.383-.762-.562-1.191a4.731,4.731,0,0,0-.333-1.075C374.352,330.081,374.441,330.086,374.5,330.006Zm9.308-41,.011-.016h0Zm24.736-7.637-.007.048c-.006.039-.2.009-.2.036C408.343,281.416,408.538,281.415,408.546,281.371Zm-2.419-.33c-.08-.008,0-.005-.04-.008l-.194,0,.081-.01a3.76,3.76,0,0,1,.665-.032C406.518,281.022,406.209,281,406.127,281.042Zm.514.36v.005a.578.578,0,0,1-.118,0l-.036.005-.081.019c-.032,0-.056,0-.087,0,.045-.012.13-.008.167-.023V281.4l.035,0Zm26.049,46.871a.494.494,0,0,1,.109-.2l.02.009C432.781,328.151,432.678,328.388,432.689,328.272Zm.085.255-.031.057.007-.07c-.011.011-.022.026-.033.038l0-.016a.157.157,0,0,0,.045-.049l-.014.027Zm3.748-10.7-.04.3a.427.427,0,0,0-.033-.2C436.477,317.82,436.5,317.862,436.522,317.824Zm-.713-18.4.021.045-.018-.037,0-.008-.048-.1a1.056,1.056,0,0,1-.027-.122A.953.953,0,0,0,435.808,299.428Zm-.162-3.589.018.028-.018-.028,0-.005-.023-.037Zm-.507-.453-.015.009-.023-.037C435.132,295.391,435.139,295.387,435.139,295.387Zm-10.964-9.7a5.738,5.738,0,0,0-.7-.353A2.233,2.233,0,0,1,424.176,285.691Zm-2.192-1.036a.513.513,0,0,1,.168.035l.07.045A.974.974,0,0,0,421.983,284.655Zm.236-.152c.037-.061-.114-.2-.306-.356C422.105,284.306,422.266,284.427,422.219,284.5Zm-4.162-2.312.184.09-.463-.161Zm-3.7-2.238.575.129.078.025a3.284,3.284,0,0,0-.662-.125Zm-6.933-3.839a1.22,1.22,0,0,1-.12.032v-.013Zm-6.205.206.086.006-.352.016Zm-24.973,18.069-.005.138,0,0A.258.258,0,0,1,376.248,294.389Zm-.051.215-.006.011c-.044.018-.095.046-.141.067C376.106,294.647,376.152,294.63,376.2,294.6Zm-6.873,22.472c-.016.05-.031.1-.07.06l-.007-.082C369.288,317.141,369.307,317.115,369.324,317.076Zm.859,6.8.005.011h0ZM374,331.355c-.1-.245-.194-.483-.292-.724.041.056.08.115.121.17a3.265,3.265,0,0,0,.27.7C374.066,331.453,374.035,331.4,374,331.355Zm2.487,4.774a11.3,11.3,0,0,1-1.5-2.878c-.037-.12-.087-.242-.136-.364a3.181,3.181,0,0,1,.276.521,5.486,5.486,0,0,0,.571.994,1.97,1.97,0,0,0,.175.167,22.068,22.068,0,0,0,2.465,3.1l-.069.085C377.989,337.968,377.218,337.02,376.488,336.129Zm2.172-7.054c.2-.009.247-.273.158-.753v0c.058.3.117.59.168.848C379.118,329.689,378.836,329.285,378.66,329.075Zm.43,6.56c.042.022-.049-.164.063-.042s.024.085.077.2C379.2,335.757,379.148,335.7,379.09,335.635Zm2.451.024.039-.029c.032-.024.146.133.167.117C381.716,335.77,381.577,335.633,381.542,335.659Zm1.079,1.62c.108.061.311.3.4.326.049.062,0,0,.021.033l.137.139-.063-.049A3.745,3.745,0,0,1,382.621,337.279Zm.532,7.137-.056-.066.261.237Zm1.457-.626c.005-.01-.012-.03-.009-.04-.247-.275-.392-.507-.629-.776l-.075-.046s.042.018.009-.01l.065.056c.583.465.662.648.629.776.048.053.075.1.134.156Zm2.615-4.387.292.111c-.054.006.014.093.025.137A3.155,3.155,0,0,1,387.225,339.4Zm1.9,4.277.01-.014.025.033C389.125,343.675,389.123,343.679,389.123,343.679Zm3.9.3a1.478,1.478,0,0,0,.331.091C393.239,344.04,393.214,344.088,393.02,343.981Zm1.9,1.009c.035.015.037.011.037.011l0,0-.035-.015c-.025-.006-.042,0-.066-.008a1.272,1.272,0,0,1-.8-.121,1.951,1.951,0,0,1-.491-.2c-.021-.012-.031-.006-.053-.019l-.238-.109c.094.042.193.085.291.128.166.073.332.141.491.2.276.07.507.06.8.121.009,0,.027,0,.035-.005s-.008-.014.005-.016l-.306-.342c-.018-.011-.031-.021-.047-.032l.031.014c-.017-.024-.062-.059-.084-.085a7.955,7.955,0,0,1-.985-.734l-.009.015-.811-.506.72.437.1.054a3.305,3.305,0,0,1,.985.734c.057.038.093.078.152.115l-.069-.03.01.011c.257.166.5.321.312.349Zm.944.16-.407-.176c.139.05.3.14.483.19Zm2.095,2.729,0-.012,0,0Zm2-.948c.044-.018-.1-.064-.091-.089a.782.782,0,0,0,.2.123Zm2.763.647,0-.014.073.029Zm1.813.259a5.117,5.117,0,0,0-.6-.27l.708.04C404.784,347.685,404.886,347.769,404.539,347.837Zm2.88-2.287a.99.99,0,0,0,.278.077.2.2,0,0,0,.1.037v.009a.263.263,0,0,1-.1-.046l-.346-.07C407.419,345.558,407.419,345.549,407.419,345.549Zm.369.556h.036a1.019,1.019,0,0,1-.25.075A1.326,1.326,0,0,0,407.788,346.1Zm5.924,3.082-.02.019a.267.267,0,0,1-.118.11l.118-.11a.107.107,0,0,0,.013-.063c.008.048.129.072.217.106A1.615,1.615,0,0,0,413.712,349.187Zm3.1-3.629c-.143.045-.328.125-.348.051-.068.018-.007-.026-.112-.006l.014-.016c.027-.01.056-.019.084-.03l.014.052.217-.025.131-.026c.025-.008.054-.019.076-.024l0,.008Zm7.176-3.3c-.484.231-.913.406-1.079.318-.238-.072.253-.35.662-.615.175-.118.4-.284.266-.308-.285.061-.677.357-.889.333.359-.28.827-.437,1.206-.743-.091.023-.148.031-.175.014l-.046.015.029-.019.017,0c.082-.026.156-.045.175-.014a.749.749,0,0,1,.236-.144c.5-.189,1.012-.668,1.535-.892a7.576,7.576,0,0,0,1.881-1.478l.03-.018.052-.048-.027.022c.436-.609-.143-.113-.5.155l-.159.129-.094.053c-.292.075-.795.547-1.088.609a33,33,0,0,0,3.575-3.132c.074-.075.155-.152.239-.232a.2.2,0,0,0-.022.045c-.075.143.054.045.149-.081a1.7,1.7,0,0,0,.137-.19l-.02-.013a1.1,1.1,0,0,0,.373-.555,1.635,1.635,0,0,1,.279-.634c.286-.138.708-.556.9-.514-.165.269-.237.419-.224.523a13.36,13.36,0,0,0-1.106,1.865,10.263,10.263,0,0,1-.976,1.661c-.3.333-.565.662-.823.985-.073.051-.143.1-.216.155A40.945,40.945,0,0,1,423.992,342.263Zm1.587-.291.156-.093a.624.624,0,0,0,.145-.068.708.708,0,0,1,.185-.086.846.846,0,0,0-.185.086A2.284,2.284,0,0,1,425.579,341.972Z" transform="translate(-368.171 -275.797)"/><path class="a" d="M378.251,289.953c-.13.378-1.049,1.388-1.21,1.88C378.5,290.137,378.563,290.2,378.251,289.953Z" transform="translate(-368.171 -275.672)"/><path class="a" d="M369.023,309.432c.122-.429.206-1.1.364-1.478.4-.814.443-2.027.8-3,.076-.223.181-.528.284-.828.252-.5.387-1.3.679-1.819.123-.291.215-.511.307-.731a13.353,13.353,0,0,1,1.275-2.846l.06-.147.06-.1c.934-1.535,1.655-2.887,2.344-4.149l.59-.88c.184-.31.329-.592.275-.63,0-.01-.008-.011-.013-.015.207-.358.415-.713.633-1.064a37.316,37.316,0,0,0-5.8,10.167c-.028-.126-.155.114-.251.407-.227.714-.512,1.44-.689,2.141a9.246,9.246,0,0,0-.59,2.1c-.107.471-.206.9-.314,1.376-.141.424-.219,1.022-.331,1.456a2.891,2.891,0,0,1-.075.437,6.161,6.161,0,0,0-.247,1.521c-.021.161-.048.363-.065.486-.043.2-.119.438-.139.6-.005.611-.01,1.177-.016,1.789a.546.546,0,0,0,.026.12c.027.042.044.042.071-.079a1.834,1.834,0,0,0,.118-.488h-.009c.081-.28.067-.722.125-1.083a2.538,2.538,0,0,1,.021-.362,3.4,3.4,0,0,0,.193-1.035,3.368,3.368,0,0,1-.109.358l-.048.155,0-.041a1.129,1.129,0,0,0,.044-.114c.039-.127.075-.245.109-.358.175-.466.127-1.36.312-1.9Z" transform="translate(-368.171 -275.602)"/><path class="a" d="M433.978,289.473a9.544,9.544,0,0,0-2.3-2.329C432.433,287.749,433.24,288.965,433.978,289.473Z" transform="translate(-367.623 -275.797)"/><path class="a" d="M438,295.21c.236.445.514.969.769,1.452a6.732,6.732,0,0,0,.377.627c.222.246.136-.065-.029-.391a13.779,13.779,0,0,0-1.586-2.786l-.25-.38c-.21-.3-.431-.6-.506-.55-.108-.037.088.269.235.5C437.35,294.218,437.677,294.816,438,295.21Z" transform="translate(-367.623 -275.639)"/><path class="a" d="M381.222,287.034a.721.721,0,0,0-.341.225l-.378.427.369-.25C381.091,287.261,381.266,287.089,381.222,287.034Z" transform="translate(-368.171 -275.797)"/><path class="a" d="M379.652,288.613l.087-.205-.354.277c.024.026-.1.192-.02.154A2.784,2.784,0,0,0,379.652,288.613Z" transform="translate(-368.171 -275.797)"/><path class="a" d="M439.046,331.8c-.084.109-.1-.1-.254.332-.029.091-.031.189-.012.2a3.042,3.042,0,0,0,.273-.377C439.131,331.784,439.156,331.645,439.046,331.8Z" transform="translate(-367.623 -275.314)"/><path class="a" d="M441.989,307.448c.113.075,0-.41-.038-.681l-.326-1.6c-.133-.292-.21-.272-.2.049l.315,1.593C441.827,307.158,441.924,307.46,441.989,307.448Z" transform="translate(-367.623 -275.538)"/><path class="a" d="M424.931,284.119l.158.148-.076-.118Z" transform="translate(-367.749 -275.797)"/></g><g transform="translate(19.137 299.634)"><path class="b" d="M423.259,308.77a9.477,9.477,0,0,0-18.113-3.907A9.473,9.473,0,1,0,390.389,316l14.458,14.362a.453.453,0,0,0,.322.133.459.459,0,0,0,.325-.133l15-14.9v0a9.431,9.431,0,0,0,2.771-6.69Z" transform="translate(-387.034 -299.29)"/></g></g></svg>