<svg xmlns="http://www.w3.org/2000/svg" width="275" height="274" viewBox="0 0 275 274"><defs><style>.a{fill:#567c8b;}.b{fill:#deb299;}.c{fill:#b8ccd9;}.d{fill:#fff;}</style></defs><g transform="translate(-689.2 -1787)"><g transform="translate(689.2 1787)"><g transform="translate(14.652 251.29)"><g transform="translate(201.738 7.943)"><ellipse class="a" cx="29.305" cy="6.71" rx="29.305" ry="6.71"/></g><ellipse class="a" cx="99.407" cy="11.097" rx="99.407" ry="11.097"/></g><g transform="translate(42.369 90.262)"><g transform="translate(197.132 13.849)"><path class="b" d="M1535.653,2155.348l-4.1-.889-.918-4.1a.322.322,0,0,0-.631,0l-.946,4.1-4.1.975a.322.322,0,0,0,0,.631l4.1.889.917,4.1a.322.322,0,0,0,.631,0l.946-4.1,4.1-.975a.336.336,0,0,0,.258-.315A.413.413,0,0,0,1535.653,2155.348Z" transform="translate(-1524.7 -2150.1)"/></g><g transform="translate(0 4.989)"><path class="b" d="M848.154,2124.448l-4.1-.889-.918-4.1a.322.322,0,0,0-.631,0l-.946,4.1-4.1.975a.322.322,0,0,0,0,.631l4.1.889.918,4.1a.322.322,0,0,0,.631,0l.946-4.1,4.1-.975a.322.322,0,0,0,0-.631Z" transform="translate(-837.2 -2119.2)"/></g><g transform="translate(181.677)"><path class="b" d="M1476.478,2104.5l-2.122-.459-.487-2.122a.157.157,0,0,0-.172-.115.194.194,0,0,0-.172.115l-.488,2.122-2.122.516a.157.157,0,0,0-.115.172.181.181,0,0,0,.143.172l2.122.459.487,2.122a.157.157,0,0,0,.172.115.194.194,0,0,0,.172-.115l.488-2.122,2.122-.516a.157.157,0,0,0,.115-.172A.182.182,0,0,0,1476.478,2104.5Z" transform="translate(-1470.8 -2101.8)"/></g></g><g transform="translate(78.991 165.928)"><g transform="translate(15.369 0.143)"><path class="a" d="M1018.4,2378.759l3.355-12.559,39.369,10.9,10.867,21.362,42.294,6.681,5.849,36.445Z" transform="translate(-1018.4 -2366.2)"/></g><g transform="translate(1.118 1.72)"><path class="c" d="M1084.686,2445.507c-14.653,20.1-28.043,31.4-54.022,31.4a61.967,61.967,0,0,1-44.387-105.2l15.082,18.122,36.014,6.709,10.9,21.764,19.269-3.355Z" transform="translate(-968.7 -2371.7)"/></g><path class="a" d="M1027.911,2473.772a63.1,63.1,0,0,1-45.19-107.154l.889-.918,15.627,18.781,36.158,6.738,10.753,21.506,19.212-3.355,17.921,31.914-.43.6C1068.141,2462.1,1054.435,2473.772,1027.911,2473.772Zm-44.444-104.6a60.8,60.8,0,0,0,44.444,102.308c25.261,0,38.509-11.1,52.645-30.337l-16.4-29.19-19.3,3.355-11.011-22.021L998,2386.6Z" transform="translate(-964.8 -2365.7)"/></g><g transform="translate(81.397 0)"><g transform="translate(0 105.806)"><path class="a" d="M997.487,2156.832,973.2,2193.247l23.426,2.953,28.072-17.606,6.681,6.71,20.932-5.448,28.072,14.652,16.316-1.262L1068.655,2156Z" transform="translate(-973.2 -2156)"/></g><g transform="translate(0.115 39.943)"><g transform="translate(1.52 1.176)"><path class="c" d="M1073.122,1970.171c-6.71-12.5-9-26.437-10.151-33.979a6.846,6.846,0,0,0-6.767-5.792H1022a6.846,6.846,0,0,0-6.767,5.792c-1.147,7.541-3.441,21.477-10.15,33.979-7.627,14.165-24.086,40.831-26.179,58.81l26.781-27.211,23.455,18.408,5.448-3.355,20.1,12.129,18.007-26.38,26.581,26.38C1097.208,2011,1080.749,1984.335,1073.122,1970.171Z" transform="translate(-978.9 -1930.4)"/></g><path class="a" d="M973.6,2029.3l.4-3.355c1.778-15.312,13.477-36.215,21.993-51.469,1.577-2.81,3.068-5.477,4.3-7.771,6.853-12.731,9.089-27.355,10.036-33.606a7.968,7.968,0,0,1,7.914-6.8h34.179a7.943,7.943,0,0,1,7.914,6.8c.946,6.251,3.183,20.874,10.036,33.606h0c1.233,2.294,2.724,4.96,4.3,7.771,8.545,15.254,20.215,36.158,21.993,51.469l.373,3.269-27.957-27.727-17.835,26.122-20.416-12.33-5.534,3.412-23.255-18.294Zm57.233-16.717,19.756,11.928,18.179-26.609,25.061,24.86c-2.9-14.48-13.362-33.2-21.161-47.168-1.577-2.839-3.068-5.505-4.3-7.8h0c-7.054-13.075-9.319-27.986-10.294-34.351a5.654,5.654,0,0,0-5.62-4.817h-34.179a5.654,5.654,0,0,0-5.62,4.817c-.975,6.365-3.24,21.276-10.294,34.351-1.233,2.294-2.724,4.961-4.3,7.8-7.8,13.935-18.237,32.6-21.161,47.083l24.975-25.376,23.627,18.552Z" transform="translate(-973.6 -1926.3)"/></g><g transform="translate(60.129 35.785)"><path class="b" d="M1183.216,2043.24l-.315-2.294a18.459,18.459,0,0,0,10.638-5.1c-.574-.2-1.147-.4-1.721-.66-2.122-.889-6.28-3.47-6.624-7-.229-2.294,1.089-4.416,3.928-6.337a7.016,7.016,0,0,1,8.115.688c1.835,1.72,3.154,5.133-.143,11.871a13.353,13.353,0,0,0,9.4-1.118,10.19,10.19,0,0,0,5.161-6.882c.057-.315.086-.6.144-.889a1.649,1.649,0,0,0-.344.115c-2.208.66-8.488.516-10.609-2.667-1.376-2.093-.774-4.76,1.835-7.971a6.461,6.461,0,0,1,7.427-1.577c1.692.774,4.129,2.839,4.244,8.4a9.4,9.4,0,0,0,3.642-4.272c3.039-7.111-2.208-17.548-2.466-18.036-.717-1.261-13.821-24.4-17.606-32.717-5.419-11.871-7.943-53.1-8.057-54.853l2.323-.143c.028.43,2.61,42.523,7.857,54.021,3.785,8.287,17.405,32.316,17.548,32.574l.029.029c.258.487,6.05,11.785,2.552,20.014a12,12,0,0,1-5.878,6.079c-.057.717-.172,1.462-.315,2.265a12.439,12.439,0,0,1-6.308,8.516c-2.437,1.348-6.279,2.466-11.67,1.2a2.459,2.459,0,0,0-.172.287l-.115.144A20.421,20.421,0,0,1,1183.216,2043.24Zm9.462-20.014a4.364,4.364,0,0,0-2.294.573c-2.065,1.405-3.039,2.81-2.9,4.186.23,2.122,3.183,4.273,5.219,5.1.717.287,1.405.545,2.065.746,2.265-4.5,2.609-7.943.86-9.577A4.332,4.332,0,0,0,1192.678,2023.226Zm14.824-8.058a4.054,4.054,0,0,0-3.039,1.291c-1.29,1.606-2.667,3.785-1.692,5.219,1.29,1.95,6.107,2.294,8.028,1.72.43-.115.832-.258,1.233-.4.144-3.9-.831-6.566-2.867-7.484A4.214,4.214,0,0,0,1207.5,2015.169Z" transform="translate(-1182.9 -1911.8)"/></g><g transform="translate(23.622 35.785)"><path class="b" d="M1064.016,2040.775c-3.756,0-6.308-1.176-7.6-3.469-2.007-3.613.057-8.659,1.376-10.523a17.567,17.567,0,0,1,4.014-4.186c-.2-.23-.373-.43-.573-.66l-.029-.057c-.315-.4-7.541-9.692-3.068-18.81,2.237-4.588,6.279-10.925,10.151-17.061,5.132-8.086,10.437-16.459,11.1-19.9,2.523-13.248,6.222-53.907,6.251-54.308l2.294.2c-.029.4-3.756,41.176-6.308,54.538-.745,3.9-5.935,12.072-11.412,20.731-3.842,6.079-7.857,12.358-10.036,16.832-3.756,7.627,2.409,15.857,2.781,16.344.287.344.574.659.86,1a10.816,10.816,0,0,1,3.9-.946c7.283-.344,13.391,6.738,13.649,7.054l-1.749,1.491c-.057-.057-5.62-6.509-11.785-6.222a7.839,7.839,0,0,0-2.437.487c5.046,6.28,6.853,10.9,5.534,14.079-.832,2.036-2.925,3.24-5.878,3.384Zm-.688-16.373a14.492,14.492,0,0,0-3.613,3.728c-1.09,1.548-2.609,5.62-1.262,8.057.917,1.663,3.125,2.437,6.538,2.236,1.147-.057,3.211-.4,3.842-1.979C1069.378,2035.1,1069.321,2031.771,1063.328,2024.4Z" transform="translate(-1055.581 -1911.8)"/></g><g transform="translate(49.061)"><path class="a" d="M1168.9,1799.731v-.43a12.3,12.3,0,0,0-12.3-12.3h0a12.3,12.3,0,0,0-12.3,12.3v.43Z" transform="translate(-1144.3 -1787)"/></g><g transform="translate(36.903 9.491)"><rect class="a" width="48.889" height="29.993"/></g><g transform="translate(32.545 31.541)"><g transform="translate(1.118 1.147)"><path class="d" d="M1146.313,1905.846h0a4.84,4.84,0,0,1-4.846,4.846h-46.021a4.839,4.839,0,0,1-4.846-4.846h0a4.84,4.84,0,0,1,4.846-4.846h46.021A4.858,4.858,0,0,1,1146.313,1905.846Z" transform="translate(-1090.6 -1901)"/></g><path class="a" d="M1138.714,1908.986h-46.022a5.993,5.993,0,0,1,0-11.985h46.022a5.993,5.993,0,0,1,0,11.985Zm-46.022-9.663a3.67,3.67,0,0,0,0,7.34h46.022a3.677,3.677,0,0,0,3.67-3.67h0a3.677,3.677,0,0,0-3.67-3.67Z" transform="translate(-1086.7 -1897)"/></g><g transform="translate(32.545 19.039)"><g transform="translate(1.118 1.176)"><path class="d" d="M1146.313,1862.346h0a4.84,4.84,0,0,1-4.846,4.846h-46.021a4.84,4.84,0,0,1-4.846-4.846h0a4.84,4.84,0,0,1,4.846-4.846h46.021A4.822,4.822,0,0,1,1146.313,1862.346Z" transform="translate(-1090.6 -1857.5)"/></g><path class="a" d="M1138.714,1865.386h-46.022a5.993,5.993,0,0,1,0-11.986h46.022a5.993,5.993,0,0,1,0,11.986Zm-46.022-9.663a3.67,3.67,0,0,0,0,7.34h46.022a3.67,3.67,0,0,0,0-7.34Z" transform="translate(-1086.7 -1853.4)"/></g><g transform="translate(32.545 6.566)"><g transform="translate(1.118 1.147)"><path class="d" d="M1146.313,1818.746h0a4.84,4.84,0,0,1-4.846,4.846h-46.021a4.84,4.84,0,0,1-4.846-4.846h0a4.84,4.84,0,0,1,4.846-4.846h46.021A4.84,4.84,0,0,1,1146.313,1818.746Z" transform="translate(-1090.6 -1813.9)"/></g><path class="a" d="M1138.714,1821.886h-46.022a5.993,5.993,0,0,1,0-11.986h46.022a5.993,5.993,0,0,1,0,11.986Zm-46.022-9.663a3.67,3.67,0,0,0,0,7.341h46.022a3.67,3.67,0,0,0,0-7.341Z" transform="translate(-1086.7 -1809.9)"/></g></g><g transform="translate(0 148.902)"><g transform="translate(1.176 1.154)"><path class="d" d="M759.938,2324.011a5.847,5.847,0,0,1,4.358-1.29,25.779,25.779,0,0,1,6.767,1.52,21.206,21.206,0,0,1,6.165,3.04,6.2,6.2,0,0,1,2.523,3.871,10.1,10.1,0,0,1,.057,3.814,44.082,44.082,0,0,1-1.319,4.531l-24.2,71.053c-1.118,3.327-2.38,5.649-3.728,6.939a6.349,6.349,0,0,1-4.76,1.864A22.993,22.993,0,0,1,739.35,2418a22.283,22.283,0,0,1-5.649-2.638,10.562,10.562,0,0,1-2.81-2.666,5.251,5.251,0,0,1-.8-3.126,22.524,22.524,0,0,1,1.491-6.91l5.3-15.6-34.638-11.813q-8.946-3.053-8.946-8.459a19.933,19.933,0,0,1,1.233-5.706,26.387,26.387,0,0,1,2.122-4.989l25.2-39.2a47.683,47.683,0,0,1,2.867-4.015,7.685,7.685,0,0,1,3.3-2.151,7.142,7.142,0,0,1,4.875.086,23.072,23.072,0,0,1,5.563,2.9c5.419,3.642,7.455,7.4,6.165,11.24a23.161,23.161,0,0,1-2.724,5.075,1.044,1.044,0,0,0-.258.344l-18.408,28.531,20.846,7.111,11.9-34.9a39.663,39.663,0,0,1,1.663-4.272A9.4,9.4,0,0,1,759.938,2324.011Z" transform="translate(-693.3 -2310.347)"/></g><path class="a" d="M743.107,2417.627h-.258a29.138,29.138,0,0,1-12.76-4.186,11.461,11.461,0,0,1-3.1-2.982,6.3,6.3,0,0,1-.975-3.756,22.82,22.82,0,0,1,1.548-7.254l4.932-14.509L698.949,2373.5c-6.452-2.208-9.721-5.419-9.749-9.577a20.473,20.473,0,0,1,1.29-6.079,27.863,27.863,0,0,1,2.237-5.219l25.2-39.226c1.233-1.864,2.179-3.183,2.953-4.129a8.659,8.659,0,0,1,3.785-2.494,8.409,8.409,0,0,1,5.677.086,24.365,24.365,0,0,1,5.849,3.04c5.878,3.957,8.086,8.172,6.595,12.559a23.159,23.159,0,0,1-2.867,5.333l-.057.086-.086.086-.029.029h0l-17.692,27.412,18.323,6.251,11.527-33.806a39.916,39.916,0,0,1,1.72-4.416,10.265,10.265,0,0,1,2.581-3.126,6.939,6.939,0,0,1,5.19-1.577,27.891,27.891,0,0,1,7.083,1.577,22.877,22.877,0,0,1,6.509,3.211,7.417,7.417,0,0,1,2.982,4.559,11.179,11.179,0,0,1,.057,4.244,40.947,40.947,0,0,1-1.376,4.674l-24.2,71.054c-1.2,3.527-2.523,5.964-4.014,7.4A7.506,7.506,0,0,1,743.107,2417.627Zm-15.8-109.018a5.143,5.143,0,0,0-1.778.315,6.542,6.542,0,0,0-2.81,1.806c-.688.861-1.634,2.179-2.781,3.928l-25.176,39.2a24.7,24.7,0,0,0-2.007,4.731,18.8,18.8,0,0,0-1.176,5.362c0,3.01,2.753,5.505,8.172,7.341l35.728,12.186-5.677,16.688a21.115,21.115,0,0,0-1.434,6.509v.057a4.115,4.115,0,0,0,.6,2.437,9.5,9.5,0,0,0,2.495,2.352,21.519,21.519,0,0,0,5.362,2.495,21.808,21.808,0,0,0,6.108,1.29,5.227,5.227,0,0,0,3.928-1.548c1.2-1.176,2.351-3.355,3.412-6.48l24.2-71.054a35.883,35.883,0,0,0,1.29-4.387,8.874,8.874,0,0,0-.057-3.355,5.118,5.118,0,0,0-2.093-3.154,20.187,20.187,0,0,0-5.849-2.839,25.316,25.316,0,0,0-6.452-1.462,4.724,4.724,0,0,0-3.527,1h0a8.236,8.236,0,0,0-2.036,2.437,32.1,32.1,0,0,0-1.606,4.129l-12.272,35.986-23.34-7.943,19.183-29.706a1.95,1.95,0,0,1,.373-.517,20.945,20.945,0,0,0,2.523-4.7c1.118-3.3-.746-6.538-5.706-9.893a21.891,21.891,0,0,0-5.3-2.752A6.279,6.279,0,0,0,727.308,2308.61Z" transform="translate(-689.2 -2306.322)"/><g transform="translate(190.087 16.534)"><g transform="translate(1.194 1.098)"><path class="d" d="M1399.56,2372.712a5.941,5.941,0,0,1,3.355-3.068,25.67,25.67,0,0,1,6.738-1.577,21.747,21.747,0,0,1,6.882.029,6.2,6.2,0,0,1,3.957,2.38,11.087,11.087,0,0,1,1.72,3.384,44.508,44.508,0,0,1,.774,4.674l9.147,74.523c.43,3.5.316,6.107-.315,7.856a6.412,6.412,0,0,1-3.469,3.756,22.554,22.554,0,0,1-6.394,1.606,23.051,23.051,0,0,1-6.251.086,10.6,10.6,0,0,1-3.67-1.176,5.085,5.085,0,0,1-2.064-2.466,23.217,23.217,0,0,1-1.663-6.882l-2.007-16.344-36.33,4.444q-9.376,1.162-11.756-3.728a19.529,19.529,0,0,1-1.376-5.677,27.81,27.81,0,0,1-.258-5.419l5.62-46.251c.287-2.122.573-3.728.832-4.875a7.524,7.524,0,0,1,2.036-3.383,7.238,7.238,0,0,1,4.445-2.036,23.5,23.5,0,0,1,6.28.172c6.452.918,9.95,3.412,10.437,7.427a22.947,22.947,0,0,1-.258,5.735,1.809,1.809,0,0,0-.086.43l-4.158,33.692,21.849-2.695-4.5-36.588a33.1,33.1,0,0,1-.344-4.588A8.6,8.6,0,0,1,1399.56,2372.712Z" transform="translate(-1356.529 -2367.812)"/></g><path class="a" d="M1415.143,2464.978a14.385,14.385,0,0,1-2.609-.2,12.086,12.086,0,0,1-4.1-1.319,6.3,6.3,0,0,1-2.523-2.953,23.784,23.784,0,0,1-1.749-7.226l-1.864-15.2-35.183,4.33c-6.767.831-11.125-.631-12.932-4.358a21.119,21.119,0,0,1-1.491-6.05,26.124,26.124,0,0,1-.258-5.677l5.62-46.28a47.619,47.619,0,0,1,.86-4.989,8.51,8.51,0,0,1,2.322-3.9,8.287,8.287,0,0,1,5.133-2.38,25.839,25.839,0,0,1,6.6.172c7,1,10.839,3.842,11.412,8.43a22.756,22.756,0,0,1-.258,6.051l-.029.114-.029.115v.029h0l-3.986,32.373,19.211-2.351-4.358-35.441a41.944,41.944,0,0,1-.373-4.731,10.662,10.662,0,0,1,.946-3.928h0a6.978,6.978,0,0,1,3.986-3.7,28.074,28.074,0,0,1,7.054-1.663,22.323,22.323,0,0,1,7.254.057,7.442,7.442,0,0,1,4.674,2.81,11.387,11.387,0,0,1,1.892,3.785,40.194,40.194,0,0,1,.8,4.817l9.147,74.523c.459,3.7.315,6.452-.4,8.4a7.425,7.425,0,0,1-4.1,4.416,23.094,23.094,0,0,1-6.738,1.691C1417.609,2464.892,1416.29,2464.978,1415.143,2464.978Zm-10.867-29.477,2.151,17.491a22.164,22.164,0,0,0,1.548,6.509l.029.058a3.959,3.959,0,0,0,1.606,1.95,9.327,9.327,0,0,0,3.269,1.032,22.915,22.915,0,0,0,5.907-.086,21.577,21.577,0,0,0,6.079-1.52,5.188,5.188,0,0,0,2.867-3.1c.573-1.577.659-4.043.258-7.312L1418.842,2376a42.009,42.009,0,0,0-.746-4.531,9.275,9.275,0,0,0-1.52-3.011,5.147,5.147,0,0,0-3.269-1.921,20.9,20.9,0,0,0-6.48-.029,26.2,26.2,0,0,0-6.452,1.491,4.8,4.8,0,0,0-2.753,2.437h0a8.711,8.711,0,0,0-.774,3.068,42.669,42.669,0,0,0,.344,4.416l4.645,37.735-24.459,3.011,4.33-35.1a1.733,1.733,0,0,1,.115-.631,20.981,20.981,0,0,0,.229-5.333c-.43-3.47-3.527-5.563-9.462-6.423a21.221,21.221,0,0,0-5.964-.172,6.042,6.042,0,0,0-3.756,1.692,6.6,6.6,0,0,0-1.749,2.839,44.072,44.072,0,0,0-.8,4.76l-5.62,46.251a25.19,25.19,0,0,0,.258,5.133,18.765,18.765,0,0,0,1.29,5.333c1.319,2.724,4.875,3.757,10.552,3.069Zm-20.244-51.814Z" transform="translate(-1352.366 -2363.985)"/></g></g></g></g></svg>