<svg xmlns="http://www.w3.org/2000/svg" width="549.856" height="257.621" viewBox="0 0 549.856 257.621"><defs><style>.a{fill:#deb299;}.b{fill:#567c8b;}.c{fill:#b8ccd9;}.d{fill:#fff;}</style></defs><g transform="translate(-337.459 -1878.314)"><g transform="translate(317.459 1861.935)"><g transform="translate(110.01 16.379)"><g transform="translate(0 96.011)"><path class="a" d="M647.513,2191.21l-5.475-1.186-1.256-5.475a.425.425,0,0,0-.837,0l-1.255,5.51-5.475,1.29a.387.387,0,0,0-.314.419.415.415,0,0,0,.349.418l5.475,1.185,1.256,5.476a.386.386,0,0,0,.418.314.419.419,0,0,0,.419-.314l1.255-5.51,5.475-1.291a.386.386,0,0,0,.314-.418A.448.448,0,0,0,647.513,2191.21Z" transform="translate(-632.9 -2184.2)"/></g><g transform="translate(335.322 67.169)"><path class="a" d="M1609.013,2108.51l-5.475-1.186-1.255-5.475a.426.426,0,0,0-.837,0l-1.255,5.51-5.475,1.291a.386.386,0,0,0-.314.418.414.414,0,0,0,.349.418l5.475,1.186,1.255,5.475a.425.425,0,0,0,.837,0l1.255-5.511,5.475-1.29a.386.386,0,0,0,.314-.419A.492.492,0,0,0,1609.013,2108.51Z" transform="translate(-1594.4 -2101.5)"/></g><g transform="translate(140.999)"><path class="a" d="M1046.755,1913.434l-3.592-.767-.8-3.557a.265.265,0,0,0-.279-.209.3.3,0,0,0-.279.209l-.8,3.592-3.592.837a.265.265,0,0,0-.209.279.3.3,0,0,0,.209.279l3.592.767.8,3.557a.265.265,0,0,0,.279.209.3.3,0,0,0,.279-.209l.8-3.592,3.592-.837a.291.291,0,0,0,0-.558Z" transform="translate(-1037.2 -1908.9)"/></g><g transform="translate(373.789 107.868)"><path class="a" d="M1714.255,2222.734l-3.592-.767-.8-3.557a.265.265,0,0,0-.279-.209.3.3,0,0,0-.279.209l-.8,3.592-3.592.837a.265.265,0,0,0-.209.279.3.3,0,0,0,.209.279l3.592.767.8,3.557a.265.265,0,0,0,.279.209.3.3,0,0,0,.279-.209l.8-3.592,3.592-.837a.265.265,0,0,0,.209-.279C1714.465,2222.873,1714.4,2222.734,1714.255,2222.734Z" transform="translate(-1704.7 -2218.2)"/></g></g><g transform="translate(0 210.319)"><g transform="translate(94.874 24.517)"><path class="b" d="M589.5,2574.115h90.256c1.151-11.962-8.265-16.077-8.265-16.077,2.267-3.767,1.221-6.208,1.221-6.208-1.43-1.988-2.929,0-2.929,0,.07-4.847-2.337-5.685-2.337-5.685-1.709-.418-2.267,2.93-2.267,2.93-5.127-5.336-10.114-2.406-10.114-2.406a7.584,7.584,0,0,0,.349-3.7c-.942-1.22-1.918.349-1.918.349.279-6.487-2.058-6.766-2.058-6.766-2.337-.07-1.918,4.917-1.918,4.917-3.418-4.708-7.324-4.917-7.324-4.917-6.138-.07-9.172,6.347-9.172,6.347.418-7.6-2.337-7.6-2.337-7.6-3.139.628-1.151,8.893-1.151,8.893-4.429-3.488-8.265-2.651-8.265-2.651-7.394,1.29-9.451,11.683-9.451,11.683-2.058-2.929-3.488-2.2-3.488-2.2-1.988,1.081-1.011,4.115-1.011,4.115-6.556,1.639-1.43,2.929-1.43,2.929a9.493,9.493,0,0,0-2.127,3C591.8,2560.863,589.5,2574.115,589.5,2574.115Z" transform="translate(-589.5 -2535.3)"/></g><g transform="translate(20)"><g transform="translate(1.608 1.604)"><path class="c" d="M462.7,2530.073H322.22c-1.779-18.623,12.869-25.04,12.869-25.04-3.557-5.859-1.883-9.625-1.883-9.625,2.232-3.1,4.534,0,4.534,0-.1-7.533,3.662-8.858,3.662-8.858,2.65-.663,3.557,4.534,3.557,4.534,7.986-8.3,15.729-3.767,15.729-3.767a11.49,11.49,0,0,1-.558-5.754c1.43-1.883,3,.558,3,.558-.453-10.079,3.208-10.532,3.208-10.532,3.662-.1,3,7.638,3,7.638,5.3-7.324,11.4-7.638,11.4-7.638,9.521-.1,14.3,9.87,14.3,9.87-.663-11.857,3.662-11.857,3.662-11.857,4.882,1.011,1.779,13.845,1.779,13.845,6.87-5.441,12.869-4.115,12.869-4.115,11.509,1.988,14.752,18.17,14.752,18.17,3.209-4.534,5.44-3.418,5.44-3.418,3.1,1.674,1.534,6.417,1.534,6.417,10.184,2.546,2.232,4.534,2.232,4.534a15.109,15.109,0,0,1,3.313,4.639C459.174,2509.462,462.7,2530.073,462.7,2530.073Z" transform="translate(-322.07 -2469.6)"/></g><path class="b" d="M461.611,2528.682H317.752l-.139-1.465c-1.5-15.833,8.37-23.471,12.276-25.807-2.86-5.719-1.255-9.486-1.186-9.66l.07-.139.1-.139a4.29,4.29,0,0,1,3.418-2.058,4.407,4.407,0,0,1,.977.1c.8-6.1,4.394-7.463,4.569-7.5l.139-.035a3.316,3.316,0,0,1,2.685.453,6.363,6.363,0,0,1,2.058,2.72,14.557,14.557,0,0,1,12.764-3.313,11.059,11.059,0,0,1,.07-3.7l.07-.314.209-.279a2.978,2.978,0,0,1,2.581-1.325h.07c.314-8.265,3.871-9.172,4.638-9.242h.139a3.694,3.694,0,0,1,2.86,1.186,7.454,7.454,0,0,1,1.639,3.906c4.882-4.778,9.625-5.092,9.87-5.092h.07c5.964-.07,10.183,3.313,12.764,6.313.279-3.174,1.116-5.51,2.441-6.906a3.975,3.975,0,0,1,2.755-1.395h.174l.174.035a4.234,4.234,0,0,1,2.79,1.988c1.569,2.441,1.36,6.836.907,10.009,5.719-3.139,10.323-2.371,10.881-2.232,9.346,1.639,13.6,11.369,15.205,16.426,2.895-2.651,5.092-1.674,5.371-1.535,2.685,1.43,3.069,4.429,2.72,6.7,2.685.8,4.882,1.848,4.882,3.8a3.007,3.007,0,0,1-1.813,2.546,20.18,20.18,0,0,1,1.534,2.406c18.867.488,22.7,21.483,22.738,21.727Zm-140.895-3.209H457.705c-1.325-4.813-6.068-17.193-19.844-17.193h-1.325l-.418-.976a13.153,13.153,0,0,0-2.895-4.081l-2.406-2.023,3.069-.767a5.642,5.642,0,0,0,1.081-.384,21.213,21.213,0,0,0-3.313-1.081l-1.674-.419.523-1.639c0-.035,1.011-3.383-.663-4.464-.453-.035-1.744.384-3.487,2.895l-2.162,3.034-.732-3.662c-.035-.14-3.139-15.136-13.427-16.914h-.07c-.209-.035-5.406-1.046-11.509,3.8l-3.627,2.86,1.081-4.5c.8-3.278,1.535-9.242.209-11.334a1.112,1.112,0,0,0-.453-.453c-.593.349-2.476,2.093-2.023,10.079l.453,8.091-3.487-7.324c-.035-.1-4.429-9-12.8-8.963-.419.035-5.545.593-10.184,6.975l-3.383,4.638.488-5.719c.139-1.779-.035-4.813-.907-5.719a.533.533,0,0,0-.244-.174c-.419.279-2.162,1.883-1.848,8.823l.279,6-3.208-5.057a.936.936,0,0,0-.174-.209,11.788,11.788,0,0,0,.628,4.081l1.221,3.941-3.557-2.093c-.279-.14-6.8-3.767-13.776,3.487l-2.2,2.3-.523-3.138c-.174-1.081-.8-2.825-1.43-3.244a.108.108,0,0,0-.07-.035c-.419.209-2.616,1.674-2.511,7.289l.07,4.917-2.964-3.941a1.814,1.814,0,0,0-1.116-.732c-.209,0-.453.209-.732.558-.209.628-.872,3.557,1.848,8.021l.942,1.569-1.674.732C332.191,2503.746,319.915,2509.4,320.717,2525.473Zm109.158-32.922Zm-66.227-22.39Z" transform="translate(-317.459 -2465)"/></g><g transform="translate(80.736 32.538)"><g transform="translate(1.603 3.627)"><path class="d" d="M536.347,2584.429a19.172,19.172,0,0,0-7.254,10.183H497.985c-2.476-7.812-1.639-11.962-1.639-11.962,2.093,3.662,4.429,4.638,4.429,4.638,2.546-4.638,1.534-17.158,1.534-17.158a18.96,18.96,0,0,1,5.371,10.532,21.544,21.544,0,0,1,9.835-11.962c-4.882,7.986-5.092,19.7-5.092,19.7,6-9.521,17.4-8.4,17.4-8.4-8.3,2.755-8.649,11.195-8.649,11.195C526.826,2584.882,536.347,2584.429,536.347,2584.429Z" transform="translate(-496.209 -2568.7)"/></g><path class="b" d="M527.252,2589.443H493.806l-.349-1.116c-2.581-8.126-1.709-12.59-1.674-12.764l.837-4.185,2.127,3.7a12.855,12.855,0,0,0,2.3,2.965c1.151-4.22.942-11.648.7-14.543l-.314-4.08,3,2.79a19.2,19.2,0,0,1,4.638,6.94,23.134,23.134,0,0,1,8.788-8.649l4.778-2.2-2.72,4.464c-2.651,4.359-3.871,9.974-4.429,13.95,6.522-5.894,15.066-5.127,15.519-5.092l7.5.732-7.149,2.371a10.74,10.74,0,0,0-6.173,5.127,27.665,27.665,0,0,1,12.1-3.8l5.824-.279-4.848,3.208c-4.011,2.651-5.859,6.975-6.626,9.346Zm-8.579-3.208h6.277a23.227,23.227,0,0,1,3.348-6.033,19.3,19.3,0,0,0-8.928,5.266Zm-10.253,0h8.091l.07-1.883a14.952,14.952,0,0,1,3.766-8.858,16,16,0,0,0-9.556,6.975Zm-12.241,0h11.544l.1-4.638a52.743,52.743,0,0,1,2.511-14.264,19.257,19.257,0,0,0-4.08,7.045l-2.3,7.184-.837-7.5a17.947,17.947,0,0,0-1.953-5.754c.035,4.22-.279,9.939-1.953,12.973l-.7,1.29-1.325-.558a8.061,8.061,0,0,1-2.162-1.5A30.522,30.522,0,0,0,496.178,2586.235Z" transform="translate(-491.614 -2558.3)"/></g></g><g transform="translate(411.629 210.319)"><g transform="translate(67.874 24.517)"><path class="b" d="M1769.8,2574.115h90.256c1.151-11.962-8.266-16.077-8.266-16.077,2.267-3.767,1.221-6.208,1.221-6.208-1.43-1.988-2.93,0-2.93,0,.07-4.847-2.337-5.685-2.337-5.685-1.709-.418-2.267,2.93-2.267,2.93-5.126-5.336-10.114-2.406-10.114-2.406a7.586,7.586,0,0,0,.349-3.7c-.942-1.22-1.918.349-1.918.349.279-6.487-2.058-6.766-2.058-6.766-2.337-.07-1.918,4.917-1.918,4.917-3.418-4.708-7.324-4.917-7.324-4.917-6.138-.07-9.172,6.347-9.172,6.347.418-7.6-2.337-7.6-2.337-7.6-3.139.628-1.151,8.893-1.151,8.893-4.429-3.488-8.265-2.651-8.265-2.651-7.393,1.29-9.451,11.683-9.451,11.683-2.058-2.929-3.487-2.2-3.487-2.2-1.988,1.081-1.011,4.115-1.011,4.115-6.557,1.639-1.43,2.929-1.43,2.929a9.492,9.492,0,0,0-2.127,3C1772.067,2560.863,1769.8,2574.115,1769.8,2574.115Z" transform="translate(-1769.8 -2535.3)"/></g><g transform="translate(1.608 1.604)"><path class="c" d="M1643,2530.073H1502.52c-1.779-18.623,12.869-25.04,12.869-25.04-3.557-5.859-1.883-9.625-1.883-9.625,2.232-3.1,4.534,0,4.534,0-.1-7.533,3.662-8.858,3.662-8.858,2.651-.663,3.557,4.534,3.557,4.534,7.986-8.3,15.729-3.767,15.729-3.767a11.492,11.492,0,0,1-.558-5.754c1.43-1.883,3,.558,3,.558-.453-10.079,3.208-10.532,3.208-10.532,3.662-.1,3,7.638,3,7.638,5.3-7.324,11.4-7.638,11.4-7.638,9.521-.1,14.3,9.87,14.3,9.87-.663-11.857,3.662-11.857,3.662-11.857,4.882,1.011,1.779,13.845,1.779,13.845,6.87-5.441,12.869-4.115,12.869-4.115,11.509,1.988,14.752,18.17,14.752,18.17,3.208-4.534,5.441-3.418,5.441-3.418,3.1,1.674,1.535,6.417,1.535,6.417,10.183,2.546,2.232,4.534,2.232,4.534a15.109,15.109,0,0,1,3.313,4.639C1639.439,2509.462,1643,2530.073,1643,2530.073Z" transform="translate(-1502.37 -2469.6)"/></g><path class="b" d="M1641.911,2528.682H1498.052l-.14-1.465c-1.5-15.833,8.37-23.471,12.276-25.807-2.86-5.719-1.255-9.486-1.186-9.66l.07-.139.1-.139a4.29,4.29,0,0,1,3.418-2.058,4.408,4.408,0,0,1,.977.1c.8-6.1,4.394-7.463,4.568-7.5l.14-.035a3.316,3.316,0,0,1,2.685.453,6.363,6.363,0,0,1,2.058,2.72,14.557,14.557,0,0,1,12.764-3.313,11.06,11.06,0,0,1,.07-3.7l.07-.314.209-.279a3.014,3.014,0,0,1,2.581-1.325h.07c.314-8.265,3.871-9.172,4.639-9.242h.139a3.693,3.693,0,0,1,2.86,1.186,7.454,7.454,0,0,1,1.639,3.906c4.882-4.778,9.625-5.092,9.87-5.092h.07c5.964-.07,10.183,3.313,12.764,6.313.279-3.174,1.116-5.51,2.441-6.906a3.975,3.975,0,0,1,2.755-1.395h.174l.174.035a4.233,4.233,0,0,1,2.79,1.988c1.569,2.441,1.36,6.836.907,10.009,5.719-3.139,10.323-2.371,10.881-2.232,9.346,1.639,13.6,11.369,15.205,16.426,2.895-2.651,5.092-1.674,5.371-1.535,2.685,1.43,3.069,4.429,2.72,6.7,2.685.8,4.882,1.848,4.882,3.8a3.033,3.033,0,0,1-1.779,2.546,20.177,20.177,0,0,1,1.535,2.406c18.867.488,22.7,21.483,22.738,21.727Zm-140.929-3.209H1637.97c-1.325-4.813-6.068-17.193-19.844-17.193H1616.8l-.418-.976a13.154,13.154,0,0,0-2.895-4.081l-2.441-2.023,3.069-.767a5.642,5.642,0,0,0,1.081-.384,21.208,21.208,0,0,0-3.313-1.081l-1.674-.419.523-1.639c0-.035,1.011-3.383-.663-4.464-.453-.035-1.744.418-3.487,2.895l-2.162,3.034-.732-3.662c-.035-.14-3.139-15.136-13.427-16.914h-.07c-.209-.035-5.371-1.046-11.509,3.8l-3.627,2.86,1.081-4.5c.8-3.278,1.534-9.242.209-11.334a1.111,1.111,0,0,0-.453-.453c-.593.349-2.476,2.093-2.023,10.079l.453,8.091-3.488-7.324c-.035-.1-4.429-8.963-12.694-8.963h-.1c-.418.035-5.545.593-10.183,6.975l-3.383,4.638.488-5.719c.139-1.779-.035-4.813-.907-5.719a.533.533,0,0,0-.244-.174c-.418.279-2.162,1.883-1.849,8.823l.279,6-3.208-5.057a.931.931,0,0,0-.174-.209,11.789,11.789,0,0,0,.628,4.081l1.221,3.941-3.557-2.093c-.279-.14-6.8-3.767-13.776,3.487l-2.2,2.3-.523-3.138c-.174-1.081-.8-2.825-1.43-3.244a.108.108,0,0,0-.07-.035c-.418.209-2.616,1.674-2.511,7.289l.07,4.917-2.964-3.941a1.913,1.913,0,0,0-1.116-.732c-.209,0-.453.209-.732.558-.209.628-.872,3.557,1.848,8.021l.942,1.569-1.674.732C1512.456,2503.746,1500.215,2509.4,1500.982,2525.473Zm109.193-32.922Zm-66.227-22.39Z" transform="translate(-1497.759 -2465)"/><g transform="translate(60.736 27.342)"><g transform="translate(1.603 3.418)"><path class="d" d="M1716.647,2574.334a19.174,19.174,0,0,0-7.254,10.184h-31.108c-2.476-7.812-1.639-11.962-1.639-11.962,2.092,3.662,4.429,4.638,4.429,4.638,2.546-4.638,1.535-17.158,1.535-17.158a27.258,27.258,0,0,1,6.243,8.021c4.568-12,14.159-14.822,14.3-14.857-3.8,7.149-6.87,18.309-6.87,18.309,6.277-5.719,16.007-3.417,16.007-3.417-8.3,2.755-9.73,12-9.73,12C1708.242,2573.741,1716.647,2574.334,1716.647,2574.334Z" transform="translate(-1676.51 -2553.2)"/></g><path class="b" d="M1707.551,2579.74h-33.445l-.349-1.116c-2.581-8.126-1.709-12.59-1.674-12.764l.837-4.185,2.127,3.7a12.858,12.858,0,0,0,2.3,2.964c1.151-4.22.942-11.648.7-14.543l-.314-4.115,3,2.79a33.555,33.555,0,0,1,4.952,5.685c4.673-9.277,12.206-12.276,13.915-12.834l4.22-1.918-2.2,4.185a90.693,90.693,0,0,0-5.475,13.811c6.243-2.895,13.218-1.325,13.566-1.256l5.51,1.291-5.371,1.779a12.315,12.315,0,0,0-6.766,5.685,21.411,21.411,0,0,1,10.672-2.546l4.708.349-3.941,2.615c-4.011,2.651-5.859,6.975-6.626,9.347Zm-8.37-3.209h6.068a22.28,22.28,0,0,1,3.732-6.486,15.529,15.529,0,0,0-8.161,4.708Zm-22.7,0h21.064l.488-3.1a18.639,18.639,0,0,1,5.964-10.6,14.85,14.85,0,0,0-9.591,3.453l-4.08,3.731,1.465-5.336a130.432,130.432,0,0,1,4.987-14.4,23.949,23.949,0,0,0-9.381,12l-1.4,3.7-1.569-3.627a20.2,20.2,0,0,0-2.964-4.429c.07,4.255-.174,10.5-1.953,13.74l-.7,1.291-1.325-.558a8.033,8.033,0,0,1-2.162-1.5A31.071,31.071,0,0,0,1676.478,2576.531Z" transform="translate(-1671.914 -2543.4)"/></g></g><g transform="translate(180.562 35.246)"><g transform="translate(186.72 82.688)"><rect class="b" width="30.167" height="154.287"/></g><g transform="translate(16.461 82.688)"><rect class="b" width="30.167" height="154.287"/></g><g transform="translate(0 123.771)"><g transform="translate(1.604 1.604)"><rect class="d" width="229.268" height="61.205"/></g><path class="b" d="M1067.676,2382.279H835.2V2317.9h232.441v64.379Zm-229.268-3.208h226.059v-58H838.408Z" transform="translate(-835.2 -2317.9)"/></g><g transform="translate(0 123.771)"><g transform="translate(1.604 1.604)"><path class="a" d="M881.545,2322.5,839.8,2361.665V2322.5Z" transform="translate(-839.8 -2322.5)"/></g><path class="b" d="M835.2,2362.365V2317.9h47.395Zm3.208-41.257v33.864l36.1-33.864Z" transform="translate(-835.2 -2317.9)"/></g><g transform="translate(20.123 123.771)"><g transform="translate(3.836 1.604)"><path class="a" d="M1006.293,2322.5l-58.311,61.17H903.9l60.543-61.17Z" transform="translate(-903.9 -2322.5)"/></g><path class="b" d="M941.516,2382.279H892.9l63.716-64.379H1002.9Zm-40.943-3.208h39.583l55.242-58H957.942Z" transform="translate(-892.9 -2317.9)"/></g><g transform="translate(103.683 123.771)"><g transform="translate(3.836 1.604)"><path class="a" d="M1246.172,2322.5l-61.205,61.17H1143.5l60.543-61.17Z" transform="translate(-1143.5 -2322.5)"/></g><path class="b" d="M1178.465,2382.279H1132.5l63.716-64.379h46.663Zm-38.293-3.208h36.967l58-58h-37.6Z" transform="translate(-1132.5 -2317.9)"/></g><g transform="translate(186.86 144.277)"><g transform="translate(3.976 3.801)"><path class="a" d="M1422.436,2387.6v38.467H1382.4Z" transform="translate(-1382.4 -2387.6)"/></g><path class="b" d="M1416.616,2420.573H1371l45.582-43.873v43.873Zm-37.665-3.208h34.422v-33.131Z" transform="translate(-1371 -2376.7)"/></g><g transform="translate(0 41.048)"><g transform="translate(1.604 1.569)"><rect class="d" width="229.268" height="61.205"/></g><path class="b" d="M1067.676,2145.079H835.2V2080.7h232.441v64.379Zm-229.268-3.208h226.059v-58H838.408Z" transform="translate(-835.2 -2080.7)"/></g><g transform="translate(0 41.048)"><g transform="translate(1.604 1.569)"><path class="a" d="M881.545,2085.2,839.8,2124.4v-39.2Z" transform="translate(-839.8 -2085.2)"/></g><path class="b" d="M835.2,2125.165V2080.7h47.395Zm3.208-41.292v33.864l36.1-33.864Z" transform="translate(-835.2 -2080.7)"/></g><g transform="translate(20.123 41.048)"><g transform="translate(3.836 1.569)"><path class="a" d="M1006.293,2085.2l-58.311,61.206H903.9l60.543-61.206Z" transform="translate(-903.9 -2085.2)"/></g><path class="b" d="M941.516,2145.079H892.9l63.716-64.379H1002.9Zm-40.943-3.208h39.583l55.242-58H957.942Z" transform="translate(-892.9 -2080.7)"/></g><g transform="translate(103.683 41.048)"><g transform="translate(3.836 1.569)"><path class="a" d="M1246.172,2085.2l-61.205,61.206H1143.5l60.543-61.206Z" transform="translate(-1143.5 -2085.2)"/></g><path class="b" d="M1178.465,2145.079H1132.5l63.716-64.379h46.663Zm-38.293-3.208h36.967l58-58h-37.6Z" transform="translate(-1132.5 -2080.7)"/></g><g transform="translate(186.86 61.554)"><g transform="translate(3.976 3.767)"><path class="a" d="M1422.436,2150.3v38.5H1382.4Z" transform="translate(-1382.4 -2150.3)"/></g><path class="b" d="M1416.616,2183.372H1371l45.582-43.872v43.872Zm-37.665-3.208h34.422v-33.131Z" transform="translate(-1371 -2139.5)"/></g></g></g></g></svg>