<svg xmlns="http://www.w3.org/2000/svg" xmlns:xlink="http://www.w3.org/1999/xlink" width="60" height="52" viewBox="0 0 60 52"><defs><style>.a{fill:#f1efef;opacity:0.1;isolation:isolate;}.b{fill:url(#a);}.c{fill:url(#b);}.d{fill:url(#c);}</style><linearGradient id="a" x1="-41.164" y1="-11.617" x2="-41.158" y2="-11.624" gradientUnits="objectBoundingBox"><stop offset="0" stop-color="#f6c338"/><stop offset="0.523" stop-color="#ffd351"/><stop offset="1" stop-color="#f6c338"/></linearGradient><linearGradient id="b" x1="-33.44" y1="-23.946" x2="-33.445" y2="-23.959" gradientUnits="objectBoundingBox"><stop offset="0" stop-color="#286ee6"/><stop offset="0.521" stop-color="#4286fb"/><stop offset="1" stop-color="#286ee6"/></linearGradient><linearGradient id="c" x1="-54.763" y1="-7.518" x2="-54.765" y2="-7.523" gradientUnits="objectBoundingBox"><stop offset="0" stop-color="#069b5a"/><stop offset="0.531" stop-color="#11aa62"/><stop offset="1" stop-color="#069b5a"/></linearGradient></defs><g transform="translate(-1487.344 -1633)"><path class="a" d="M1502.264,1699.876l19.816-18.385h-9.157Z" transform="translate(-4.601 -14.876)"/><path class="a" d="M1562.763,1678.193h-21.246l-4.674-8.06Z" transform="translate(-15.419 -11.251)"/><path class="a" d="M1515.337,1633l6.128,26.23,4.531-7.8Z" transform="translate(-8.541)"/><path class="b" d="M1515.337,1633h21.222l19.959,34.409h-21.27Z" transform="translate(-9.174)"/><path class="c" d="M1552.722,1681.491l-10.635,18.385h-39.823l10.66-18.385Z" transform="translate(-5.378 -14.876)"/><path class="d" d="M1497.931,1685l-10.587-18.109L1507.208,1633l10.659,18.155Z" transform="translate(0 0)"/></g></svg>