<svg xmlns="http://www.w3.org/2000/svg" width="118" height="29" viewBox="0 0 118 29"><defs><style>.a{fill:#040217;opacity:0.3;}</style></defs><path class="a" d="M93.731,262.768c0-8.89-2.97-13.217-9.068-13.217h-.354c-1.652,0-2.124.47-2.124,2.134v22.146c0,1.645.472,2.134,2.124,2.134h.354c6.117,0,9.068-4.308,9.068-13.2Zm4.957-.039c0,8.44-5.567,14.118-13.848,14.118H74.848v-.881h.629c1.652,0,2.124-.47,2.124-2.134V251.685c0-1.645-.472-2.115-2.124-2.115h-.629v-.92H84.84C93.121,248.65,98.688,254.309,98.688,262.729Zm-41.582-7.167c0-4.269-1.888-6.266-5.96-6.266h-.708c-1.77,0-2.4.587-2.4,2.409v10.1h2.754C55.158,261.789,57.106,259.851,57.106,255.563Zm5.232,20.4h.708v.881H61.02c-3.4,0-4.74-1.762-4.78-6.286v-1.625c0-5.972-1.633-6.56-5.626-6.56H48.294v11.455c0,1.645.472,2.134,2.124,2.134h.865v.881H40.976v-.881h.629c1.652,0,2.124-.47,2.124-2.134V251.685c0-1.645-.472-2.115-2.124-2.115h-.472v-.92h10.7c4.7,0,9.481,2.487,9.481,7.226,0,3.681-2.813,5.5-6.1,6.109,3.265.744,5.7,2.82,5.7,8.185v3.7C60.941,275.438,61.3,275.966,62.338,275.966Zm-25.276-6.658c0-4.778-1.987-6.912-6.432-6.912H27.857v11.455c0,1.645.472,2.134,2.124,2.134h1.18c4.091-.02,5.9-2.076,5.9-6.677Zm-9.206-7.793H30.65c3.678,0,5.311-1.841,5.311-5.992,0-4.112-1.672-5.953-5.39-5.953h-.59c-1.652,0-2.124.47-2.124,2.134C27.857,251.685,27.857,261.515,27.857,261.515ZM41.9,269.544c0,4.582-3.757,7.3-10.071,7.3H20.5v-.881h.649c1.652,0,2.124-.47,2.124-2.134V251.685c0-1.645-.472-2.134-2.124-2.134H20.5v-.92H31.318c5.488,0,9.166,2.839,9.166,7.069,0,3.76-2.734,5.62-5.881,6.246C38.459,262.768,41.9,265.06,41.9,269.544Zm76.024-2.781c-.275,6.658-2.773,9.242-8.91,9.242h-1.377c-1.652,0-2.124-.47-2.124-2.134V262.416h1.849c3.6,0,5.193,1.723,5.193,5.6v.274h.885V256.072h-.885v.274c0,4.308-1.987,5.169-5.193,5.169h-1.849v-9.81c0-1.645.472-2.134,2.124-2.134h1.377c5.567,0,8.163,2.565,8.163,8.048v.274h.885V248.65H98.2v.92h.629c1.652,0,2.124.47,2.124,2.115v22.146c0,1.645-.472,2.134-2.124,2.134H98.2v.881H118.81v-10.4h-.865A1.9,1.9,0,0,0,117.925,266.763ZM133.8,261.1c-1.062-.509-2.2-.92-3.3-1.332-3.541-1.312-6.609-2.448-6.609-5.8,0-2.311,1.633-4.817,5.232-4.817,4.131,0,7.14,3.544,7.14,8.44v.274h.846V248.22h-.846v.274c0,1.057-.511,1.057-.747,1.057a6.921,6.921,0,0,1-1.888-.45,15.445,15.445,0,0,0-4.858-.9c-4.819,0-8.183,3.133-8.183,7.617,0,3.6,2.1,5.894,7.278,7.891l.944.352c3.226,1.194,6.57,2.408,6.57,6.54,0,3.427-2.183,5.718-5.429,5.718-6.157,0-9.028-5.737-9.028-9.614v-.274h-.885v10.4h.885v-.274a1,1,0,0,1,1.141-1.136,6.879,6.879,0,0,1,2.262.607,14.456,14.456,0,0,0,5.547,1.175c5.232,0,8.635-3.329,8.635-8.5.02-3.76-1.4-6.051-4.7-7.6ZM63.774,248.65h10.11v.92h-.629c-1.652,0-2.124.47-2.124,2.134v22.146c0,1.645.472,2.134,2.124,2.134h.629v.881H63.774v-.9h.649c1.652,0,2.124-.47,2.124-2.134V251.685c0-1.645-.472-2.115-2.124-2.115h-.649v-.92Z" transform="translate(-20.5 -248.199)"/></svg>